<?xml version="1.0" encoding="UTF-8" standalone="no"?>
<!-- Created with Inkscape (http://www.inkscape.org/) -->

<svg
   width="512"
   height="512"
   viewBox="0 0 512 512"
   version="1.1"
   id="svg1"
   xml:space="preserve"
   inkscape:version="1.3 (0e150ed6c4, 2023-07-21)"
   sodipodi:docname="toolbox_blue.svg"
   inkscape:export-filename="../Development/musbx/assets/icon/toolbox.png"
   inkscape:export-xdpi="384"
   inkscape:export-ydpi="384"
   xmlns:inkscape="http://www.inkscape.org/namespaces/inkscape"
   xmlns:sodipodi="http://sodipodi.sourceforge.net/DTD/sodipodi-0.dtd"
   xmlns="http://www.w3.org/2000/svg"
   xmlns:svg="http://www.w3.org/2000/svg"><sodipodi:namedview
     id="namedview1"
     pagecolor="#ffffff"
     bordercolor="#000000"
     borderopacity="0.25"
     inkscape:showpageshadow="2"
     inkscape:pageopacity="0.0"
     inkscape:pagecheckerboard="0"
     inkscape:deskcolor="#d1d1d1"
     inkscape:document-units="px"
     inkscape:zoom="0.96254191"
     inkscape:cx="-39.998258"
     inkscape:cy="363.10107"
     inkscape:window-width="1920"
     inkscape:window-height="1011"
     inkscape:window-x="0"
     inkscape:window-y="0"
     inkscape:window-maximized="1"
     inkscape:current-layer="layer1" /><defs
     id="defs1"><inkscape:path-effect
       effect="fillet_chamfer"
       id="path-effect2"
       is_visible="true"
       lpeversion="1"
       nodesatellites_param="F,0,1,1,0,2.6422433,0,1 @ F,0,1,1,0,2.6422433,0,1 @ F,0,1,1,0,2.6422433,0,1 @ F,0,1,1,0,2.6422433,0,1 @ F,0,1,1,0,2.6422433,0,1 @ F,0,0,1,0,0,0,1 @ F,0,1,1,0,2.6422433,0,1 | F,0,0,1,0,0,0,1 @ F,0,1,1,0,2.6422433,0,1 @ F,0,0,1,0,0,0,1 @ F,0,1,1,0,2.6422433,0,1 @ F,0,0,1,0,0,0,1 @ F,0,1,1,0,2.6422433,0,1 @ F,0,1,1,0,2.6422433,0,1 @ F,0,0,1,0,0,0,1 @ F,0,1,1,0,2.6422433,0,1 @ F,0,0,1,0,0,0,1 @ F,0,1,1,0,2.6422433,0,1 @ F,0,0,1,0,0,0,1 @ F,0,1,1,0,2.6422433,0,1 @ F,0,1,1,0,2.6422433,0,1 @ F,0,0,1,0,0,0,1 @ F,0,1,1,0,2.6422433,0,1 @ F,0,0,1,0,0,0,1 @ F,0,1,1,0,2.6422433,0,1 @ F,0,0,1,0,0,0,1 @ F,0,0,1,0,0,0,1 @ F,0,0,1,0,0,0,1 @ F,0,1,1,0,2.6422433,0,1 @ F,0,1,1,0,2.6422433,0,1 @ F,0,0,1,0,2.6422433,0,1 @ F,0,1,1,0,2.6422433,0,1 @ F,0,0,1,0,0,0,1 @ F,0,0,1,0,0,0,1"
       radius="0"
       unit="px"
       method="auto"
       mode="F"
       chamfer_steps="1"
       flexible="false"
       use_knot_distance="true"
       apply_no_radius="true"
       apply_with_radius="true"
       only_selected="false"
       hide_knots="false" /><inkscape:path-effect
       effect="fillet_chamfer"
       id="path-effect2-4"
       is_visible="true"
       lpeversion="1"
       nodesatellites_param="F,0,1,1,0,2.6422433,0,1 @ F,0,1,1,0,2.6422433,0,1 @ F,0,1,1,0,2.6422433,0,1 @ F,0,1,1,0,2.6422433,0,1 @ F,0,1,1,0,2.6422433,0,1 @ F,0,0,1,0,0,0,1 @ F,0,1,1,0,2.6422433,0,1 | F,0,0,1,0,0,0,1 @ F,0,1,1,0,2.6422433,0,1 @ F,0,0,1,0,0,0,1 @ F,0,1,1,0,2.6422433,0,1 @ F,0,0,1,0,0,0,1 @ F,0,1,1,0,2.6422433,0,1 @ F,0,1,1,0,2.6422433,0,1 @ F,0,0,1,0,0,0,1 @ F,0,1,1,0,2.6422433,0,1 @ F,0,0,1,0,0,0,1 @ F,0,1,1,0,2.6422433,0,1 @ F,0,0,1,0,0,0,1 @ F,0,1,1,0,2.6422433,0,1 @ F,0,1,1,0,2.6422433,0,1 @ F,0,0,1,0,0,0,1 @ F,0,1,1,0,2.6422433,0,1 @ F,0,0,1,0,0,0,1 @ F,0,1,1,0,2.6422433,0,1 @ F,0,0,1,0,0,0,1 @ F,0,0,1,0,0,0,1 @ F,0,0,1,0,0,0,1 @ F,0,1,1,0,2.6422433,0,1 @ F,0,1,1,0,2.6422433,0,1 @ F,0,0,1,0,2.6422433,0,1 @ F,0,1,1,0,2.6422433,0,1 @ F,0,0,1,0,0,0,1 @ F,0,0,1,0,0,0,1"
       radius="0"
       unit="px"
       method="auto"
       mode="F"
       chamfer_steps="1"
       flexible="false"
       use_knot_distance="true"
       apply_no_radius="true"
       apply_with_radius="true"
       only_selected="false"
       hide_knots="false" /></defs><g
     inkscape:label="Layer 1"
     inkscape:groupmode="layer"
     id="layer1"><path
       id="path4"
       style="fill:#0057cc;stroke-width:3.40312;fill-opacity:1"
       d="m 99.898234,27.169245 c -0.57501,-0.06789 -1.19911,0.06778 -1.90458,0.404 -2.86079,1.363328 -96.8745828,85.665655 -96.9471568,86.932665 -0.18895996,3.29889 2.716078,3.81504 30.3790848,5.39949 32.069529,1.83685 39.042349,3.23302 51.620082,10.33086 6.57814,3.71214 10.45383,7.24063 22.807816,20.76859 l 14.88174,16.2968 8.32582,-0.0727 c 7.43729,-0.0658 19.31445,1.89747 24.43238,4.03786 1.0312,0.43126 -7.83211,-10.2764 -19.69768,-23.79325 -22.96876,-26.16527 -24.35811,-28.01936 -28.81866,-38.47191 -5.076406,-11.8955 -5.491496,-17.61367 -3.64669,-50.132333 1.37784,-24.293116 1.41073,-29.738323 0.18597,-30.879277 -0.51574,-0.480391 -1.04313,-0.752931 -1.618126,-0.820825 z M 127.72934,174.21667 c -4.68015,0.0606 -9.19671,0.54123 -12.928,1.47065 -27.299066,6.79992 -46.996409,30.17856 -48.569772,57.64802 -0.857197,14.9657 2.571416,27.70548 10.630115,39.72666 H 53.211654 a 10.972361,10.972361 0 0 0 -10.974262,10.97212 v 121.14869 a 26.587464,26.587464 0 0 0 7.740125,18.75072 l 52.857723,53.13562 a 26.392396,26.392396 0 0 0 18.71226,7.7786 h 9.07824 l 49.84589,-83.20903 a 10.972361,10.972361 0 0 0 -8.01587,-3.99724 h -5.63676 -5.63889 a 10.972361,10.972361 0 0 0 -10.97213,10.97212 v 16.01892 c 0,26.74558 -0.10638,26.99318 -11.54072,26.99318 -8.64845,0 -18.01185,-6.53049 -37.3732,-26.06548 L 83.184604,407.28831 A 26.657755,26.657755 0 0 1 75.45944,388.52262 V 321.40733 A 10.972361,10.972361 0 0 1 86.431564,310.4352 H 235.10996 l 6.6008,-11.01915 c 11.64817,14.4511 28.63336,2.27212 13.44315,-16.34169 -0.78781,-0.96538 -1.34403,-1.61395 -2.11832,-2.56081 l 4.46323,-7.45155 h -10.63011 c -71.09362,-86.38889 -82.05062,-90.29886 -97.25284,-95.77791 -5.83072,-2.10147 -14.0863,-3.16835 -21.88653,-3.06742 z m -1.81694,23.74409 c 1.55282,0.0145 3.36658,0.0961 5.59829,0.22658 16.68558,0.97416 30.69715,1.7472 89.43148,74.87466 h -47.3022 l 17.78241,-15.86929 -6.17756,-6.85304 -6.17756,-6.85517 -24.68675,21.99556 -8.50965,7.58194 H 107.74523 C 94.396894,258.49792 90.846794,250.53613 89.883734,241.16951 c -1.85236,-18.01527 8.02786,-34.2582 24.964626,-41.04553 4.10726,-1.64597 6.40558,-2.20667 11.06404,-2.16322 z m 89.30109,5.55554 c -3.85798,-0.22098 -6.22486,5.30137 -3.55476,8.29589 0.94758,1.06272 0.52779,2.0211 -1.8661,4.24948 l -3.09092,2.87502 5.91678,6.56447 c 3.2533,3.61033 6.1572,6.57945 6.45545,6.59652 0.29827,0.0171 1.65629,-0.96142 3.0161,-2.1739 2.20495,-1.96607 2.81863,-2.03702 5.66882,-0.6605 3.51808,1.69904 4.92132,1.31843 6.86374,-1.85969 1.13565,-1.85806 0.13604,-3.4391 -8.18047,-12.9515 -5.21019,-5.95942 -10.26244,-10.88045 -11.22864,-10.93579 z m 27.60453,32.17249 c -1.44116,-0.26825 -2.48981,0.4536 -3.43934,2.00719 -1.02629,1.6791 -0.9916,2.76793 0.15176,4.7518 1.3766,2.38861 1.26182,2.77114 -1.57325,5.29903 l -3.05457,2.72325 6.14977,6.89579 6.14978,6.89793 3.12726,-2.78739 c 2.45131,-2.18572 3.39608,-2.48742 4.37132,-1.3937 0.68416,0.76729 2.60369,1.47372 4.26658,1.56898 2.34843,0.1345 3.21863,-0.44855 3.89464,-2.60997 0.76358,-2.44144 -0.2439,-4.03709 -8.21038,-13.01349 -5.9397,-6.69271 -9.43164,-9.89232 -11.83357,-10.33942 z m 28.94264,31.45215 c -0.58632,-0.0622 -1.13371,0.10278 -1.81052,0.36553 -3.08512,1.19771 -4.08136,5.10393 -1.91953,7.5285 0.94761,1.06273 0.52894,2.01994 -1.86396,4.24734 l -3.08878,2.87504 6.50888,7.23565 6.51103,7.23566 2.51164,-2.84082 c 2.25674,-2.55375 2.79117,-2.69646 5.26483,-1.3937 3.44949,1.81671 6.55721,1.08212 7.66103,-1.81051 0.68815,-1.80336 -0.99903,-4.29625 -8.94143,-13.20375 -6.9689,-7.81571 -9.07424,-10.05228 -10.83319,-10.23894 z" /><path
       id="path3"
       style="fill:#578cff;stroke-width:0.530136;fill-opacity:1"
       d="m 343.04421,29.398726 c -3.58344,-0.01231 -7.75098,0.504266 -10.33299,1.363767 -1.76066,0.586084 2.10769,-6.474498 -47.78315,87.216967 l -21.33077,40.05585 6.43407,18.62247 6.43408,18.62247 -5.73082,37.39885 c -1.84562,12.04382 -3.98141,25.99557 -6.18184,40.36152 h -7.15657 l -22.38887,37.37321 H 357.9858 l -8.98633,-37.37321 h -36.36855 c 1.94983,-18.70224 4.24316,-40.74524 5.30971,-51.05576 l 2.18032,-21.07854 10.91442,-16.20275 10.9144,-16.20489 -1.43858,-8.21893 c -3.73623,-21.35765 -4.06072,-39.41235 -0.95976,-53.29807 2.44438,-10.94577 5.85533,-18.68411 13.93906,-31.612462 6.56143,-10.493774 8.05571,-13.938725 8.9393,-20.608272 0.55858,-4.216081 0.51384,-6.776734 -0.18383,-10.226116 -0.86224,-4.263027 -1.13506,-4.866103 -3.70012,-8.19329 -3.43071,-4.449969 -6.15699,-5.958005 -12.19268,-6.746158 -0.98415,-0.128513 -2.11447,-0.192554 -3.30895,-0.196656 z m -47.59718,9.274898 c -2.74764,-0.05787 -5.60886,0.796883 -8.22749,2.830137 -3.02205,2.346512 -4.55207,4.957232 -5.01901,8.567364 -1.22716,9.487616 7.87499,17.121698 17.03212,14.285354 3.2823,-1.016663 6.89658,-4.474126 8.14627,-7.791428 3.51869,-9.339869 -3.68897,-17.717828 -11.93189,-17.891427 z m -18.54552,33.617499 c -2.85378,0.172244 -5.18721,1.286857 -7.67814,3.559047 -5.55977,5.07156 -5.30588,14.49439 0.52156,19.36207 3.804,3.17751 9.06706,4.02515 13.58851,2.18673 6.15982,-2.5046 9.55718,-9.78732 7.50927,-16.09373 -1.61519,-4.973816 -5.54316,-8.176464 -10.88876,-8.87945 -1.09256,-0.143683 -2.10118,-0.192082 -3.05244,-0.134667 z M 261.34858,105.5773 c -10.23046,-0.23458 -17.56186,11.96673 -10.47194,21.09777 3.75184,4.83198 9.39493,6.35194 15.52515,4.18108 2.14924,-0.76109 5.50002,-4.13555 6.74615,-6.79105 3.10906,-6.62547 -0.33445,-14.95084 -7.27199,-17.58147 -1.5463,-0.58634 -3.06587,-0.87282 -4.52737,-0.90633 z m -13.06267,292.0428 a 10.972361,10.972361 0 0 0 -10.97212,10.97213 v 16.01892 16.02105 a 10.972361,10.972361 0 0 1 -10.97213,10.97213 H 194.30169 A 10.972361,10.972361 0 0 1 183.32956,440.6322 v -16.02105 -16.01892 a 10.972361,10.972361 0 0 0 -2.9584,-6.97488 l -49.84803,83.20903 h 123.69239 132.76849 a 26.616578,26.616578 0 0 0 12.19482,-3.09734 l -9.75158,-40.54962 c -8.26613,6.67558 -14.73316,10.42491 -18.30183,10.42491 -8.59374,0 -9.23215,-1.86649 -9.23215,-26.99318 V 408.59223 A 10.972361,10.972361 0 0 0 350.92114,397.6201 h -7.71448 -7.71447 a 10.972361,10.972361 0 0 0 -10.97213,10.97213 v 16.01892 16.02105 a 10.972361,10.972361 0 0 1 -10.97212,10.97213 H 285.65912 A 10.972361,10.972361 0 0 1 274.68699,440.6322 V 424.61115 408.59223 A 10.972361,10.972361 0 0 0 263.71487,397.6201 h -7.71448 z" /><path
       id="path5"
       style="fill:#86a9ff;stroke-width:0.24107;fill-opacity:1"
       d="m 459.77027,149.79927 c -6.1798,-0.0176 -8.9695,0.404 -13.88991,2.10549 -3.13053,1.08256 -8.09429,3.6936 -8.33864,4.38629 -0.24589,0.69716 1.88988,8.49941 3.50775,12.81471 6.5437,17.45398 19.53311,32.72243 35.57978,41.82147 7.10868,4.03089 16.48681,7.53887 24.44948,9.14451 1.95612,0.39444 3.83938,0.6811 4.18322,0.63699 0.82432,-0.1058 2.92596,-4.3232 4.10839,-8.24459 1.48738,-4.93288 1.82008,-8.24529 1.45569,-14.47987 -0.46481,-7.95246 -1.82955,-12.7147 -5.76074,-20.09953 -2.88795,-5.42503 -5.86288,-9.30522 -10.49972,-13.69539 -4.63467,-4.38809 -8.67348,-7.14733 -14.25116,-9.73874 -7.66451,-3.56099 -12.37639,-4.62803 -20.54414,-4.65134 z m -32.10196,16.42292 -0.59638,0.79517 c -1.16776,1.55776 -3.60197,7.40819 -4.29865,10.32872 -3.13786,13.15405 0.21357,27.65154 9.17443,39.67535 2.8347,3.8037 9.25634,9.88311 13.28283,12.57531 3.81501,2.55076 10.5241,5.69565 14.66799,6.87441 2.80214,0.79709 6.71346,1.53556 9.68531,1.82975 0.62065,0.0614 3.2234,0.006 5.78424,-0.12184 6.62989,-0.33076 10.93634,-1.46813 16.44216,-4.34354 1.56926,-0.81953 3.1901,-1.76558 3.60181,-2.10336 l 0.74814,-0.61348 -4.33712,-1.2462 c -25.01725,-7.18484 -44.967,-23.2267 -56.67969,-45.57504 -2.85869,-5.45451 -4.83446,-10.0552 -6.53882,-15.2323 z m -13.18237,45.11759 c -0.0452,0.015 -0.087,0.0473 -0.12826,0.094 -0.21973,0.24845 -8.89962,11.39283 -19.28939,24.76371 -19.66587,25.30843 -25.31842,33.44509 -27.47414,36.84094 h -18.60323 l 8.98632,37.3732 h 63.5306 a 10.972361,10.972361 0 0 1 10.97212,10.97427 v 67.57701 a 26.323294,26.323294 0 0 1 -7.79356,18.69515 l -18.27406,18.1116 c -6.18156,6.12658 -11.92253,11.31217 -16.99364,15.40757 l 9.74943,40.54963 a 26.616578,26.616578 0 0 0 6.56447,-4.63425 l 56.33555,-55.9572 a 26.363699,26.363699 0 0 0 7.78502,-18.70583 V 284.01062 a 10.972361,10.972361 0 0 0 -10.97213,-10.97214 h -36.54596 c 4.48055,-4.22097 8.63024,-8.11536 12.35727,-11.35475 9.32836,-8.10786 17.07787,-14.8519 17.22022,-14.98646 0.14251,-0.1349 -1.69421,-1.13528 -4.0806,-2.22307 -7.31826,-3.33596 -12.94088,-7.20898 -18.79134,-12.94511 -5.32608,-5.22193 -9.05106,-10.29268 -12.44278,-16.9402 -1.33159,-2.60977 -1.79564,-3.35425 -2.11191,-3.24911 z" /></g></svg>
