<?xml version="1.0" encoding="UTF-8" standalone="no"?>
<!-- Created with Inkscape (http://www.inkscape.org/) -->

<svg
   width="512"
   height="512"
   viewBox="0 0 512 512"
   version="1.1"
   id="svg1"
   xml:space="preserve"
   inkscape:version="1.3 (0e150ed6c4, 2023-07-21)"
   sodipodi:docname="icon_ios.svg"
   inkscape:export-filename="icon_ios.png"
   inkscape:export-xdpi="384"
   inkscape:export-ydpi="384"
   xmlns:inkscape="http://www.inkscape.org/namespaces/inkscape"
   xmlns:sodipodi="http://sodipodi.sourceforge.net/DTD/sodipodi-0.dtd"
   xmlns="http://www.w3.org/2000/svg"
   xmlns:svg="http://www.w3.org/2000/svg"><sodipodi:namedview
     id="namedview1"
     pagecolor="#ffffff"
     bordercolor="#000000"
     borderopacity="0.25"
     inkscape:showpageshadow="2"
     inkscape:pageopacity="0.0"
     inkscape:pagecheckerboard="0"
     inkscape:deskcolor="#d1d1d1"
     inkscape:document-units="px"
     inkscape:zoom="0.96254191"
     inkscape:cx="-39.4788"
     inkscape:cy="363.10107"
     inkscape:window-width="1920"
     inkscape:window-height="1011"
     inkscape:window-x="0"
     inkscape:window-y="0"
     inkscape:window-maximized="1"
     inkscape:current-layer="layer1"
     inkscape:export-bgcolor="#ffffffff" /><defs
     id="defs1"><inkscape:path-effect
       effect="fillet_chamfer"
       id="path-effect2"
       is_visible="true"
       lpeversion="1"
       nodesatellites_param="F,0,1,1,0,2.6422433,0,1 @ F,0,1,1,0,2.6422433,0,1 @ F,0,1,1,0,2.6422433,0,1 @ F,0,1,1,0,2.6422433,0,1 @ F,0,1,1,0,2.6422433,0,1 @ F,0,0,1,0,0,0,1 @ F,0,1,1,0,2.6422433,0,1 | F,0,0,1,0,0,0,1 @ F,0,1,1,0,2.6422433,0,1 @ F,0,0,1,0,0,0,1 @ F,0,1,1,0,2.6422433,0,1 @ F,0,0,1,0,0,0,1 @ F,0,1,1,0,2.6422433,0,1 @ F,0,1,1,0,2.6422433,0,1 @ F,0,0,1,0,0,0,1 @ F,0,1,1,0,2.6422433,0,1 @ F,0,0,1,0,0,0,1 @ F,0,1,1,0,2.6422433,0,1 @ F,0,0,1,0,0,0,1 @ F,0,1,1,0,2.6422433,0,1 @ F,0,1,1,0,2.6422433,0,1 @ F,0,0,1,0,0,0,1 @ F,0,1,1,0,2.6422433,0,1 @ F,0,0,1,0,0,0,1 @ F,0,1,1,0,2.6422433,0,1 @ F,0,0,1,0,0,0,1 @ F,0,0,1,0,0,0,1 @ F,0,0,1,0,0,0,1 @ F,0,1,1,0,2.6422433,0,1 @ F,0,1,1,0,2.6422433,0,1 @ F,0,0,1,0,2.6422433,0,1 @ F,0,1,1,0,2.6422433,0,1 @ F,0,0,1,0,0,0,1 @ F,0,0,1,0,0,0,1"
       radius="0"
       unit="px"
       method="auto"
       mode="F"
       chamfer_steps="1"
       flexible="false"
       use_knot_distance="true"
       apply_no_radius="true"
       apply_with_radius="true"
       only_selected="false"
       hide_knots="false" /><inkscape:path-effect
       effect="fillet_chamfer"
       id="path-effect2-4"
       is_visible="true"
       lpeversion="1"
       nodesatellites_param="F,0,1,1,0,2.6422433,0,1 @ F,0,1,1,0,2.6422433,0,1 @ F,0,1,1,0,2.6422433,0,1 @ F,0,1,1,0,2.6422433,0,1 @ F,0,1,1,0,2.6422433,0,1 @ F,0,0,1,0,0,0,1 @ F,0,1,1,0,2.6422433,0,1 | F,0,0,1,0,0,0,1 @ F,0,1,1,0,2.6422433,0,1 @ F,0,0,1,0,0,0,1 @ F,0,1,1,0,2.6422433,0,1 @ F,0,0,1,0,0,0,1 @ F,0,1,1,0,2.6422433,0,1 @ F,0,1,1,0,2.6422433,0,1 @ F,0,0,1,0,0,0,1 @ F,0,1,1,0,2.6422433,0,1 @ F,0,0,1,0,0,0,1 @ F,0,1,1,0,2.6422433,0,1 @ F,0,0,1,0,0,0,1 @ F,0,1,1,0,2.6422433,0,1 @ F,0,1,1,0,2.6422433,0,1 @ F,0,0,1,0,0,0,1 @ F,0,1,1,0,2.6422433,0,1 @ F,0,0,1,0,0,0,1 @ F,0,1,1,0,2.6422433,0,1 @ F,0,0,1,0,0,0,1 @ F,0,0,1,0,0,0,1 @ F,0,0,1,0,0,0,1 @ F,0,1,1,0,2.6422433,0,1 @ F,0,1,1,0,2.6422433,0,1 @ F,0,0,1,0,2.6422433,0,1 @ F,0,1,1,0,2.6422433,0,1 @ F,0,0,1,0,0,0,1 @ F,0,0,1,0,0,0,1"
       radius="0"
       unit="px"
       method="auto"
       mode="F"
       chamfer_steps="1"
       flexible="false"
       use_knot_distance="true"
       apply_no_radius="true"
       apply_with_radius="true"
       only_selected="false"
       hide_knots="false" /></defs><g
     inkscape:label="Layer 1"
     inkscape:groupmode="layer"
     id="layer1"><path
       id="path4"
       style="fill:#0057cc;fill-opacity:1;stroke-width:2.45009"
       d="m 143.61419,91.252797 c -0.41398,-0.0489 -0.8633,0.0488 -1.37121,0.29086 -2.05963,0.98153 -69.745065,61.675183 -69.797315,62.587373 -0.136041,2.37504 1.955446,2.74665 21.871488,3.88738 23.088527,1.32243 28.108627,2.32761 37.163987,7.43772 4.73595,2.67256 7.52626,5.2129 16.42054,14.95239 l 10.71415,11.73292 5.99418,-0.0524 c 5.3545,-0.0474 13.90549,1.36608 17.59015,2.90705 0.74242,0.3105 -5.63874,-7.39851 -14.18139,-17.12999 -16.53641,-18.83775 -17.53667,-20.1726 -20.74806,-27.69794 -3.65476,-8.56419 -3.95361,-12.681 -2.62544,-36.09289 0.99198,-17.489883 1.01566,-21.410173 0.13389,-22.231603 -0.3713,-0.34586 -0.751,-0.54207 -1.16497,-0.59095 z m 20.03706,105.867123 c -3.36948,0.0437 -6.62118,0.38966 -9.30754,1.05879 -19.65402,4.89563 -33.83516,21.72713 -34.96791,41.50383 -0.61714,10.77458 1.8513,19.94662 7.65317,28.60129 h -17.02689 a 7.8995754,7.8995754 0 0 0 -7.90094,7.89941 v 87.22126 a 19.141703,19.141703 0 0 0 5.57252,13.49962 l 38.05503,38.25511 a 19.001263,19.001263 0 0 0 13.47194,5.60022 h 6.53589 l 35.88667,-59.90652 a 7.8995754,7.8995754 0 0 0 -5.77105,-2.87783 h -4.0582 -4.05973 a 7.8995754,7.8995754 0 0 0 -7.89941,7.89941 v 11.53285 c 0,19.25555 -0.0766,19.4338 -8.30877,19.4338 -6.22646,0 -12.96767,-4.70164 -26.90691,-18.76589 l -13.03794,-13.15491 a 19.192309,19.192309 0 0 1 -5.56175,-13.5104 v -48.3198 a 7.8995754,7.8995754 0 0 1 7.8994,-7.89941 h 107.04134 l 4.75226,-7.93326 c 8.38612,10.4041 20.61465,1.63581 9.67842,-11.76523 -0.56718,-0.69503 -0.96763,-1.16197 -1.52509,-1.84367 l 3.21332,-5.36476 h -7.65318 c -51.184,-62.19586 -59.07252,-65.01086 -70.01739,-68.95552 -4.19784,-1.51295 -10.14147,-2.28106 -15.75726,-2.20839 z m -1.3081,17.09461 c 1.11795,0.0104 2.42378,0.0692 4.03049,0.16313 12.01282,0.70135 22.10049,1.2579 64.38639,53.90617 h -34.05532 l 12.80249,-11.42513 -4.44755,-4.93386 -4.44755,-4.93539 -17.77327,15.83575 -6.12655,5.45863 h -27.44863 c -9.61017,-10.48544 -12.16607,-16.21755 -12.85942,-22.96106 -1.33361,-12.97014 5.77968,-24.66427 17.97333,-29.55083 2.95704,-1.18502 4.61172,-1.58869 7.96559,-1.55741 z m 64.29251,3.99972 c -2.77756,-0.15909 -4.4816,3.81674 -2.55926,5.97265 0.68221,0.76511 0.37999,1.45509 -1.3435,3.05942 l -2.22532,2.06988 4.2598,4.72611 c 2.34223,2.59925 4.4329,4.73688 4.64762,4.74918 0.21474,0.0123 1.19245,-0.69218 2.17145,-1.56511 1.58746,-1.41548 2.02928,-1.46656 4.08128,-0.47553 2.53285,1.22323 3.54311,0.94921 4.94156,-1.33889 0.81761,-1.33771 0.0979,-2.47599 -5.88955,-9.32446 -3.75109,-4.2905 -7.38846,-7.8334 -8.08408,-7.87325 z m 19.87394,23.16266 c -1.03757,-0.19313 -1.79254,0.32657 -2.47616,1.44508 -0.73888,1.20887 -0.7139,1.99278 0.10926,3.42107 0.99109,1.71968 0.90845,1.99508 -1.13266,3.81505 l -2.19914,1.96061 4.42753,4.96464 4.42755,4.96618 2.25148,-2.00679 c 1.76483,-1.57361 2.44502,-1.79083 3.14714,-1.0034 0.49257,0.55241 1.87453,1.06101 3.07173,1.12959 1.69077,0.0968 2.31726,-0.32293 2.80396,-1.87905 0.54974,-1.75772 -0.1756,-2.90651 -5.91108,-9.3691 -4.2763,-4.81842 -6.79033,-7.12199 -8.51961,-7.44388 z m 20.83732,22.64404 c -0.42212,-0.0448 -0.81622,0.074 -1.30349,0.26317 -2.22114,0.86229 -2.93839,3.67458 -1.38197,5.42015 0.68224,0.76512 0.38081,1.45427 -1.34196,3.05789 l -2.22377,2.06989 4.68608,5.20933 4.68763,5.20932 1.80826,-2.04525 c 1.62474,-1.83858 2.00951,-1.94133 3.79043,-1.0034 2.48346,1.30795 4.72087,0.77908 5.51557,-1.30348 0.49544,-1.29833 -0.71925,-3.09309 -6.4374,-9.50607 -5.01728,-5.62694 -6.53302,-7.23716 -7.79938,-7.37155 z" /><path
       id="path3"
       style="fill:#578cff;fill-opacity:1;stroke-width:0.381673"
       d="m 318.66767,92.857917 c -2.57991,-0.009 -5.58033,0.36305 -7.43926,0.98185 -1.26759,0.42195 1.51743,-4.66133 -34.40158,62.792053 l -15.35714,28.83829 4.63222,13.4073 4.63224,13.40728 -4.12592,26.92538 c -1.32876,8.67098 -2.86643,18.71557 -4.45063,29.05837 h -5.15239 l -16.11891,26.90692 h 88.5386 l -6.46973,-26.90692 h -26.18362 c 1.40379,-13.46472 3.05488,-29.33462 3.82274,-36.7577 l 1.56972,-15.17554 7.85786,-11.66521 7.85786,-11.66675 -1.03572,-5.91724 c -2.6899,-15.37648 -2.92352,-28.375 -0.69098,-38.37206 1.75984,-7.88043 4.21556,-13.45166 10.03546,-22.75946 4.72391,-7.55501 5.79972,-10.03522 6.43587,-14.83697 0.40215,-3.03538 0.36994,-4.87893 -0.13235,-7.36232 -0.62077,-3.06917 -0.81719,-3.50336 -2.66391,-5.898773 -2.46995,-3.20377 -4.43274,-4.28948 -8.77815,-4.85692 -0.70853,-0.0925 -1.52231,-0.13863 -2.38228,-0.14158 z m -34.2677,6.67749 c -1.97816,-0.0417 -4.03811,0.573713 -5.9234,2.037553 -2.17573,1.68939 -3.27726,3.56898 -3.61344,6.1681 -0.8835,6.83063 5.66961,12.32681 12.26231,10.28477 2.3631,-0.73195 4.96521,-3.22116 5.86493,-5.60945 2.53328,-6.72426 -2.65589,-12.755993 -8.5904,-12.880973 z M 271.04808,123.7384 c -2.05458,0.124 -3.73454,0.92647 -5.52788,2.56235 -4.00278,3.65128 -3.81998,10.43526 0.37549,13.93976 2.7387,2.28765 6.52785,2.89791 9.78308,1.57434 4.43477,-1.80319 6.88072,-7.0464 5.40631,-11.58672 -1.16286,-3.58091 -3.99081,-5.88666 -7.83938,-6.39278 -0.78659,-0.10344 -1.51275,-0.13829 -2.19762,-0.0969 z m -11.19736,23.96446 c -7.36544,-0.16889 -12.6437,8.61547 -7.53929,15.18938 2.70114,3.4788 6.76389,4.57309 11.17736,3.01018 1.54735,-0.54795 3.95976,-2.9774 4.8569,-4.88923 2.23838,-4.77002 -0.24078,-10.76389 -5.23548,-12.65782 -1.11326,-0.42213 -2.20728,-0.62839 -3.25949,-0.65251 z m -9.40449,210.25685 a 7.8995754,7.8995754 0 0 0 -7.89941,7.89941 v 11.53286 11.53438 a 7.8995754,7.8995754 0 0 1 -7.89941,7.89942 h -23.06724 a 7.8995754,7.8995754 0 0 1 -7.89942,-7.89942 v -11.53438 -11.53286 a 7.8995754,7.8995754 0 0 0 -2.1299,-5.02158 l -35.8882,59.90653 h 89.05261 95.58697 a 19.162663,19.162663 0 0 0 8.77968,-2.22994 l -7.02067,-29.19379 c -5.95122,4.80609 -10.60717,7.50544 -13.17645,7.50544 -6.18707,0 -6.6467,-1.34378 -6.6467,-19.4338 v -11.53286 a 7.8995754,7.8995754 0 0 0 -7.89941,-7.89941 h -5.55406 -5.55405 a 7.8995754,7.8995754 0 0 0 -7.8994,7.89941 v 11.53286 11.53438 a 7.8995754,7.8995754 0 0 1 -7.89941,7.89942 h -20.07862 a 7.8995754,7.8995754 0 0 1 -7.8994,-7.89942 v -11.53438 -11.53286 a 7.8995754,7.8995754 0 0 0 -7.8994,-7.89941 h -5.55406 z" /><path
       id="path5"
       style="fill:#86a9ff;fill-opacity:1;stroke-width:0.173559"
       d="m 402.70485,179.54056 c -4.44916,-0.0127 -6.45761,0.29086 -10.00007,1.51585 -2.25383,0.77939 -5.8275,2.65922 -6.00342,3.15792 -0.17703,0.50192 1.36063,6.11917 2.52541,9.22598 4.71115,12.56603 14.0629,23.55858 25.61574,30.10946 5.11791,2.90204 11.86972,5.42763 17.60246,6.58361 1.40831,0.28398 2.76417,0.49036 3.01172,0.4586 0.59347,-0.0762 2.10655,-3.11249 2.95784,-5.93571 1.07084,-3.55144 1.31038,-5.93622 1.04803,-10.42482 -0.33464,-5.72538 -1.31719,-9.15397 -4.14746,-14.47069 -2.07918,-3.90576 -4.22099,-6.69932 -7.55929,-9.86003 -3.33675,-3.15922 -6.24449,-5.14574 -10.26016,-7.01143 -5.51808,-2.56374 -8.91041,-3.33196 -14.7908,-3.34874 z m -23.11187,11.82371 -0.42937,0.57249 c -0.84073,1.12151 -2.59324,5.33355 -3.09482,7.43619 -2.25911,9.47029 0.15376,19.90779 6.60515,28.56435 2.04085,2.73848 6.66412,7.11537 9.563,9.05363 2.74662,1.83642 7.57685,4.10059 10.56026,4.94924 2.0174,0.57386 4.83336,1.10553 6.97295,1.31734 0.44684,0.0442 2.3207,0.004 4.16438,-0.0877 4.7732,-0.23813 7.87365,-1.05698 11.83757,-3.12713 1.12979,-0.59003 2.29672,-1.27114 2.59313,-1.51432 l 0.53862,-0.44168 -3.12251,-0.89721 c -18.01123,-5.17274 -32.3741,-16.72211 -40.80667,-32.81184 -2.05812,-3.927 -3.48058,-7.23927 -4.70764,-10.96654 z m -9.49068,32.48251 c -0.0325,0.0108 -0.0626,0.0341 -0.0923,0.0677 -0.1582,0.17887 -6.4073,8.20229 -13.88744,17.82869 -14.15848,18.22085 -18.22806,24.07886 -19.78006,26.52371 h -13.39344 l 6.46972,26.90692 h 45.73899 a 7.8995754,7.8995754 0 0 1 7.89941,7.90095 v 48.65221 a 18.951513,18.951513 0 0 1 -5.611,13.45961 l -13.15644,13.0395 c -4.45043,4.41084 -8.58366,8.14422 -12.23462,11.09271 l 7.01913,29.19379 a 19.162663,19.162663 0 0 0 4.72611,-3.33644 l 40.5589,-40.2865 a 18.980603,18.980603 0 0 0 5.60484,-13.4673 v -85.256 a 7.8995754,7.8995754 0 0 0 -7.89941,-7.89941 h -26.31134 c 3.22578,-3.0389 6.21336,-5.84267 8.89664,-8.17488 6.71597,-5.83728 12.29525,-10.69266 12.39774,-10.78954 0.10259,-0.0971 -1.21976,-0.81734 -2.93784,-1.6005 -5.2688,-2.40173 -9.31681,-5.19012 -13.52887,-9.31986 -3.83452,-3.75954 -6.51633,-7.41023 -8.9582,-12.19614 -0.95869,-1.87891 -1.29278,-2.4149 -1.52048,-2.3392 z" /></g></svg>
