<?xml version="1.0" encoding="UTF-8" standalone="no"?>
<!-- Created with Inkscape (http://www.inkscape.org/) -->

<svg
   version="1.1"
   id="svg1"
   width="1024"
   height="1024"
   viewBox="0 0 1024 1024"
   sodipodi:docname="ios.svg"
   inkscape:version="1.3.2 (091e20ef0f, 2023-11-25)"
   inkscape:export-filename="ios.png"
   inkscape:export-xdpi="96"
   inkscape:export-ydpi="96"
   xmlns:inkscape="http://www.inkscape.org/namespaces/inkscape"
   xmlns:sodipodi="http://sodipodi.sourceforge.net/DTD/sodipodi-0.dtd"
   xmlns="http://www.w3.org/2000/svg"
   xmlns:svg="http://www.w3.org/2000/svg">
  <defs
     id="defs1" />
  <sodipodi:namedview
     id="namedview1"
     pagecolor="#ffffff"
     bordercolor="#000000"
     borderopacity="0.25"
     inkscape:showpageshadow="2"
     inkscape:pageopacity="0.0"
     inkscape:pagecheckerboard="0"
     inkscape:deskcolor="#d1d1d1"
     inkscape:zoom="2.4417778"
     inkscape:cx="278.48562"
     inkscape:cy="526.46069"
     inkscape:window-width="1920"
     inkscape:window-height="1011"
     inkscape:window-x="0"
     inkscape:window-y="0"
     inkscape:window-maximized="1"
     inkscape:current-layer="g1"
     inkscape:export-bgcolor="#ffffffff" />
  <g
     inkscape:groupmode="layer"
     inkscape:label="Image"
     id="g1">
    <path
       style="fill:#0f58cf;fill-opacity:1;stroke-width:0.785434"
       d="m 473.80622,789.44055 c -9.88478,-1.66161 -23.05692,-7.25396 -29.87769,-12.68471 -22.68129,-18.05911 -26.11719,-48.16554 -7.68725,-67.35839 7.84479,-8.16954 16.58594,-11.73819 28.53244,-11.64862 8.58415,0.0644 13.98172,1.82773 21.03664,6.87257 11.09545,7.93418 16.86509,19.68933 16.10535,32.8133 -0.68698,11.86686 -8.42176,23.10687 -19.55088,28.41088 -2.93064,1.39671 -5.34834,2.80456 -5.37265,3.12856 -0.084,1.12043 15.11365,0.60343 20.32695,-0.6915 18.13994,-4.50579 32.47154,-19.21675 36.6289,-37.5985 1.65915,-7.3359 1.82349,-19.63744 0.38826,-29.06113 -0.95521,-6.27186 -6.28012,-33.58796 -6.61229,-33.92013 -0.0964,-0.0964 -2.81266,0.50445 -6.03612,1.33525 -14.1788,3.6544 -36.05681,4.00957 -51.02339,0.82833 -16.55782,-3.51946 -34.36511,-11.31807 -48.29605,-21.151 -7.69664,-5.43254 -23.95776,-21.46296 -28.79357,-28.38506 -14.21418,-20.34657 -21.39148,-39.15048 -23.49895,-61.56524 -1.94422,-20.67868 2.33511,-43.64284 11.54784,-61.9691 11.22824,-22.3356 28.15801,-40.38769 68.22667,-72.74956 23.88634,-19.29203 34.66539,-28.85589 45.5278,-40.39511 22.30341,-23.6931 33.18977,-41.52202 38.92593,-63.75019 1.73899,-6.73877 2.92679,-23.31438 2.01788,-28.15931 -0.50794,-2.70755 -0.7041,-2.8654 -3.56098,-2.8654 -3.83495,0 -12.40943,2.63084 -18.50488,5.6777 -18.32657,9.16069 -33.17791,25.18737 -37.81742,40.81027 -1.50682,5.074 -1.20419,7.76863 3.33537,29.6993 1.92254,9.28779 3.68404,17.82388 3.91448,18.9691 0.37483,1.86292 -0.51648,2.88515 -8.46253,9.70553 -11.71404,10.05461 -12.36824,10.59717 -12.77772,10.59717 -1.08211,0 -8.64686,-37.74044 -9.93384,-49.55974 -1.297,-11.91138 -0.52199,-32.21936 1.60067,-41.94354 5.07877,-23.26646 14.6641,-42.98445 29.64625,-60.98535 6.21001,-7.46126 16.73208,-16.93406 19.61291,-17.6571 1.26898,-0.31849 3.56374,0.62754 7.90577,3.25922 20.93206,12.68682 36.57162,32.45951 44.50438,56.26574 4.32646,12.98373 5.51714,21.03189 5.55905,37.57522 0.0443,17.53244 -0.89282,23.51143 -6.03278,38.48637 -7.62698,22.22068 -19.2901,40.48636 -40.48418,63.4025 l -8.15232,8.81471 0.91641,4.5377 c 1.39515,6.90817 9.38405,43.37242 10.30685,47.04414 l 0.81294,3.23464 9.55438,0.44359 c 10.36263,0.4811 17.06487,1.97869 26.32022,5.88114 10.20154,4.3014 16.54046,8.67306 25.255,17.41723 11.77743,11.81745 17.77489,22.71999 21.32454,38.765 2.24185,10.13354 1.73773,26.63821 -1.14903,37.619 -4.42506,16.83212 -12.64119,31.01455 -25.18124,43.46708 -6.09133,6.04882 -17.54122,14.93694 -22.33438,17.33734 -0.13341,0.0669 0.98953,6.43326 2.49543,14.14767 4.16727,21.34807 4.72286,25.71351 4.73404,37.19653 0.025,25.77856 -8.24599,47.0621 -23.93294,61.58546 -10.84814,10.04343 -22.49974,15.83078 -37.19693,18.47577 -4.44483,0.79985 -20.64266,0.99241 -24.79334,0.29467 z m 42.02084,-142.80633 c 3.45591,-0.72914 6.5296,-1.55572 6.83041,-1.83685 0.47736,-0.44615 -2.81623,-16.83277 -16.75766,-83.37466 -1.76491,-8.4238 -3.35241,-15.55781 -3.5278,-15.85338 -0.3853,-0.64926 -9.69689,2.44311 -14.05029,4.66609 -9.585,4.89442 -18.32216,14.19309 -21.70752,23.10266 -4.53631,11.9386 -1.35518,27.1429 7.70573,36.82973 4.66603,4.98838 7.15059,6.7746 12.75423,9.1695 l 4.40437,1.88233 -6.28347,-0.41175 c -21.13073,-1.38465 -39.63569,-17.40007 -44.78575,-38.76052 -1.87265,-7.76702 -1.26381,-23.29981 1.22405,-31.22804 6.28953,-20.04326 22.95849,-36.98516 44.14225,-44.86504 4.80463,-1.78721 6.0804,-2.59187 6.08713,-3.83924 0.006,-1.23258 -5.23394,-26.72413 -7.47251,-36.34812 -0.54462,-2.34139 -0.31801,-2.50747 -16.6763,12.22148 -34.13952,30.7391 -48.87904,50.03083 -55.64523,72.83092 -2.90649,9.79404 -3.06892,24.09926 -0.39242,34.55918 3.53911,13.83111 9.82606,24.91367 20.34935,35.87167 12.79041,13.31877 30.54599,23.04764 46.88594,25.69037 3.02392,0.48905 6.38166,1.03903 7.46163,1.22214 4.26508,0.72316 23.51693,-0.27589 29.45386,-1.52847 z m 37.88829,-17.3967 c 4.90281,-4.18862 11.64438,-12.88685 14.6596,-18.91441 5.52365,-11.04205 6.13362,-27.07755 1.45672,-38.29701 -3.7272,-8.94122 -12.0037,-17.78081 -21.14655,-22.58525 -5.38972,-2.83221 -16.63463,-6.4212 -18.61196,-5.94029 -1.10388,0.26848 -0.10967,5.35025 11.72705,59.94299 6.59707,30.42665 6.36248,29.45383 7.10217,29.45383 0.29098,0 2.45681,-1.64694 4.81297,-3.65986 z m -260.99363,58.32369 c -10.6402,-3.33263 -19.06042,-10.8228 -24.65034,-21.92765 -3.12628,-6.21063 -6.09786,-17.55719 -4.90944,-18.74602 0.29712,-0.29721 4.60484,-2.28006 9.57272,-4.4063 4.96788,-2.12626 15.74798,-6.89407 23.95578,-10.59514 12.70043,-5.72692 44.88928,-19.88554 66.55172,-29.27352 l 6.07315,-2.63195 4.3901,8.58259 c 5.95335,11.63869 12.54346,20.7118 22.15594,30.50375 4.4332,4.51594 7.96765,8.26468 7.85437,8.33051 -1.03748,0.60293 -16.41311,7.4921 -16.72125,7.4921 -0.41489,0 -17.51333,7.47663 -52.99581,23.17344 -11.01574,4.87317 -21.4424,9.24984 -23.17037,9.72592 -4.15828,1.1457 -14.12162,1.02039 -18.10657,-0.22773 z m 37.47619,-33.3054 c 2.61559,-2.80407 3.01531,-3.72473 3.01531,-6.94521 0,-6.5663 -4.80862,-11.27505 -11.50752,-11.26854 -8.42943,0.008 -13.47743,9.49984 -8.94912,16.82682 2.46922,3.99528 5.06713,5.24741 10.17604,4.90465 3.80333,-0.25517 4.56683,-0.62483 7.26529,-3.51772 z M 265.24763,627.7839 c 2.56933,-6.82606 5.92194,-11.52657 10.90427,-15.28828 2.70997,-2.04604 13.91037,-7.3881 32.74985,-15.62011 38.48777,-16.81744 52.17099,-22.72875 52.31444,-22.60044 0.0659,0.0591 1.00101,3.33208 2.07779,7.27342 l 1.9578,7.16608 -8.36128,3.58495 c -13.67129,5.86166 -44.63203,19.37139 -66.73969,29.1219 -11.3726,5.01586 -21.53753,9.33559 -22.5887,9.59941 -1.05116,0.26383 -2.10545,0.794 -2.34286,1.17811 -0.23741,0.38414 -0.76121,0.69844 -1.16398,0.69844 -0.40279,0 0.13378,-2.30106 1.19236,-5.11348 z m 404.52484,-63.58837 c -3.02392,-0.55691 -10.4463,-2.49181 -16.49416,-4.29976 -17.02885,-5.09062 -24.08157,-5.08927 -35.45219,0.007 l -4.82022,2.16029 -0.48715,-3.04647 c -0.81803,-5.11573 -4.40693,-15.70412 -7.6008,-22.42488 -2.55593,-5.37834 -6.70536,-11.52512 -14.32817,-21.2251 l -1.42455,-1.81272 8.10075,-3.7195 c 9.02904,-4.14573 21.08908,-10.28168 22.13248,-11.26066 0.37364,-0.35056 -0.47533,-1.23447 -1.88658,-1.96427 -1.90211,-0.98361 -3.90657,-1.24065 -7.74825,-0.99354 -4.31615,0.27763 -7.14982,1.22279 -16.9536,5.6549 -7.3173,3.30799 -12.12365,5.07029 -12.70254,4.65752 -0.51219,-0.36523 -3.59882,-2.43126 -6.85917,-4.59122 -3.26036,-2.15994 -5.93607,-4.1039 -5.94604,-4.31988 -0.01,-0.216 3.23643,-1.98323 7.2142,-3.92719 13.3541,-6.52619 18.42576,-13.74912 22.68601,-32.30876 2.80826,-12.23414 4.01087,-15.96385 7.18362,-22.27903 8.54448,-17.00731 24.89277,-31.96067 43.01411,-39.34387 17.97628,-7.32412 41.03131,-8.60608 60.94938,-3.38905 6.97554,1.82707 16.01064,5.33195 16.01064,6.21082 0,0.34047 -3.62281,2.65337 -8.05069,5.13976 -4.4279,2.48639 -13.88259,7.94562 -21.01042,12.1316 -7.12783,4.186 -17.96082,10.54889 -24.07332,14.13977 l -11.11363,6.52885 -1.65218,5.57455 c -0.90871,3.066 -1.65108,6.26065 -1.64971,7.09922 0.002,1.37486 19.45659,37.73167 29.31145,54.77803 l 3.94294,6.82027 5.28172,1.29435 c 6.3898,1.5659 2.79604,3.18611 34.47796,-15.54398 21.03627,-12.43681 37.43401,-21.77613 38.23342,-21.77613 0.37642,0 -0.44981,8.86284 -1.42792,15.316 -0.91706,6.05065 -4.89044,18.43121 -7.68828,23.95579 -9.49021,18.73928 -26.34475,34.55284 -44.62597,41.86976 -13.91846,5.57078 -30.78465,7.4214 -44.54314,4.88746 z"
       id="path1"
       sodipodi:nodetypes="sssssssssssssssssssssssssssssssssssssscsscsssssssssssssssssssscsssscsssssssssssssssssssssscsssssssssssssssssscssssssssscssscssssssssssssssssscssscscssssss" />
  </g>
</svg>
