<?xml version="1.0" encoding="UTF-8" standalone="no"?>
<!-- Created with Inkscape (http://www.inkscape.org/) -->

<svg
   version="1.1"
   id="svg1"
   width="1024"
   height="1024"
   viewBox="0 0 1024 1024"
   sodipodi:docname="logo.svg"
   inkscape:version="1.3.2 (091e20ef0f, 2023-11-25)"
   inkscape:export-filename="logo.png"
   inkscape:export-xdpi="96"
   inkscape:export-ydpi="96"
   xmlns:inkscape="http://www.inkscape.org/namespaces/inkscape"
   xmlns:sodipodi="http://sodipodi.sourceforge.net/DTD/sodipodi-0.dtd"
   xmlns="http://www.w3.org/2000/svg"
   xmlns:svg="http://www.w3.org/2000/svg">
  <defs
     id="defs1" />
  <sodipodi:namedview
     id="namedview1"
     pagecolor="#ffffff"
     bordercolor="#000000"
     borderopacity="0.25"
     inkscape:showpageshadow="2"
     inkscape:pageopacity="0.0"
     inkscape:pagecheckerboard="0"
     inkscape:deskcolor="#d1d1d1"
     inkscape:zoom="0.5913306"
     inkscape:cx="387.26222"
     inkscape:cy="328.91922"
     inkscape:window-width="1920"
     inkscape:window-height="1011"
     inkscape:window-x="0"
     inkscape:window-y="0"
     inkscape:window-maximized="1"
     inkscape:current-layer="g1" />
  <g
     inkscape:groupmode="layer"
     inkscape:label="Image"
     id="g1">
    <path
       style="fill:#0f58cf;fill-opacity:1;stroke-width:1.44579"
       d="m 435.21061,1022.7005 c -18.19548,-3.0586 -42.4422,-13.3528 -54.99757,-23.34953 -41.75074,-33.24236 -48.07539,-88.66093 -14.15036,-123.99029 14.44035,-15.03815 30.53066,-21.60719 52.52128,-21.44226 15.80133,0.1186 25.73695,3.36434 38.72332,12.65076 20.42405,14.60485 31.04453,36.24318 29.64606,60.4012 -1.26456,21.84407 -15.50241,42.53413 -35.98841,52.29764 -5.3946,2.57094 -9.84503,5.16237 -9.88976,5.75879 -0.15474,2.06255 27.82055,1.11085 37.41696,-1.2728 33.39122,-8.29405 59.77224,-35.37336 67.42492,-69.20972 3.05406,-13.50358 3.35659,-36.14776 0.71467,-53.49443 -1.7583,-11.545 -11.56018,-61.82727 -12.17159,-62.43871 -0.17747,-0.17749 -5.17747,0.92855 -11.11104,2.4578 -26.09973,6.72687 -66.37182,7.38064 -93.92165,1.52478 -30.47892,-6.47844 -63.25778,-20.8338 -88.90126,-38.93385 -14.16766,-9.99996 -44.10041,-39.50805 -53.00197,-52.24996 -26.16488,-37.45307 -39.37652,-72.06651 -43.25586,-113.32664 -3.57882,-38.06439 4.29838,-80.33585 21.25677,-114.07006 20.66845,-41.11436 51.83204,-74.34389 125.58872,-133.91421 43.96891,-35.51193 63.81053,-53.11668 83.80558,-74.35757 41.05515,-43.61322 61.09431,-76.43195 71.65319,-117.34857 3.20104,-12.40444 5.38747,-42.91611 3.71436,-51.83446 -0.93496,-4.98394 -1.29605,-5.27448 -6.55488,-5.27448 -7.05918,0 -22.84271,4.8427 -34.06298,10.45124 -33.73472,16.86262 -61.07244,46.36383 -69.61264,75.12179 -2.77369,9.33999 -2.21666,14.30016 6.1396,54.66916 3.53893,17.09657 6.78142,32.80944 7.20559,34.91751 0.68999,3.42917 -0.95072,5.31087 -15.57745,17.86552 -21.56268,18.50809 -22.76692,19.50682 -23.52067,19.50682 -1.99191,0 -15.91678,-69.47098 -18.2858,-91.22744 -2.38743,-21.92594 -0.96083,-59.30799 2.94648,-77.20783 9.34877,-42.82789 26.99304,-79.123912 54.57154,-112.259199 11.43112,-13.734355 30.79966,-31.171488 36.10259,-32.50241951 2.33587,-0.58627729 6.55998,1.15514781 14.55257,5.99942951 38.53083,23.353332 67.31945,59.750053 81.92173,103.571549 7.96399,23.89986 10.15574,38.71456 10.23285,69.16684 0.0816,32.27293 -1.64343,43.2788 -11.10486,70.84401 -14.03943,40.90288 -35.50837,74.52554 -74.52154,116.70858 l -15.00644,16.22575 1.6869,8.35279 c 2.56813,12.71627 17.27376,79.83808 18.97239,86.59681 l 1.49644,5.95421 17.58729,0.81656 c 19.07508,0.88558 31.41226,3.64226 48.44913,10.82571 18.77853,7.91783 30.44695,15.96499 46.48828,32.06088 21.67939,21.75304 32.71925,41.82197 39.25331,71.35696 4.1267,18.65336 3.19874,49.03448 -2.11509,69.2474 -8.14546,30.98383 -23.26934,57.09026 -46.35252,80.01234 -11.21266,11.13437 -32.28912,27.49525 -41.11215,31.91381 -0.24561,0.12305 1.82147,11.84206 4.59344,26.04244 7.67094,39.29658 8.69366,47.33228 8.71425,68.46975 0.0461,47.45204 -15.17889,86.62992 -44.05473,113.36383 -19.96876,18.48737 -41.41654,29.14057 -68.47049,34.00937 -8.18184,1.4725 -37.99813,1.8268 -45.6385,0.5424 z m 77.35013,-262.87168 c 6.36147,-1.34214 12.01941,-2.86369 12.57313,-3.38117 0.87871,-0.82127 -5.18399,-30.98503 -30.84676,-153.47246 -3.24878,-15.50616 -6.171,-28.63813 -6.49386,-29.18221 -0.70921,-1.19513 -17.8496,4.49716 -25.86315,8.58913 -17.64366,9.00942 -33.72662,26.12602 -39.95825,42.52636 -8.35025,21.97605 -2.49456,49.96349 14.18434,67.79456 8.58904,9.18242 13.16252,12.47044 23.47746,16.87884 l 8.10739,3.46491 -11.56638,-0.75792 c -38.89649,-2.54882 -72.95965,-32.02931 -82.43964,-71.34869 -3.44711,-14.29719 -2.32635,-42.8893 2.25318,-57.48324 11.5775,-36.89475 42.26101,-68.08067 81.25512,-82.58562 8.84417,-3.28979 11.19254,-4.77098 11.20492,-7.06708 0.0117,-2.26889 -9.63439,-49.19264 -13.75506,-66.90805 -1.00249,-4.30995 -0.58535,-4.61565 -30.697,22.49674 -62.84254,56.58325 -89.97443,92.0946 -102.42932,134.06401 -5.35015,18.02846 -5.64917,44.36088 -0.72238,63.61508 6.51467,25.45967 18.08741,45.85997 37.45823,66.03101 23.54403,24.5166 56.2277,42.42508 86.30559,47.2897 5.56631,0.90023 11.74709,1.9126 13.73508,2.24968 7.85093,1.33114 43.28893,-0.50786 54.21736,-2.81358 z m 69.74312,-32.02308 c 9.02488,-7.71023 21.43447,-23.72156 26.98477,-34.81681 10.16768,-20.32573 11.29046,-49.84318 2.68145,-70.49549 -6.86088,-16.4586 -22.09588,-32.73015 -38.92563,-41.57393 -9.92117,-5.21343 -30.62031,-11.81989 -34.26011,-10.93463 -2.03196,0.49419 -0.20192,9.8485 21.58664,110.34042 12.14361,56.0081 11.7118,54.21735 13.07339,54.21735 0.5356,0 4.52235,-3.03164 8.85949,-6.73691 z M 101.87811,835.16547 C 82.292082,829.03095 66.79249,815.24331 56.502838,794.80199 50.748087,783.36975 45.278133,762.48345 47.465729,760.29516 c 0.546935,-0.54713 8.47639,-4.19705 17.621046,-8.11096 9.144672,-3.91391 28.988222,-12.69028 44.096795,-19.50307 23.3784,-10.54186 82.6302,-36.60442 122.50551,-53.88542 l 11.17917,-4.84479 8.08115,15.79848 c 10.95864,21.424 23.08942,38.12539 40.78368,56.14998 8.16043,8.31274 14.66649,15.21327 14.45796,15.33442 -1.90973,1.10986 -30.21253,13.79114 -30.77977,13.79114 -0.76369,0 -32.23776,13.76267 -97.5524,42.65666 -20.27728,8.97037 -39.47022,17.02669 -42.65098,17.90311 -7.65438,2.10895 -25.99446,1.87823 -33.32978,-0.41924 z m 68.98451,-61.30714 c 4.81472,-5.1616 5.55046,-6.85632 5.55046,-12.78443 0,-12.08698 -8.85147,-20.75462 -21.18254,-20.74265 -15.51651,0.0155 -24.80866,17.48692 -16.47312,30.97407 4.54522,7.35435 9.32736,9.6592 18.73158,9.02827 7.00104,-0.4697 8.40642,-1.15014 13.37362,-6.47526 z M 51.30498,725.13 c 4.729542,-12.56513 10.900876,-21.21764 20.072114,-28.142 4.988393,-3.76628 25.605628,-13.59971 60.284506,-28.75282 70.84662,-30.95684 96.0341,-41.83812 96.29814,-41.60194 0.12152,0.10886 1.84261,6.13356 3.82473,13.38862 l 3.60383,13.191 -15.39109,6.59904 c -25.16553,10.78988 -82.15671,35.65798 -122.851537,53.60632 -20.934201,9.23296 -39.645329,17.18455 -41.580275,17.67018 -1.934946,0.48566 -3.875641,1.46153 -4.312671,2.16861 -0.437008,0.70713 -1.401186,1.28564 -2.142588,1.28564 -0.741445,0 0.246274,-4.23567 2.194841,-9.41265 z M 795.93676,608.07928 c -5.56629,-1.02517 -19.2291,-4.58683 -30.3617,-7.91482 -31.346,-9.37059 -44.32832,-9.36813 -65.2589,0.0116 l -8.87282,3.97655 -0.89673,-5.60781 c -1.50581,-9.41681 -8.11207,-28.90746 -13.99121,-41.27873 -4.70486,-9.90021 -12.34296,-21.21494 -26.37468,-39.07024 l -2.62226,-3.33679 14.91152,-6.84669 c 16.62026,-7.63126 38.81985,-18.9261 40.74053,-20.72815 0.68776,-0.64527 -0.875,-2.27236 -3.47275,-3.61574 -3.50133,-1.8106 -7.19104,-2.28373 -14.26266,-1.82887 -7.94497,0.51106 -13.16105,2.2509 -31.20746,10.40932 -13.46938,6.0892 -22.31666,9.33318 -23.38225,8.57335 -0.94283,-0.67228 -6.62457,-4.47536 -12.62608,-8.4513 -6.00154,-3.97595 -10.92685,-7.55428 -10.94524,-7.95187 -0.0175,-0.39762 5.95751,-3.65064 13.27962,-7.229 24.58165,-12.01315 33.91734,-25.30875 41.7594,-59.47257 5.16934,-22.52008 7.38305,-29.38556 13.2233,-41.01026 15.7283,-31.30631 45.82156,-58.83181 79.17852,-72.42252 33.08997,-13.48192 75.52863,-15.84167 112.19297,-6.2384 12.84022,3.36321 29.47169,9.81484 29.47169,11.43262 0,0.62674 -6.66864,4.88421 -14.81932,9.46105 -8.15069,4.57681 -25.55454,14.62595 -38.6751,22.33132 -13.12058,7.70539 -33.0615,19.41791 -44.31312,26.02785 l -20.45747,12.01805 -3.04131,10.2614 c -1.67271,5.64372 -3.03922,11.52431 -3.03669,13.06793 0.004,2.53078 35.81484,69.45482 53.95527,100.83302 l 7.25801,12.55445 9.72233,2.38258 c 11.76211,2.88245 5.14684,5.86486 63.46554,-28.61271 38.72261,-22.89312 68.9069,-40.08451 70.37841,-40.08451 0.69283,0 -0.82794,16.31433 -2.62843,28.19299 -1.68811,11.13782 -9.00213,33.92741 -14.15225,44.0968 -17.46919,34.49447 -48.49426,63.60337 -82.14559,77.07205 -25.62053,10.25446 -56.66705,13.66098 -81.99309,8.99662 z"
       id="path1"
       sodipodi:nodetypes="sssssssssssssssssssssssssssssssssssssscsscsssssssssssssssssssscsssscsssssssssssssssssssssscsssssssssssssssssscssssssssscssscssssssssssssssssscssscscssssss" />
  </g>
</svg>
