<?xml version="1.0" encoding="UTF-8" standalone="no"?>
<svg
   height="48"
   width="48"
   version="1.1"
   id="svg4"
   sodipodi:docname="cowbell.svg"
   xml:space="preserve"
   inkscape:version="1.2.1 (9c6d41e410, 2022-07-14)"
   xmlns:inkscape="http://www.inkscape.org/namespaces/inkscape"
   xmlns:sodipodi="http://sodipodi.sourceforge.net/DTD/sodipodi-0.dtd"
   xmlns="http://www.w3.org/2000/svg"
   xmlns:svg="http://www.w3.org/2000/svg"><defs
     id="defs8" /><sodipodi:namedview
     id="namedview6"
     pagecolor="#ffffff"
     bordercolor="#666666"
     borderopacity="1.0"
     inkscape:showpageshadow="2"
     inkscape:pageopacity="0.0"
     inkscape:pagecheckerboard="0"
     inkscape:deskcolor="#d1d1d1"
     showgrid="false"
     inkscape:zoom="13.048287"
     inkscape:cx="16.362301"
     inkscape:cy="21.612032"
     inkscape:window-width="1920"
     inkscape:window-height="963"
     inkscape:window-x="0"
     inkscape:window-y="0"
     inkscape:window-maximized="1"
     inkscape:current-layer="svg4" /><path
     id="path7549"
     style="color:#000000;fill:#090909;-inkscape-stroke:none"
     d="M 23.931641 3.7792969 C 23.03399 3.7804069 21.840668 3.7949847 20.933594 4.6542969 C 19.979654 5.5581429 19.88789 6.6102868 19.867188 7.4492188 C 19.718941 7.4620047 19.553539 7.4745354 19.367188 7.4746094 C 18.868154 7.4748452 18.198308 7.3894121 17.5 7.4082031 C 16.801692 7.4269941 16.000004 7.5601905 15.404297 8.1679688 C 14.71165 8.874862 14.557601 9.792925 14.398438 10.425781 C 14.090024 11.65207 13.754917 12.878131 13.408203 14.099609 C 12.107999 18.680613 10.85343 23.301994 9.6972656 27.925781 C 9.4372841 28.965321 9.1410156 30.008902 8.8554688 31.064453 C 8.7547094 31.436746 8.58245 31.985911 8.5332031 32.488281 C 8.4967442 32.855403 8.4974734 33.188757 8.5371094 33.550781 L 8.3574219 33.476562 C 8.261857 33.709467 8.1148384 34.012101 7.9472656 34.492188 C 7.6205721 35.428312 7.5396137 36.760644 7.5410156 37.669922 C 7.5419598 38.444371 7.6188259 39.276415 7.9511719 40.050781 C 8.2835178 40.825147 8.9227602 41.533182 9.8789062 41.875 C 11.027257 42.285535 12.170396 42.103516 13.0625 42.103516 L 18.388672 42.103516 L 31.214844 42.103516 C 32.977655 42.103516 35.160089 42.179966 36.994141 41.896484 L 36.996094 41.896484 C 37.49406 41.819474 38.022705 41.746415 38.554688 41.533203 C 39.086671 41.319992 39.615458 40.935859 39.980469 40.337891 L 39.980469 40.335938 C 40.621516 39.285514 40.431641 38.131404 40.431641 37.34375 C 40.431641 36.484998 40.317093 35.328115 40.046875 34.503906 C 39.88587 34.013008 39.717226 33.687036 39.599609 33.439453 L 39.546875 33.464844 C 39.544175 33.160176 39.545177 32.862035 39.460938 32.421875 C 39.368538 31.938481 39.166987 31.199585 39.037109 30.732422 C 38.679341 29.445025 38.353324 28.136328 37.998047 26.824219 C 36.851706 22.591833 35.760442 18.342662 34.582031 14.103516 C 34.384798 13.393866 34.227131 12.392726 34.005859 11.390625 C 33.784589 10.388524 33.510669 9.374378 32.939453 8.5566406 C 32.587508 8.0529416 32.081154 7.7102804 31.509766 7.5605469 L 31.509766 7.5585938 L 31.507812 7.5585938 C 31.109817 7.4554086 30.804768 7.4757494 30.566406 7.4746094 C 30.104538 7.4726694 28.964702 7.4755941 28.498047 7.4746094 C 28.288002 7.4741711 28.21182 7.4800519 28.138672 7.4824219 C 28.182512 7.5137738 28.159501 7.4056446 28.144531 7.0917969 C 28.111326 6.3753017 27.900846 5.5373213 27.283203 4.8847656 C 26.3084 3.8551153 25.024498 3.7779635 23.931641 3.7792969 z M 23.933594 5.2578125 C 24.971749 5.2565425 25.638406 5.2956451 26.210938 5.9003906 C 26.481743 6.1865039 26.646967 6.7063052 26.667969 7.1601562 L 26.667969 7.1621094 C 26.668949 7.1825994 26.737276 7.3931732 26.728516 7.4628906 C 26.62377 7.4727306 26.647536 7.4727104 26.529297 7.4746094 C 26.202056 7.4802494 25.64201 7.4746094 25.238281 7.4746094 C 24.170444 7.4746094 22.670529 7.4763694 21.652344 7.4746094 C 21.547766 7.4743864 21.423916 7.4629531 21.328125 7.4550781 C 21.340565 6.8113748 21.398975 6.2497656 21.951172 5.7265625 C 22.36949 5.3302707 23.083886 5.258866 23.933594 5.2578125 z M 27.582031 8.7949219 C 27.672201 8.8301438 27.747944 8.9390681 27.828125 8.9492188 C 28.128046 8.9871877 28.311911 8.952735 28.496094 8.953125 C 28.973518 8.954135 30.113095 8.951255 30.558594 8.953125 C 30.863904 8.954585 30.944758 8.9399604 31.138672 8.9902344 C 31.334503 9.0423983 31.605058 9.2256527 31.728516 9.4023438 C 32.081074 9.9070575 32.357343 10.771015 32.564453 11.708984 C 32.771564 12.646953 32.921757 13.647311 33.158203 14.498047 C 34.331448 18.718613 35.422591 22.966241 36.572266 27.210938 C 36.922378 28.503977 37.248472 29.816173 37.613281 31.128906 C 37.739408 31.582578 37.942185 32.345688 38.009766 32.699219 C 38.015566 32.729459 38.010673 32.741631 38.015625 32.769531 C 37.671765 32.694621 37.432939 32.584735 36.871094 32.582031 C 36.206971 32.578531 35.173191 32.582031 34.474609 32.582031 C 32.751556 32.582031 30.73398 32.581888 29.041016 32.582031 C 28.501621 32.582031 28.284784 32.599609 27.845703 32.599609 C 27.444425 32.599609 27.208791 32.582031 26.757812 32.582031 C 25.631056 32.581688 23.918963 32.582031 22.736328 32.582031 C 22.26977 32.582031 21.536709 32.580631 21.103516 32.582031 C 20.734238 32.583231 20.494225 32.602796 20.138672 32.597656 L 20.136719 32.597656 C 19.686949 32.592356 19.464386 32.582031 18.931641 32.582031 L 13.498047 32.582031 C 12.802263 32.582031 11.769244 32.576184 11.097656 32.583984 C 10.563676 32.590184 10.343033 32.700158 10 32.775391 C 10.0064 32.712571 9.9960463 32.713931 10.003906 32.634766 L 10.003906 32.632812 C 10.024246 32.424004 10.176052 31.845126 10.283203 31.449219 C 10.565493 30.40571 10.863273 29.353155 11.130859 28.283203 C 12.282229 23.678591 13.533001 19.071938 14.830078 14.501953 C 15.179438 13.271153 15.518708 12.030971 15.832031 10.785156 C 15.999259 10.120241 16.189708 9.4779399 16.458984 9.203125 C 16.658028 9.0000485 17.004286 8.8991557 17.539062 8.8847656 C 18.07384 8.8703756 18.72376 8.95343 19.369141 8.953125 C 19.937196 8.9529017 20.186964 8.890625 20.564453 8.890625 C 20.901765 8.890625 21.154092 8.952071 21.648438 8.953125 C 22.67082 8.954885 24.172069 8.953125 25.238281 8.953125 C 25.627857 8.953125 26.182814 8.9575019 26.552734 8.9511719 C 26.878193 8.9459419 27.226603 8.8816708 27.582031 8.7949219 z M 11.115234 34.060547 C 11.758139 34.053147 12.792144 34.060547 13.498047 34.060547 L 18.931641 34.060547 C 19.177604 34.060547 19.331092 34.063606 19.498047 34.066406 C 19.498076 34.154446 19.497842 34.193511 19.498047 34.300781 C 19.498702 34.597684 19.472218 34.97931 19.630859 35.419922 L 19.632812 35.421875 C 19.982435 36.385344 20.944219 36.861116 21.847656 36.884766 C 23.226711 36.920846 25.021215 36.979638 26.554688 36.798828 C 27.06307 36.751568 27.470114 36.511495 27.775391 36.238281 C 28.08265 35.963293 28.304885 35.663729 28.429688 35.300781 C 28.551212 34.947036 28.566456 34.640146 28.580078 34.333984 L 28.580078 34.332031 C 28.585778 34.20633 28.581009 34.168304 28.582031 34.066406 C 28.721646 34.063406 28.845623 34.060547 29.041016 34.060547 C 30.733798 34.060404 32.751474 34.060547 34.474609 34.060547 C 35.17793 34.060547 36.212448 34.057047 36.863281 34.060547 C 37.620432 34.064147 37.888015 34.18151 38.367188 34.316406 C 38.459847 34.510332 38.551977 34.682649 38.644531 34.964844 L 38.642578 34.964844 C 38.806739 35.465562 38.953125 36.649936 38.953125 37.34375 C 38.953125 38.268215 39.001785 39.105821 38.720703 39.566406 C 38.522685 39.890805 38.31609 40.036991 38.003906 40.162109 C 37.691723 40.287228 37.26849 40.360338 36.769531 40.4375 C 35.157609 40.686649 33.015383 40.626953 31.214844 40.626953 L 18.388672 40.626953 L 13.0625 40.626953 C 12.025128 40.626953 11.058313 40.727961 10.376953 40.484375 C 9.7977157 40.277302 9.5158456 39.951647 9.3085938 39.46875 C 9.1013418 38.985853 9.0203469 38.337068 9.0195312 37.667969 C 9.0183313 36.890368 9.1600567 35.499282 9.3417969 34.978516 C 9.4397058 34.69801 9.5206132 34.523166 9.6054688 34.328125 C 10.043376 34.178714 10.313905 34.069797 11.115234 34.060547 z M 21.109375 34.060547 C 21.533974 34.059147 22.267033 34.060547 22.736328 34.060547 C 23.919249 34.060547 25.631812 34.060204 26.757812 34.060547 C 26.889365 34.060547 26.996002 34.064106 27.103516 34.066406 C 27.102416 34.138876 27.107516 34.178771 27.103516 34.265625 L 27.103516 34.267578 C 27.089716 34.577959 27.09073 34.647184 27.03125 34.820312 C 27.02375 34.842032 26.923315 35.018314 26.791016 35.136719 C 26.658715 35.255124 26.510068 35.321999 26.417969 35.330078 L 26.40625 35.332031 L 26.394531 35.332031 C 25.036354 35.493783 23.277138 35.444584 21.886719 35.408203 C 21.410859 35.395743 21.138381 35.240105 21.021484 34.917969 C 20.987994 34.823869 20.977272 34.621781 20.976562 34.298828 C 20.976358 34.191252 20.97659 34.150589 20.976562 34.0625 C 21.017502 34.061811 21.066912 34.060747 21.109375 34.060547 z " /></svg>
