<?xml version="1.0" encoding="UTF-8" standalone="no"?>
<svg
   height="48"
   width="48"
   version="1.1"
   id="svg4"
   sodipodi:docname="cowbell_circle.svg"
   xml:space="preserve"
   inkscape:version="1.2.1 (9c6d41e410, 2022-07-14)"
   xmlns:inkscape="http://www.inkscape.org/namespaces/inkscape"
   xmlns:sodipodi="http://sodipodi.sourceforge.net/DTD/sodipodi-0.dtd"
   xmlns="http://www.w3.org/2000/svg"
   xmlns:svg="http://www.w3.org/2000/svg"><defs
     id="defs8" /><sodipodi:namedview
     id="namedview6"
     pagecolor="#ffffff"
     bordercolor="#666666"
     borderopacity="1.0"
     inkscape:showpageshadow="2"
     inkscape:pageopacity="0.0"
     inkscape:pagecheckerboard="0"
     inkscape:deskcolor="#d1d1d1"
     showgrid="false"
     inkscape:zoom="14.78191"
     inkscape:cx="27.127752"
     inkscape:cy="19.077372"
     inkscape:window-width="1920"
     inkscape:window-height="963"
     inkscape:window-x="0"
     inkscape:window-y="0"
     inkscape:window-maximized="1"
     inkscape:current-layer="svg4" /><path
     id="path2"
     d="M 24.050781 4 C 21.284117 4 18.683331 4.5242198 16.25 5.5742188 C 13.816669 6.6242177 11.691665 8.0496112 9.875 9.8496094 C 8.0583351 11.649608 6.6242177 13.765888 5.5742188 16.199219 C 4.5242198 18.632549 4 21.215888 4 23.949219 C 4 26.715883 4.5242198 29.316669 5.5742188 31.75 C 6.6242177 34.183331 8.0583351 36.308335 9.875 38.125 C 11.691665 39.941665 13.816669 41.375782 16.25 42.425781 C 18.683331 43.47578 21.26667 44 24 44 C 26.766664 44 29.367451 43.47578 31.800781 42.425781 C 34.234112 41.375782 36.350392 39.941665 38.150391 38.125 C 39.950389 36.308335 41.375782 34.183331 42.425781 31.75 C 43.47578 29.316669 44 26.73333 44 24 C 44 21.233336 43.47578 18.632549 42.425781 16.199219 C 41.375782 13.765888 39.950389 11.649608 38.150391 9.8496094 C 36.350392 8.0496112 34.234112 6.6242177 31.800781 5.5742188 C 29.367451 4.5242198 26.784112 4 24.050781 4 z M 24 7 C 28.733328 7 32.750785 8.6492221 36.050781 11.949219 C 39.350778 15.249215 41 19.249223 41 23.949219 C 41 28.682547 39.350778 32.708727 36.050781 36.025391 C 32.750785 39.342054 28.750777 41 24.050781 41 C 19.317453 41 15.291273 39.342054 11.974609 36.025391 C 8.657946 32.708727 7 28.699995 7 24 C 7 19.266672 8.657946 15.249215 11.974609 11.949219 C 15.291273 8.6492221 19.300005 7 24 7 z M 23.953125 9.0175781 C 23.345608 9.0183312 22.539677 9.0278047 21.925781 9.609375 C 21.279783 10.221447 21.217064 10.934077 21.203125 11.501953 C 21.102731 11.510653 20.991434 11.519481 20.865234 11.519531 C 20.527495 11.519691 20.072215 11.459936 19.599609 11.472656 C 19.127004 11.485376 18.58676 11.576947 18.183594 11.988281 C 17.714822 12.466697 17.609674 13.087315 17.501953 13.515625 C 17.293223 14.34556 17.066684 15.175273 16.832031 16.001953 C 15.952071 19.102315 15.102788 22.230056 14.320312 25.359375 C 14.144359 26.062923 13.943252 26.768039 13.75 27.482422 C 13.68172 27.734715 13.564404 28.10691 13.53125 28.447266 C 13.50664 28.695022 13.508736 28.919909 13.535156 29.164062 L 13.414062 29.115234 C 13.349383 29.272861 13.248177 29.477818 13.134766 29.802734 C 12.913664 30.43629 12.860379 31.339691 12.861328 31.955078 C 12.861972 32.479213 12.913748 33.042327 13.138672 33.566406 C 13.363598 34.090486 13.796253 34.569443 14.443359 34.800781 C 15.220548 35.078626 15.993894 34.955078 16.597656 34.955078 L 20.203125 34.955078 L 28.882812 34.955078 C 30.075861 34.955078 31.553663 35.006308 32.794922 34.814453 C 33.131939 34.762333 33.489571 34.712658 33.849609 34.568359 C 34.209648 34.424062 34.569373 34.164462 34.816406 33.759766 C 35.250258 33.048852 35.121094 32.265496 35.121094 31.732422 C 35.121094 31.151229 35.044204 30.370312 34.861328 29.8125 C 34.752362 29.480267 34.636244 29.259361 34.556641 29.091797 L 34.521484 29.109375 C 34.519684 28.903017 34.521875 28.700513 34.464844 28.402344 C 34.402304 28.075188 34.265633 27.575934 34.177734 27.259766 C 33.935602 26.388471 33.715057 25.5013 33.474609 24.613281 C 32.698781 21.748858 31.959642 18.872905 31.162109 16.003906 C 31.028634 15.523618 30.923191 14.84813 30.773438 14.169922 C 30.623685 13.491713 30.437373 12.803433 30.050781 12.25 C 29.81259 11.909103 29.470691 11.67751 29.083984 11.576172 L 29.082031 11.576172 C 28.812673 11.506342 28.604679 11.520301 28.443359 11.519531 C 28.130743 11.518231 27.360748 11.520196 27.044922 11.519531 C 26.901231 11.519231 26.847609 11.521838 26.798828 11.523438 C 26.828128 11.543847 26.814777 11.471677 26.804688 11.259766 C 26.782248 10.774819 26.640667 10.207265 26.222656 9.765625 C 25.562929 9.0687777 24.692756 9.0166755 23.953125 9.0175781 z M 23.955078 10.017578 C 24.657688 10.016721 25.108611 10.043838 25.496094 10.453125 C 25.679372 10.646764 25.792427 10.99948 25.806641 11.306641 C 25.807303 11.320481 25.853566 11.46274 25.847656 11.509766 C 25.776666 11.516466 25.793066 11.516278 25.712891 11.517578 L 25.710938 11.517578 C 25.489458 11.521378 25.111126 11.519531 24.837891 11.519531 C 24.115188 11.519531 23.099241 11.520731 22.410156 11.519531 C 22.339596 11.519381 22.256037 11.511129 22.191406 11.505859 C 22.199806 11.069762 22.239287 10.690289 22.613281 10.335938 C 22.896395 10.067731 23.380008 10.018291 23.955078 10.017578 z M 26.423828 12.412109 C 26.484938 12.435999 26.535509 12.510699 26.589844 12.517578 C 26.792825 12.543278 26.918316 12.519231 27.042969 12.519531 C 27.366085 12.520211 28.137978 12.518231 28.439453 12.519531 C 28.646085 12.52052 28.698839 12.508939 28.830078 12.542969 C 28.962729 12.577729 29.146598 12.702231 29.230469 12.822266 C 29.469077 13.163849 29.656705 13.74996 29.796875 14.384766 C 29.937045 15.01957 30.037242 15.695718 30.197266 16.271484 C 30.991302 19.127909 31.729728 22.002245 32.507812 24.875 C 32.744765 25.750112 32.965992 26.638903 33.212891 27.527344 C 33.298251 27.834383 33.436685 28.35058 33.482422 28.589844 C 33.486422 28.610814 33.482942 28.619352 33.486328 28.638672 C 33.25357 28.587962 33.091282 28.513549 32.710938 28.511719 C 32.261408 28.509319 31.562611 28.511719 31.089844 28.511719 C 29.923704 28.511719 28.557886 28.511622 27.412109 28.511719 C 27.047053 28.511719 26.898724 28.521484 26.601562 28.521484 C 26.329985 28.521484 26.172406 28.511719 25.867188 28.511719 C 25.104613 28.511487 23.944923 28.511719 23.144531 28.511719 C 22.828784 28.511719 22.332279 28.510731 22.039062 28.511719 C 21.789117 28.512507 21.627344 28.524924 21.386719 28.521484 L 21.384766 28.521484 C 21.080295 28.517884 20.930826 28.511719 20.570312 28.511719 L 16.892578 28.511719 C 16.421701 28.511719 15.722152 28.506419 15.267578 28.511719 C 14.906206 28.515919 14.757542 28.591669 14.525391 28.642578 C 14.529791 28.599318 14.521844 28.599732 14.527344 28.544922 C 14.541114 28.4036 14.644279 28.012084 14.716797 27.744141 C 14.907844 27.037908 15.109915 26.325692 15.291016 25.601562 C 16.070246 22.485222 16.915125 19.368296 17.792969 16.275391 C 18.029412 15.4424 18.260603 14.602915 18.472656 13.759766 C 18.585833 13.309759 18.714242 12.873492 18.896484 12.6875 C 19.031196 12.550059 19.265022 12.482395 19.626953 12.472656 C 19.988884 12.462956 20.428451 12.519741 20.865234 12.519531 C 21.249687 12.51938 21.418347 12.476563 21.673828 12.476562 C 21.902116 12.476562 22.073636 12.518811 22.408203 12.519531 C 23.100148 12.520731 24.116296 12.519531 24.837891 12.519531 C 25.101944 12.519531 25.478169 12.521978 25.728516 12.517578 C 25.948397 12.514078 26.183803 12.470418 26.423828 12.412109 z M 15.279297 29.511719 C 15.714353 29.506619 16.414814 29.511719 16.892578 29.511719 L 20.570312 29.511719 C 20.736766 29.511719 20.840164 29.513825 20.953125 29.515625 C 20.953145 29.575215 20.952986 29.601215 20.953125 29.673828 C 20.953569 29.874724 20.935529 30.133367 21.042969 30.431641 C 21.279588 31.083701 21.931534 31.40587 22.542969 31.421875 C 23.476532 31.446305 24.69051 31.487714 25.728516 31.365234 C 26.073406 31.333654 26.349682 31.169598 26.556641 30.984375 C 26.76459 30.798265 26.913582 30.597199 26.998047 30.351562 C 27.080457 30.111676 27.090377 29.902921 27.099609 29.695312 C 27.103509 29.609803 27.098935 29.584897 27.099609 29.515625 C 27.194419 29.513625 27.279335 29.511719 27.412109 29.511719 C 28.557762 29.511622 29.923648 29.511719 31.089844 29.511719 C 31.565863 29.511719 32.264663 29.509319 32.705078 29.511719 C 33.218548 29.514219 33.39903 29.593929 33.724609 29.685547 C 33.787019 29.816224 33.847785 29.932881 33.910156 30.123047 C 34.021258 30.461927 34.121094 31.262856 34.121094 31.732422 C 34.121094 32.358087 34.153123 32.92656 33.962891 33.238281 C 33.828875 33.45783 33.689797 33.555946 33.478516 33.640625 C 33.267233 33.725305 32.980267 33.77395 32.642578 33.826172 C 31.551647 33.994789 30.101393 33.955078 28.882812 33.955078 L 20.203125 33.955078 L 16.597656 33.955078 C 15.895578 33.955078 15.240434 34.024225 14.779297 33.859375 C 14.387276 33.719229 14.196905 33.498695 14.056641 33.171875 C 13.916375 32.845055 13.861884 32.405966 13.861328 31.953125 C 13.860517 31.426855 13.957078 30.485262 14.080078 30.132812 C 14.146578 29.942294 14.202141 29.823861 14.259766 29.691406 C 14.555058 29.590659 14.738126 29.517963 15.279297 29.511719 z M 22.042969 29.511719 C 22.330294 29.510751 22.826907 29.511719 23.144531 29.511719 C 23.945116 29.511719 25.105124 29.511487 25.867188 29.511719 C 25.955857 29.511719 26.027108 29.514125 26.099609 29.515625 C 26.098867 29.564755 26.102309 29.591495 26.099609 29.650391 C 26.090309 29.860461 26.091011 29.908222 26.050781 30.025391 C 26.045681 30.040091 25.978211 30.160099 25.888672 30.240234 C 25.799132 30.320374 25.699048 30.365627 25.636719 30.371094 L 25.628906 30.371094 L 25.621094 30.373047 C 24.701894 30.482518 23.51133 30.448448 22.570312 30.423828 C 22.248256 30.415428 22.06349 30.309816 21.984375 30.091797 C 21.961555 30.028447 21.953605 29.891175 21.953125 29.671875 C 21.952987 29.599575 21.953144 29.572945 21.953125 29.513672 C 21.980885 29.513205 22.014179 29.511819 22.042969 29.511719 z " /></svg>
