<?xml version="1.0" encoding="UTF-8" standalone="no"?>
<svg
   height="48"
   width="48"
   version="1.1"
   id="svg4"
   sodipodi:docname="drumsticks_circle.svg"
   xml:space="preserve"
   inkscape:version="1.2.1 (9c6d41e410, 2022-07-14)"
   xmlns:inkscape="http://www.inkscape.org/namespaces/inkscape"
   xmlns:sodipodi="http://sodipodi.sourceforge.net/DTD/sodipodi-0.dtd"
   xmlns="http://www.w3.org/2000/svg"
   xmlns:svg="http://www.w3.org/2000/svg"><defs
     id="defs8" /><sodipodi:namedview
     id="namedview6"
     pagecolor="#ffffff"
     bordercolor="#666666"
     borderopacity="1.0"
     inkscape:showpageshadow="2"
     inkscape:pageopacity="0.0"
     inkscape:pagecheckerboard="0"
     inkscape:deskcolor="#d1d1d1"
     showgrid="false"
     inkscape:zoom="9.0872982"
     inkscape:cx="21.293458"
     inkscape:cy="35.324031"
     inkscape:window-width="1920"
     inkscape:window-height="963"
     inkscape:window-x="0"
     inkscape:window-y="0"
     inkscape:window-maximized="1"
     inkscape:current-layer="svg4" /><path
     id="path2182"
     style="fill:#000000;stroke-width:0.0444606"
     d="m 14.906141,34.939535 c -0.526343,-0.16011 -0.797615,-0.531115 -0.798593,-1.092205 -6.6e-4,-0.409739 0.124784,-0.678284 0.4944,-1.057934 0.155237,-0.159457 1.282615,-1.234994 2.505282,-2.390086 1.222668,-1.155086 2.243039,-2.119139 2.267492,-2.142332 0.07008,-0.06646 -0.114849,0.01791 -2.801019,1.278558 -1.393841,0.654126 -2.639621,1.236528 -2.768401,1.294232 l -0.234144,0.104911 c -1.569311,0.896505 -3.012525,-1.237319 -0.694342,-2.180366 l 5.470649,-2.110745 c 4.280448,-1.651534 4.771858,-1.945387 4.935131,-2.101075 0.100377,-0.09571 2.475598,-2.345797 5.278268,-5.000192 l 5.095763,-4.826165 0.02099,-0.218408 c 0.08471,-0.881607 1.272095,-1.728987 1.957677,-1.397102 0.292227,0.141464 0.407501,0.371956 0.379781,0.759375 -0.04965,0.693957 -0.675214,1.374988 -1.400668,1.524866 l -0.269901,0.05576 -3.60556,3.797819 c -1.983059,2.088799 -3.598015,3.805364 -3.588791,3.814585 0.01573,0.01576 6.317143,-2.52662 6.485174,-2.616486 0.04271,-0.02283 0.116089,-0.115893 0.163058,-0.206772 0.17791,-0.344252 0.641958,-0.682454 1.108914,-0.808191 0.274205,-0.07384 0.72197,-0.06421 0.923144,0.01983 0.310979,0.129937 0.506579,0.391957 0.505578,0.677253 -0.0011,0.327057 -0.41684,0.861515 -0.836647,1.075687 -0.393038,0.200511 -0.950117,0.280527 -1.242777,0.178504 -0.128527,-0.04482 -0.430809,0.08987 -4.963898,2.211426 l -4.827036,2.259136 -4.157415,4.379863 c -2.286577,2.408924 -4.228758,4.428437 -4.315955,4.487806 -0.32459,0.220996 -0.789293,0.318729 -1.086151,0.228431 z M 24,44 c -2.733333,0 -5.316667,-0.525 -7.75,-1.575 -2.433333,-1.05 -4.558333,-2.483333 -6.375,-4.3 C 8.0583333,36.308333 6.625,34.183333 5.575,31.75 4.525,29.316667 4,26.716667 4,23.95 4,21.216667 4.525,18.633333 5.575,16.2 6.625,13.766667 8.0583333,11.65 9.875,9.85 11.691667,8.05 13.816667,6.625 16.25,5.575 18.683333,4.525 21.283333,4 24.05,4 c 2.733333,0 5.316667,0.525 7.75,1.575 2.433333,1.05 4.55,2.475 6.35,4.275 1.8,1.8 3.225,3.916667 4.275,6.35 1.05,2.433333 1.575,5.033333 1.575,7.8 0,2.733333 -0.525,5.316667 -1.575,7.75 -1.05,2.433333 -2.475,4.558333 -4.275,6.375 -1.8,1.816667 -3.916667,3.25 -6.35,4.3 C 29.366667,43.475 26.766667,44 24,44 Z m 0.05,-3 c 4.7,0 8.7,-1.658333 12,-4.975 3.3,-3.316667 4.95,-7.341667 4.95,-12.075 0,-4.7 -1.65,-8.7 -4.95,-12 C 32.75,8.65 28.733333,7 24,7 19.3,7 15.291667,8.65 11.975,11.95 8.6583333,15.25 7,19.266667 7,24 7,28.7 8.6583333,32.708333 11.975,36.025 15.291667,39.341667 19.316667,41 24.05,41 Z" /></svg>
