<?xml version="1.0" encoding="UTF-8" standalone="no"?>
<svg
   height="48"
   width="48"
   version="1.1"
   id="svg4"
   sodipodi:docname="drumsticks.svg"
   xml:space="preserve"
   inkscape:version="1.2.1 (9c6d41e410, 2022-07-14)"
   xmlns:inkscape="http://www.inkscape.org/namespaces/inkscape"
   xmlns:sodipodi="http://sodipodi.sourceforge.net/DTD/sodipodi-0.dtd"
   xmlns="http://www.w3.org/2000/svg"
   xmlns:svg="http://www.w3.org/2000/svg"><defs
     id="defs8" /><sodipodi:namedview
     id="namedview6"
     pagecolor="#ffffff"
     bordercolor="#666666"
     borderopacity="1.0"
     inkscape:showpageshadow="2"
     inkscape:pageopacity="0.0"
     inkscape:pagecheckerboard="0"
     inkscape:deskcolor="#d1d1d1"
     showgrid="false"
     inkscape:zoom="9.0872982"
     inkscape:cx="19.202627"
     inkscape:cy="35.324031"
     inkscape:window-width="1920"
     inkscape:window-height="963"
     inkscape:window-x="0"
     inkscape:window-y="0"
     inkscape:window-maximized="1"
     inkscape:current-layer="svg4" /><path
     id="path2182"
     style="fill:#000000;stroke-width:0.0734032"
     d="M 42.751953 5.8867188 C 41.616553 5.8073236 40.098935 7.0389321 39.976562 8.3125 L 39.943359 8.671875 L 31.529297 16.640625 C 26.902175 21.022951 22.982126 24.738471 22.816406 24.896484 C 22.546848 25.15352 21.734858 25.638602 14.667969 28.365234 L 5.6367188 31.849609 C 1.8094696 33.406551 4.1923186 36.929321 6.7832031 35.449219 L 7.1679688 35.275391 C 7.3805805 35.180123 9.4390455 34.218614 11.740234 33.138672 C 16.175019 31.057381 16.478981 30.917621 16.363281 31.027344 C 16.32291 31.065635 14.639681 32.657442 12.621094 34.564453 C 10.602508 36.471475 8.7406665 38.24846 8.484375 38.511719 C 7.8741503 39.138509 7.6668788 39.581345 7.6679688 40.257812 C 7.6695833 41.184155 8.1173519 41.79621 8.9863281 42.060547 C 9.4764316 42.209627 10.243409 42.048451 10.779297 41.683594 C 10.923257 41.585578 14.129233 38.25245 17.904297 34.275391 L 24.769531 27.042969 L 32.738281 23.314453 C 40.222272 19.81183 40.721399 19.588109 40.933594 19.662109 C 41.416766 19.830546 42.335481 19.698225 42.984375 19.367188 C 43.677463 19.013596 44.365388 18.131758 44.367188 17.591797 C 44.368839 17.120781 44.044666 16.689131 43.53125 16.474609 C 43.199117 16.335861 42.460516 16.319498 42.007812 16.441406 C 41.236882 16.648994 40.471458 17.207041 40.177734 17.775391 C 40.100189 17.925429 39.978713 18.079498 39.908203 18.117188 C 39.630789 18.265553 29.227142 22.46352 29.201172 22.4375 C 29.185944 22.422277 31.85103 19.587216 35.125 16.138672 L 41.078125 9.8691406 L 41.523438 9.7773438 C 42.72114 9.5298998 43.753968 8.4054674 43.835938 7.2597656 C 43.881702 6.6201488 43.691443 6.2394121 43.208984 6.0058594 C 43.0675 5.9373679 42.914153 5.8980609 42.751953 5.8867188 z " /></svg>
