<?xml version="1.0" encoding="UTF-8" standalone="no"?>
<svg
   height="48"
   width="48"
   version="1.1"
   id="svg4"
   sodipodi:docname="hihat.svg"
   xml:space="preserve"
   inkscape:version="1.2.1 (9c6d41e410, 2022-07-14)"
   xmlns:inkscape="http://www.inkscape.org/namespaces/inkscape"
   xmlns:sodipodi="http://sodipodi.sourceforge.net/DTD/sodipodi-0.dtd"
   xmlns="http://www.w3.org/2000/svg"
   xmlns:svg="http://www.w3.org/2000/svg"><defs
     id="defs8" /><sodipodi:namedview
     id="namedview6"
     pagecolor="#ffffff"
     bordercolor="#666666"
     borderopacity="1.0"
     inkscape:showpageshadow="2"
     inkscape:pageopacity="0.0"
     inkscape:pagecheckerboard="0"
     inkscape:deskcolor="#d1d1d1"
     showgrid="false"
     inkscape:zoom="19.973772"
     inkscape:cx="27.110553"
     inkscape:cy="28.937949"
     inkscape:window-width="1920"
     inkscape:window-height="963"
     inkscape:window-x="0"
     inkscape:window-y="0"
     inkscape:window-maximized="1"
     inkscape:current-layer="svg4" /><path
     id="path1210"
     style="fill:#000000;stroke-width:0.0942272"
     d="M 24 14.158203 C 23.735929 14.158203 23.472735 14.289128 23.353516 14.550781 C 23.294923 14.679283 23.246094 15.247215 23.246094 15.8125 L 23.246094 16.839844 L 22.939453 16.886719 C 22.771027 16.912379 21.742613 16.955862 20.654297 16.982422 C 13.613315 17.154553 6.8077899 18.371049 4.0703125 19.947266 C 3.3859874 20.341293 2.6553316 21.031931 2.4296875 21.498047 C 2.1526052 22.070421 2.1781856 22.551282 2.5253906 23.246094 C 2.7931574 23.781943 2.8070146 23.846764 2.671875 23.996094 C 2.438241 24.254253 2.2335093 24.820708 2.234375 25.208984 C 2.2369543 26.205248 3.0795807 27.109729 4.7167969 27.876953 C 7.8157676 29.329181 13.771823 30.306814 21.101562 30.566406 L 22.775391 30.626953 L 22.775391 36.560547 C 22.775391 38.252282 25.224609 38.282596 25.224609 36.560547 L 25.224609 30.626953 L 26.898438 30.566406 C 34.228185 30.30681 40.184232 29.329181 43.283203 27.876953 C 44.920419 27.109729 45.762925 26.205248 45.765625 25.208984 C 45.766629 24.820708 45.561759 24.254253 45.328125 23.996094 C 45.192988 23.846764 45.206842 23.781944 45.474609 23.246094 C 45.821812 22.551283 45.847385 22.070422 45.570312 21.498047 C 45.344668 21.031932 44.614014 20.341293 43.929688 19.947266 C 41.192211 18.371049 34.386685 17.154553 27.345703 16.982422 C 26.257386 16.955822 25.228985 16.912429 25.060547 16.886719 L 24.753906 16.839844 L 24.753906 15.8125 C 24.753906 15.247215 24.705074 14.679285 24.646484 14.550781 C 24.527266 14.289128 24.264071 14.158203 24 14.158203 z M 23.246094 18.341797 L 23.246094 18.632812 L 23.246094 18.921875 L 22.5625 18.921875 C 22.186449 18.921875 21.32884 18.985783 20.65625 19.064453 C 17.605038 19.421375 16.179688 20.096664 16.179688 21.183594 C 16.179688 22.652014 18.982673 23.472656 24 23.472656 C 29.017337 23.472656 31.820312 22.652014 31.820312 21.183594 C 31.820313 20.096664 30.394961 19.421375 27.34375 19.064453 C 26.671168 18.985795 25.813543 18.921875 25.4375 18.921875 L 24.753906 18.921875 L 24.753906 18.632812 L 24.753906 18.341797 L 26.521484 18.402344 C 35.091815 18.689015 41.984617 19.998422 43.867188 21.699219 C 44.328651 22.116129 44.362213 22.364709 44.011719 22.78125 C 43.718062 23.13025 42.189349 23.894782 41.101562 24.236328 C 37.838121 25.260986 32.861959 25.969143 27.769531 26.132812 C 22.236044 26.310661 17.69067 26.142135 13.59375 25.609375 C 9.7958542 25.115499 7.053302 24.439262 5.1894531 23.537109 C 3.6963248 22.814397 3.4237669 22.339795 4.1328125 21.699219 C 6.0153901 19.998422 12.908175 18.689016 21.478516 18.402344 L 23.246094 18.341797 z M 23.246094 20.337891 L 23.246094 20.615234 C 23.246094 21.027887 23.426548 21.344808 23.730469 21.470703 C 24.261481 21.690653 24.753906 21.27923 24.753906 20.615234 L 24.753906 20.337891 L 25.625 20.390625 C 27.468475 20.502561 30.03125 20.962773 30.03125 21.181641 C 30.03125 21.394657 28.008355 21.794853 26.224609 21.935547 C 24.10414 22.102806 21.452264 22.005967 19.759766 21.699219 C 18.824177 21.529648 17.96875 21.28292 17.96875 21.181641 C 17.96875 20.962773 20.531517 20.502561 22.375 20.390625 L 23.246094 20.337891 z M 4.1542969 24.720703 C 4.2507645 24.736308 4.3914115 24.805763 4.65625 24.939453 C 4.9624992 25.094048 5.6589998 25.370034 6.2050781 25.552734 C 15.409426 28.632254 35.997784 28.325612 43.191406 25.001953 C 43.86912 24.688827 43.923129 24.676878 44.085938 24.824219 C 44.88071 25.543478 42.911571 26.744698 39.558594 27.585938 C 36.29388 28.405032 31.709756 28.952414 27.25 29.056641 C 26.213511 29.080871 25.027881 29.11203 24.613281 29.125 C 24.198688 29.13788 22.755642 29.119947 21.408203 29.085938 C 16.321376 28.957598 11.845475 28.439996 8.4414062 27.585938 C 5.0770649 26.741847 3.1191859 25.544968 3.9199219 24.820312 C 4.0050868 24.743242 4.0578293 24.705098 4.1542969 24.720703 z " /></svg>
