<?xml version="1.0" encoding="UTF-8" standalone="no"?>
<svg
   height="48"
   width="48"
   version="1.1"
   id="svg4"
   sodipodi:docname="hihat_circle.svg"
   xml:space="preserve"
   inkscape:version="1.2.1 (9c6d41e410, 2022-07-14)"
   xmlns:inkscape="http://www.inkscape.org/namespaces/inkscape"
   xmlns:sodipodi="http://sodipodi.sourceforge.net/DTD/sodipodi-0.dtd"
   xmlns="http://www.w3.org/2000/svg"
   xmlns:svg="http://www.w3.org/2000/svg"><defs
     id="defs8" /><sodipodi:namedview
     id="namedview6"
     pagecolor="#ffffff"
     bordercolor="#666666"
     borderopacity="1.0"
     inkscape:showpageshadow="2"
     inkscape:pageopacity="0.0"
     inkscape:pagecheckerboard="0"
     inkscape:deskcolor="#d1d1d1"
     showgrid="false"
     inkscape:zoom="12.186868"
     inkscape:cx="18.995857"
     inkscape:cy="19.611273"
     inkscape:window-width="1920"
     inkscape:window-height="963"
     inkscape:window-x="0"
     inkscape:window-y="0"
     inkscape:window-maximized="1"
     inkscape:current-layer="svg4" /><path
     id="path1210"
     style="fill:#000000;stroke-width:0.063926"
     d="m 23.16897,33.16485 v -4.026192 l -1.134678,-0.04019 C 17.061616,28.922354 13.019792,28.258908 10.917374,27.273681 9.8066463,26.753177 9.2355636,26.139012 9.2338137,25.463122 9.2332264,25.199706 9.37153,24.815126 9.530033,24.639984 9.621715,24.538675 9.6133699,24.495544 9.4317103,24.13201 9.1961579,23.660633 9.1780852,23.334037 9.3660648,22.945724 9.5191473,22.6295 10.014508,22.161261 10.478771,21.893943 c 1.857172,-1.069344 6.475099,-1.895003 11.251874,-2.011781 0.73834,-0.01802 1.435931,-0.04709 1.550195,-0.0645 l 0.207761,-0.03171 v -0.697275 c 0,-0.383503 0.03247,-0.768603 0.07222,-0.855782 0.161762,-0.355024 0.716609,-0.355024 0.87837,0 0.03975,0.08718 0.07222,0.472279 0.07222,0.855782 v 0.697279 l 0.207754,0.03171 c 0.114272,0.01744 0.811855,0.04645 1.550196,0.0645 4.776775,0.116778 9.394702,0.942437 11.251873,2.011781 0.464264,0.267318 0.95963,0.735557 1.112713,1.051781 0.187973,0.388313 0.1699,0.714909 -0.06565,1.186286 -0.18166,0.363534 -0.19001,0.406665 -0.09833,0.507974 0.158503,0.175142 0.2969,0.559722 0.296219,0.823138 -0.0018,0.67589 -0.572833,1.290055 -1.683561,1.810559 -2.102418,0.985227 -6.144235,1.648673 -11.116916,1.82479 l -1.13468,0.04019 v 4.026192 c 0,1.168281 -1.662064,1.147715 -1.662064,0 z m 3.036465,-5.090535 c 3.025608,-0.07071 6.134917,-0.44238 8.349779,-0.998074 2.274743,-0.570717 3.610424,-1.385475 3.071231,-1.873438 -0.110454,-0.09996 -0.147129,-0.09273 -0.606906,0.119702 -4.88033,2.254852 -18.847024,2.462791 -25.09148,0.373569 -0.370473,-0.123949 -0.84358,-0.311175 -1.051347,-0.416056 -0.359346,-0.181397 -0.383679,-0.185333 -0.499235,-0.08076 -0.543239,0.491624 0.784868,1.30433 3.06732,1.876981 2.309404,0.579414 5.346226,0.930775 8.797255,1.017844 0.914135,0.02307 1.892197,0.03477 2.173467,0.02603 0.281275,-0.0088 1.086736,-0.02936 1.789916,-0.0458 z m 0.35159,-1.984369 c 3.454828,-0.111038 6.831474,-0.591249 9.045473,-1.286402 0.737981,-0.231713 1.774443,-0.749803 1.973667,-0.986573 0.237784,-0.282591 0.215288,-0.45154 -0.09778,-0.734382 C 36.201203,21.928727 31.524341,21.0395 25.710018,20.845015 l -1.198605,-0.04011 v 0.196604 0.196611 h 0.463852 c 0.255117,0 0.837185,0.04368 1.293481,0.09704 2.070017,0.242145 3.037081,0.699768 3.037081,1.437168 0,0.996213 -1.901938,1.552852 -5.305823,1.552852 -3.403878,0 -5.305822,-0.556639 -5.305822,-1.552852 0,-0.7374 0.967064,-1.195023 3.037081,-1.437168 0.456302,-0.05337 1.038365,-0.09704 1.293487,-0.09704 h 0.463852 v -0.196606 -0.196605 l -1.198605,0.04011 c -5.81433,0.194486 -10.491185,1.083713 -11.768372,2.237575 -0.481034,0.434583 -0.295703,0.75681 0.717272,1.247116 1.264481,0.612043 3.124947,1.070781 5.701533,1.405838 2.779451,0.361438 5.862543,0.475059 9.616597,0.354402 z m -1.048071,-2.847282 c 1.210137,-0.09545 2.582289,-0.367542 2.582289,-0.512058 0,-0.148485 -1.737862,-0.460341 -2.988521,-0.536281 l -0.591311,-0.03587 v 0.188073 c 0,0.450471 -0.334638,0.730296 -0.69489,0.581077 C 23.610334,22.842195 23.4886,22.626482 23.4886,22.346528 v -0.188073 l -0.591311,0.03587 c -1.250664,0.07594 -2.98852,0.387796 -2.98852,0.536281 0,0.06871 0.579854,0.236579 1.214581,0.35162 1.148232,0.208106 2.947026,0.273911 4.385604,0.160438 z M 24,44 c -2.733333,0 -5.316667,-0.525 -7.75,-1.575 -2.433333,-1.05 -4.558333,-2.483333 -6.375,-4.3 C 8.0583333,36.308333 6.625,34.183333 5.575,31.75 4.525,29.316667 4,26.716667 4,23.95 4,21.216667 4.525,18.633333 5.575,16.2 6.625,13.766667 8.0583333,11.65 9.875,9.85 11.691667,8.05 13.816667,6.625 16.25,5.575 18.683333,4.525 21.283333,4 24.05,4 c 2.733333,0 5.316667,0.525 7.75,1.575 2.433333,1.05 4.55,2.475 6.35,4.275 1.8,1.8 3.225,3.916667 4.275,6.35 1.05,2.433333 1.575,5.033333 1.575,7.8 0,2.733333 -0.525,5.316667 -1.575,7.75 -1.05,2.433333 -2.475,4.558333 -4.275,6.375 -1.8,1.816667 -3.916667,3.25 -6.35,4.3 C 29.366667,43.475 26.766667,44 24,44 Z m 0.05,-3 c 4.7,0 8.7,-1.658333 12,-4.975 3.3,-3.316667 4.95,-7.341667 4.95,-12.075 0,-4.7 -1.65,-8.7 -4.95,-12 C 32.75,8.65 28.733333,7 24,7 19.3,7 15.291667,8.65 11.975,11.95 8.6583333,15.25 7,19.266667 7,24 7,28.7 8.6583333,32.708333 11.975,36.025 15.291667,39.341667 19.316667,41 24.05,41 Z" /></svg>
