<?xml version="1.0" encoding="UTF-8" standalone="no"?>
<svg
   height="48"
   width="48"
   version="1.1"
   id="svg4"
   sodipodi:docname="kick.svg"
   xml:space="preserve"
   inkscape:version="1.2.1 (9c6d41e410, 2022-07-14)"
   xmlns:inkscape="http://www.inkscape.org/namespaces/inkscape"
   xmlns:sodipodi="http://sodipodi.sourceforge.net/DTD/sodipodi-0.dtd"
   xmlns="http://www.w3.org/2000/svg"
   xmlns:svg="http://www.w3.org/2000/svg"><defs
     id="defs8" /><sodipodi:namedview
     id="namedview6"
     pagecolor="#ffffff"
     bordercolor="#666666"
     borderopacity="1.0"
     inkscape:showpageshadow="2"
     inkscape:pageopacity="0.0"
     inkscape:pagecheckerboard="0"
     inkscape:deskcolor="#d1d1d1"
     showgrid="false"
     inkscape:zoom="9.7262709"
     inkscape:cx="30.278819"
     inkscape:cy="25.600768"
     inkscape:window-width="1920"
     inkscape:window-height="963"
     inkscape:window-x="0"
     inkscape:window-y="0"
     inkscape:window-maximized="1"
     inkscape:current-layer="svg4" /><path
     id="path5447"
     style="fill:#000000;stroke-width:0.0904961"
     d="m 20.59375,4.3066406 c -0.553158,0 -0.607171,0.01899 -0.855469,0.296875 -0.253947,0.2842192 -0.311236,0.303098 -1.349609,0.4316406 -1.220783,0.1511373 -2.102062,0.3233702 -3.03125,0.59375 C 12.956532,6.3275529 10.409264,7.6654379 8.5351562,9.2089844 8.0336675,9.6220159 7.904652,9.6845044 7.578125,9.6777344 6.8093857,9.662308 6.3207968,10.129814 6.2949219,10.90625 c -0.013561,0.407244 -0.066062,0.520098 -0.4882813,1.033203 -2.3095275,2.806688 -3.8714943,6.602083 -4.2089844,10.232422 -0.054745,0.588861 -0.092833,0.699208 -0.3203124,0.890625 -0.55027748,0.463029 -0.55027748,1.394403 0,1.857422 0.2275248,0.191416 0.2656125,0.29981 0.3203124,0.888672 0.3406883,3.664742 1.8605971,7.371098 4.1933594,10.226562 0.4344735,0.531744 0.4906683,0.648379 0.5039063,1.046875 0.025507,0.765957 0.5184354,1.235942 1.2792969,1.220703 0.3144238,-0.0063 0.4496048,0.05731 0.8652343,0.402344 2.8942289,2.402608 6.3695219,3.855705 10.2499999,4.285156 0.699743,0.07744 0.822997,0.118538 0.986328,0.326172 0.102551,0.130376 0.271853,0.27315 0.376953,0.31836 0.105117,0.04486 0.407012,0.069 0.669922,0.05273 0.392258,-0.02421 0.530927,-0.08135 0.773438,-0.316406 l 0.294922,-0.285156 H 24 26.208984 l 0.302735,0.292968 c 0.279366,0.270825 0.350764,0.294922 0.894531,0.294922 0.55317,0 0.607182,-0.01899 0.855469,-0.296875 0.253959,-0.284219 0.311224,-0.303082 1.349609,-0.431641 1.220771,-0.151136 2.102063,-0.323368 3.03125,-0.59375 2.400902,-0.698645 4.948169,-2.034591 6.822266,-3.578124 0.501487,-0.413043 0.630514,-0.477504 0.957031,-0.470704 0.768737,0.01543 1.257333,-0.452081 1.283203,-1.228515 0.01358,-0.407233 0.06606,-0.520108 0.488281,-1.033203 2.309527,-2.806699 3.871495,-6.602083 4.208985,-10.232422 0.05475,-0.588862 0.09283,-0.697256 0.320312,-0.888672 0.550277,-0.463019 0.550277,-1.394393 0,-1.857422 C 46.49513,22.871083 46.457044,22.760736 46.402344,22.171875 46.064854,18.541536 44.502886,14.746141 42.193359,11.939453 41.771118,11.426348 41.718628,11.313494 41.705078,10.90625 41.67922,10.129814 41.190612,9.6622494 40.421875,9.6777344 40.095358,9.6842901 39.966331,9.6220141 39.464844,9.2089844 37.590747,7.6654379 35.04348,6.3275529 32.642578,5.6289062 31.713391,5.3585264 30.832099,5.1862951 29.611328,5.0351562 28.572943,4.9066105 28.515678,4.887741 28.261719,4.6035156 28.013432,4.3255761 27.95942,4.3066406 27.40625,4.3066406 c -0.543767,0 -0.615165,0.024145 -0.894531,0.2949219 L 26.208984,4.8964844 H 24 21.791016 L 21.488281,4.6015625 C 21.208905,4.3307205 21.137519,4.3066406 20.59375,4.3066406 Z m 7.794922,2.078125 c 0.199089,0.023181 0.62765,0.06655 0.951172,0.095703 0.947564,0.085531 2.748751,0.4837321 3.740234,0.8261718 1.261718,0.4357584 2.913487,1.2528384 3.996094,1.9765625 0.497725,0.3327318 0.944947,0.641846 0.992187,0.6875 0.05227,0.05041 -0.605581,0.080672 -1.675781,0.076172 -1.606891,-0.0068 -1.785341,-0.02459 -2.058594,-0.1933594 C 34.145429,9.7370268 33.891358,9.6732744 33.646484,9.6777344 33.305086,9.6845949 33.186134,9.6256934 32.673828,9.203125 31.731531,8.4258751 30.509412,7.6334132 29.226562,6.9667969 28.21416,6.440754 28.08295,6.3491627 28.388672,6.3847656 Z m -7.783203,0.011719 c 4.875138,0 9.287978,1.8760615 12.673828,5.3886716 3.219153,3.339663 4.927734,7.571784 4.927734,12.205078 0,4.633295 -1.708581,8.865416 -4.927734,12.205078 -2.689363,2.790061 -5.939142,4.501742 -9.822266,5.173829 -2.335214,0.404182 -4.788578,0.293196 -7.261719,-0.328125 C 9.3911958,39.331641 4.2514646,33.616859 3.1835938,26.570312 2.341948,21.016578 4.2725773,15.317717 8.3222656,11.398438 11.737593,8.0930778 15.903177,6.3964844 20.605469,6.3964844 Z m 0,1.2070312 c -2.268387,0 -4.536281,0.4702886 -6.671875,1.4101563 -2.868497,1.2624291 -5.5532809,3.5960851 -7.2089846,6.2656251 -1.6944914,2.732086 -2.4882813,5.507506 -2.4882813,8.710937 0,3.203431 0.7937899,5.978853 2.4882813,8.710938 2.4320485,3.921267 6.6295976,6.712621 11.2539066,7.482422 1.432822,0.238055 3.692924,0.242253 5.154296,0.0078 3.53578,-0.56723 6.745028,-2.233334 9.201172,-4.773437 1.330645,-1.376135 2.137677,-2.50846 2.964844,-4.164063 1.152544,-2.306872 1.677734,-4.582749 1.677734,-7.263672 10e-7,-1.597692 -0.104386,-2.496167 -0.457031,-3.935546 C 36.106942,18.37065 35.367083,16.640656 34.4375,15.1875 32.732476,12.522152 30.108238,10.258686 27.279297,9.0136719 25.143708,8.0738042 22.873856,7.6035156 20.605469,7.6035156 Z M 20.09375,9.0664062 c 3.440337,-0.1166317 6.890882,0.9747008 9.744141,3.2070318 1.296615,1.014447 2.643886,2.516315 3.46875,3.865234 1.490506,2.437485 2.205078,4.982558 2.205078,7.851562 0,1.446567 -0.103613,2.322614 -0.429688,3.619141 -1.080291,4.295442 -3.918873,7.803091 -7.912109,9.777344 -1.55521,0.768896 -3.160483,1.23784 -4.9375,1.441406 C 18.393725,39.267873 14.51251,38.15404 11.375,35.710938 8.8897445,33.775744 6.9486255,30.808233 6.1621094,27.746094 5.5389368,25.3199 5.5389368,22.660581 6.1621094,20.234375 7.2287596,16.081593 10.13409,12.525338 14.041016,10.59375 15.967914,9.6410881 18.029548,9.1363853 20.09375,9.0664062 Z m 17.378906,2.4355468 h 2.34375 l 0.544922,0.582031 c 2.557599,2.734076 4.292815,6.663883 4.587891,10.390625 l 0.0625,0.792969 -2.429688,-0.0039 c -2.40993,-0.0028 -2.429541,-0.0046 -2.666015,-0.212891 -0.20199,-0.177989 -0.248232,-0.311416 -0.300782,-0.878906 -0.327554,-3.537564 -1.817753,-7.249239 -3.998046,-9.962891 -0.267792,-0.333309 -0.486329,-0.62867 -0.486329,-0.65625 0,-0.02758 1.05341,-0.05078 2.341797,-0.05078 z m 7.539063,13.212891 -0.0625,0.791015 c -0.295076,3.726744 -2.030292,7.656552 -4.587891,10.390625 l -0.544922,0.582032 h -2.34375 c -1.288388,0 -2.341797,-0.02125 -2.341797,-0.04883 0,-0.02754 0.218537,-0.322942 0.486329,-0.65625 2.180292,-2.713664 3.67049,-6.425314 3.998046,-9.962891 0.05254,-0.567479 0.09876,-0.702871 0.300782,-0.880859 0.236475,-0.208345 0.256084,-0.209491 2.666015,-0.212891 z m -18.962891,3.748047 c -1.423149,0.01027 -2.803846,0.861475 -3.417969,2.173828 -1.021433,2.182768 0.07175,4.610849 2.410157,5.353515 0.479426,0.152714 1.428169,0.154045 1.990234,0.0039 0.692362,-0.184941 1.208133,-0.483535 1.726562,-1.001953 2.211519,-2.21153 0.997573,-5.961634 -2.097656,-6.480469 -0.202939,-0.03402 -0.408021,-0.05029 -0.611328,-0.04883 z m 0.04297,1.488281 c 0.950345,0.0046 1.707151,0.506395 2.128906,1.412109 0.562789,1.208543 -0.10305,2.725355 -1.390625,3.164063 -0.955905,0.325714 -1.844137,0.07178 -2.546875,-0.726563 -0.420864,-0.478127 -0.555034,-0.859238 -0.552734,-1.576172 0.0038,-1.281334 1.041939,-2.280237 2.361328,-2.273437 z m 9.390625,7.986328 c 0.243991,-4.28e-4 0.554583,0.0037 0.958984,0.0098 l 1.71875,0.02539 -0.99414,0.664063 c -1.165009,0.779101 -2.792452,1.590367 -4.085938,2.037109 -0.991483,0.342429 -2.79267,0.740622 -3.740234,0.826172 -0.323522,0.02928 -0.752083,0.07253 -0.951172,0.0957 -0.305722,0.03559 -0.174512,-0.05596 0.83789,-0.582031 1.28285,-0.666618 2.504969,-1.45908 3.447266,-2.236328 0.509988,-0.420682 0.630945,-0.48141 0.966797,-0.47461 0.237471,0.0048 0.518569,-0.06687 0.734375,-0.1875 0.246472,-0.137743 0.375449,-0.17645 1.107422,-0.177734 z" /></svg>
