<?xml version="1.0" encoding="UTF-8" standalone="no"?>
<svg
   height="48"
   width="48"
   version="1.1"
   id="svg4"
   sodipodi:docname="kick_circle.svg"
   xml:space="preserve"
   inkscape:version="1.2.1 (9c6d41e410, 2022-07-14)"
   xmlns:inkscape="http://www.inkscape.org/namespaces/inkscape"
   xmlns:sodipodi="http://sodipodi.sourceforge.net/DTD/sodipodi-0.dtd"
   xmlns="http://www.w3.org/2000/svg"
   xmlns:svg="http://www.w3.org/2000/svg"><defs
     id="defs8" /><sodipodi:namedview
     id="namedview6"
     pagecolor="#ffffff"
     bordercolor="#666666"
     borderopacity="1.0"
     inkscape:showpageshadow="2"
     inkscape:pageopacity="0.0"
     inkscape:pagecheckerboard="0"
     inkscape:deskcolor="#d1d1d1"
     showgrid="false"
     inkscape:zoom="15.530258"
     inkscape:cx="26.947395"
     inkscape:cy="26.97959"
     inkscape:window-width="1920"
     inkscape:window-height="963"
     inkscape:window-x="0"
     inkscape:window-y="0"
     inkscape:window-maximized="1"
     inkscape:current-layer="svg4" /><path
     id="path2"
     d="M 24.050781 4 C 21.284117 4 18.683331 4.5242198 16.25 5.5742188 C 13.816669 6.6242177 11.691665 8.0496112 9.875 9.8496094 C 8.0583351 11.649608 6.6242177 13.765888 5.5742188 16.199219 C 4.5242198 18.632549 4 21.215888 4 23.949219 C 4 26.715883 4.5242198 29.316669 5.5742188 31.75 C 6.6242177 34.183331 8.0583351 36.308335 9.875 38.125 C 11.691665 39.941665 13.816669 41.375782 16.25 42.425781 C 18.683331 43.47578 21.26667 44 24 44 C 26.766664 44 29.367451 43.47578 31.800781 42.425781 C 34.234112 41.375782 36.350392 39.941665 38.150391 38.125 C 39.950389 36.308335 41.375782 34.183331 42.425781 31.75 C 43.47578 29.316669 44 26.73333 44 24 C 44 21.233336 43.47578 18.632549 42.425781 16.199219 C 41.375782 13.765888 39.950389 11.649608 38.150391 9.8496094 C 36.350392 8.0496112 34.234112 6.6242177 31.800781 5.5742188 C 29.367451 4.5242198 26.784112 4 24.050781 4 z M 24 7 C 28.733328 7 32.750785 8.6492221 36.050781 11.949219 C 39.350778 15.249215 41 19.249223 41 23.949219 C 41 28.682547 39.350778 32.708727 36.050781 36.025391 C 32.750785 39.342054 28.750777 41 24.050781 41 C 19.317453 41 15.291273 39.342054 11.974609 36.025391 C 8.657946 32.708727 7 28.699995 7 24 C 7 19.266672 8.657946 15.249215 11.974609 11.949219 C 15.291273 8.6492221 19.300005 7 24 7 z M 21.787109 11.207031 C 21.427741 11.207031 21.39178 11.217905 21.230469 11.398438 C 21.065487 11.583085 21.030065 11.596178 20.355469 11.679688 C 19.562367 11.777876 18.988428 11.888796 18.384766 12.064453 C 16.824987 12.518341 15.170671 13.387834 13.953125 14.390625 C 13.627324 14.658958 13.544165 14.699712 13.332031 14.695312 C 12.832607 14.685291 12.514857 14.989716 12.498047 15.494141 C 12.489237 15.758713 12.453989 15.830715 12.179688 16.164062 C 10.679264 17.987475 9.6645686 20.453988 9.4453125 22.8125 C 9.4097463 23.195064 9.3841142 23.266268 9.2363281 23.390625 C 8.8788311 23.69144 8.8788311 24.296849 9.2363281 24.597656 C 9.3841437 24.722013 9.4097755 24.791265 9.4453125 25.173828 C 9.6666464 27.55469 10.654403 29.963259 12.169922 31.818359 C 12.452185 32.163816 12.489447 32.24111 12.498047 32.5 C 12.514618 32.997618 12.833818 33.302869 13.328125 33.292969 C 13.532396 33.288872 13.620604 33.328581 13.890625 33.552734 C 15.77091 35.113629 18.029763 36.05889 20.550781 36.337891 C 21.005381 36.388201 21.085295 36.413935 21.191406 36.548828 C 21.25803 36.633529 21.367267 36.726489 21.435547 36.755859 C 21.503838 36.784969 21.700289 36.801586 21.871094 36.791016 C 22.12593 36.775289 22.215496 36.738643 22.373047 36.585938 L 22.564453 36.398438 L 24 36.398438 L 25.435547 36.398438 L 25.632812 36.589844 C 25.814307 36.765791 25.859623 36.78125 26.212891 36.78125 C 26.572267 36.78125 26.608227 36.768423 26.769531 36.587891 C 26.93452 36.403243 26.969927 36.392114 27.644531 36.308594 C 28.437625 36.210405 29.011572 36.097533 29.615234 35.921875 C 31.175021 35.467988 32.829336 34.600439 34.046875 33.597656 C 34.372675 33.329315 34.455842 33.288569 34.667969 33.292969 C 35.167392 33.302992 35.485143 32.998564 35.501953 32.494141 C 35.510772 32.229575 35.546012 32.155606 35.820312 31.822266 C 37.320736 29.998846 38.335432 27.53234 38.554688 25.173828 C 38.590253 24.791265 38.615885 24.722013 38.763672 24.597656 C 39.121169 24.296849 39.121169 23.69144 38.763672 23.390625 C 38.615858 23.266268 38.590227 23.195064 38.554688 22.8125 C 38.335432 20.453988 37.320736 17.987475 35.820312 16.164062 C 35.545997 15.830715 35.510753 15.758713 35.501953 15.494141 C 35.485154 14.989716 35.167392 14.685253 34.667969 14.695312 C 34.455842 14.699571 34.372675 14.658957 34.046875 14.390625 C 32.829336 13.387834 31.175021 12.518341 29.615234 12.064453 C 29.011572 11.888796 28.437625 11.777877 27.644531 11.679688 C 26.969927 11.596176 26.93452 11.583089 26.769531 11.398438 C 26.608227 11.21787 26.572267 11.207031 26.212891 11.207031 C 25.859623 11.207031 25.814307 11.222523 25.632812 11.398438 L 25.435547 11.587891 L 24 11.587891 L 22.564453 11.587891 L 22.367188 11.398438 C 22.185686 11.222481 22.140378 11.207031 21.787109 11.207031 z M 26.759766 12.556641 C 26.769498 12.549053 26.801908 12.550858 26.851562 12.556641 C 26.980904 12.571701 27.258569 12.600201 27.46875 12.619141 C 28.084351 12.674708 29.256257 12.931825 29.900391 13.154297 C 30.720087 13.437395 31.792759 13.969274 32.496094 14.439453 C 32.819449 14.655618 33.107982 14.857059 33.138672 14.886719 C 33.172631 14.919469 32.746055 14.938447 32.050781 14.935547 C 31.006837 14.931105 30.890413 14.92019 30.712891 14.810547 C 30.590392 14.734868 30.426664 14.692413 30.267578 14.695312 C 30.045782 14.699769 29.967593 14.661247 29.634766 14.386719 C 29.022586 13.881765 28.227956 13.366672 27.394531 12.933594 C 26.901238 12.677279 26.730567 12.579403 26.759766 12.556641 z M 21.794922 12.564453 C 24.962138 12.564453 27.827669 13.782426 30.027344 16.064453 C 32.118721 18.234121 33.230469 20.984043 33.230469 23.994141 C 33.230469 27.004239 32.118721 29.75416 30.027344 31.923828 C 28.280153 33.736438 26.169222 34.848524 23.646484 35.285156 C 22.129373 35.54774 20.536405 35.473964 18.929688 35.070312 C 14.509278 33.959789 11.170323 30.24783 10.476562 25.669922 C 9.9297731 22.061844 11.183505 18.360679 13.814453 15.814453 C 16.033278 13.66707 18.739999 12.564453 21.794922 12.564453 z M 21.794922 13.347656 C 20.321226 13.347656 18.848363 13.653071 17.460938 14.263672 C 15.59737 15.08383 13.851047 16.601625 12.775391 18.335938 C 11.674536 20.110883 11.160156 21.912977 11.160156 23.994141 C 11.160156 26.075304 11.674536 27.877399 12.775391 29.652344 C 14.355412 32.199861 17.083631 34.013557 20.087891 34.513672 C 21.018749 34.668311 22.486142 34.669887 23.435547 34.517578 C 25.732626 34.149067 27.818387 33.06819 29.414062 31.417969 C 30.278539 30.52394 30.80246 29.788481 31.339844 28.712891 C 32.088613 27.214192 32.429688 25.735847 32.429688 23.994141 C 32.429688 22.956173 32.361914 22.370664 32.132812 21.435547 C 31.864767 20.341484 31.385169 19.219458 30.78125 18.275391 C 29.673552 16.543802 27.968729 15.072516 26.130859 14.263672 C 24.743438 13.653071 23.268618 13.347656 21.794922 13.347656 z M 21.462891 14.298828 C 23.697964 14.223056 25.939301 14.930588 27.792969 16.380859 C 28.635337 17.039913 29.510989 18.01623 30.046875 18.892578 C 31.015208 20.476132 31.478516 22.130243 31.478516 23.994141 C 31.478516 24.933927 31.411059 25.503393 31.199219 26.345703 C 30.497389 29.136309 28.65482 31.414659 26.060547 32.697266 C 25.050179 33.196792 24.006031 33.500563 22.851562 33.632812 C 20.357688 33.918502 17.837164 33.194624 15.798828 31.607422 C 14.18424 30.350191 12.92113 28.422964 12.410156 26.433594 C 12.005302 24.857376 12.005302 23.130913 12.410156 21.554688 C 13.103124 18.856763 14.99305 16.545904 17.53125 15.291016 C 18.783092 14.672103 20.121847 14.344291 21.462891 14.298828 z M 32.753906 15.880859 L 34.275391 15.880859 L 34.628906 16.259766 C 36.290494 18.036003 37.417674 20.588624 37.609375 23.009766 L 37.650391 23.523438 L 36.072266 23.521484 C 34.506613 23.519633 34.493474 23.51816 34.339844 23.382812 C 34.208616 23.267179 34.178671 23.18118 34.144531 22.8125 C 33.931729 20.514261 32.96334 18.102813 31.546875 16.339844 C 31.372899 16.123304 31.232422 15.930029 31.232422 15.912109 C 31.232422 15.894189 31.916883 15.880859 32.753906 15.880859 z M 37.650391 24.464844 L 37.609375 24.978516 C 37.417674 27.399657 36.290494 29.952278 34.628906 31.728516 L 34.275391 32.107422 L 32.753906 32.107422 C 31.916883 32.107422 31.232422 32.092139 31.232422 32.074219 C 31.232422 32.056326 31.372899 31.864977 31.546875 31.648438 C 32.963339 29.88546 33.931728 27.474028 34.144531 25.175781 C 34.178665 24.80711 34.2086 24.721103 34.339844 24.605469 C 34.493475 24.470091 34.506613 24.468997 36.072266 24.466797 L 37.650391 24.464844 z M 25.332031 26.898438 C 24.407459 26.905109 23.510303 27.459908 23.111328 28.3125 C 22.447737 29.730572 23.156598 31.306577 24.675781 31.789062 C 24.987249 31.888252 25.603594 31.890509 25.96875 31.792969 C 26.418555 31.672819 26.753037 31.477425 27.089844 31.140625 C 28.526594 29.703867 27.739384 27.266758 25.728516 26.929688 C 25.596673 26.907588 25.464113 26.897484 25.332031 26.898438 z M 25.359375 27.867188 C 25.976782 27.870146 26.468187 28.194791 26.742188 28.783203 C 27.107812 29.568353 26.674385 30.552877 25.837891 30.837891 C 25.21687 31.049496 24.640139 30.885848 24.183594 30.367188 C 23.910172 30.056564 23.824672 29.809518 23.826172 29.34375 C 23.828647 28.511309 24.502212 27.862788 25.359375 27.867188 z M 31.460938 33.054688 C 31.61945 33.054409 31.821258 33.056637 32.083984 33.060547 L 33.199219 33.078125 L 32.552734 33.509766 C 31.795867 34.015922 30.740726 34.541798 29.900391 34.832031 C 29.256257 35.054496 28.084351 35.313561 27.46875 35.369141 C 27.258569 35.388161 26.980904 35.416591 26.851562 35.431641 C 26.652946 35.454762 26.736807 35.394504 27.394531 35.052734 C 28.227956 34.619655 29.022586 34.104562 29.634766 33.599609 C 29.966087 33.326308 30.04548 33.288569 30.263672 33.292969 C 30.417949 33.29606 30.600033 33.248292 30.740234 33.169922 C 30.900359 33.080436 30.985399 33.055522 31.460938 33.054688 z " /></svg>
