<?xml version="1.0" encoding="UTF-8" standalone="no"?>
<svg
   height="48"
   width="48"
   version="1.1"
   id="svg4"
   sodipodi:docname="snare_circle.svg"
   xml:space="preserve"
   inkscape:version="1.2.1 (9c6d41e410, 2022-07-14)"
   xmlns:inkscape="http://www.inkscape.org/namespaces/inkscape"
   xmlns:sodipodi="http://sodipodi.sourceforge.net/DTD/sodipodi-0.dtd"
   xmlns="http://www.w3.org/2000/svg"
   xmlns:svg="http://www.w3.org/2000/svg"><defs
     id="defs8" /><sodipodi:namedview
     id="namedview6"
     pagecolor="#ffffff"
     bordercolor="#666666"
     borderopacity="1.0"
     inkscape:showpageshadow="2"
     inkscape:pageopacity="0.0"
     inkscape:pagecheckerboard="0"
     inkscape:deskcolor="#d1d1d1"
     showgrid="false"
     inkscape:zoom="14.789509"
     inkscape:cx="22.684999"
     inkscape:cy="21.163651"
     inkscape:window-width="1920"
     inkscape:window-height="963"
     inkscape:window-x="0"
     inkscape:window-y="0"
     inkscape:window-maximized="1"
     inkscape:current-layer="svg4" /><path
     id="path2"
     d="M 24.050781 4 C 21.284117 4 18.683331 4.5242198 16.25 5.5742188 C 13.816669 6.6242177 11.691665 8.0496112 9.875 9.8496094 C 8.0583351 11.649608 6.6242177 13.765888 5.5742188 16.199219 C 4.5242198 18.632549 4 21.215888 4 23.949219 C 4 26.715883 4.5242198 29.316669 5.5742188 31.75 C 6.6242177 34.183331 8.0583351 36.308335 9.875 38.125 C 11.691665 39.941665 13.816669 41.375782 16.25 42.425781 C 18.683331 43.47578 21.26667 44 24 44 C 26.766664 44 29.367451 43.47578 31.800781 42.425781 C 34.234112 41.375782 36.350392 39.941665 38.150391 38.125 C 39.950389 36.308335 41.375782 34.183331 42.425781 31.75 C 43.47578 29.316669 44 26.73333 44 24 C 44 21.233336 43.47578 18.632549 42.425781 16.199219 C 41.375782 13.765888 39.950389 11.649608 38.150391 9.8496094 C 36.350392 8.0496112 34.234112 6.6242177 31.800781 5.5742188 C 29.367451 4.5242198 26.784112 4 24.050781 4 z M 24 7 C 28.733328 7 32.750785 8.6492221 36.050781 11.949219 C 39.350778 15.249215 41 19.249223 41 23.949219 C 41 28.682547 39.350778 32.708727 36.050781 36.025391 C 32.750785 39.342054 28.750777 41 24.050781 41 C 19.317453 41 15.291273 39.342054 11.974609 36.025391 C 8.657946 32.708727 7 28.699995 7 24 C 7 19.266672 8.657946 15.249215 11.974609 11.949219 C 15.291273 8.6492221 19.300005 7 24 7 z M 24.4375 11.972656 C 23.048116 11.954081 21.655691 12.014074 20.347656 12.15625 C 16.834761 12.538084 13.940415 13.404505 12.078125 14.630859 C 11.48787 15.030079 10.608957 15.764272 10.171875 16.720703 C 9.9876642 17.198354 9.999022 16.7583 10 24.001953 C 10.00066 28.193908 10.011137 30.675286 10.029297 30.787109 C 10.095734 31.195985 10.329038 31.702112 10.638672 32.107422 C 10.858806 32.39558 11.338602 32.859427 11.6875 33.119141 C 12.284018 33.56317 13.238947 34.07272 14.132812 34.425781 C 16.293547 35.279219 19.115985 35.833336 22.066406 35.982422 C 22.402636 35.999382 22.755443 36.018038 22.851562 36.023438 C 23.181692 36.043227 25.560024 36.013735 25.980469 35.984375 C 26.473733 35.945905 31.057228 35.512081 33.609375 34.53125 C 33.94031 34.410717 34.568897 34.136065 34.949219 33.945312 C 36.579012 33.127876 37.561483 32.165741 37.927734 31.033203 L 37.990234 30.84375 L 37.998047 24.119141 C 38.006691 16.750159 38.015619 17.198708 37.832031 16.722656 C 37.549441 15.98986 36.916802 15.290329 35.966797 14.660156 C 35.128811 14.104293 34.148019 13.644263 32.939453 13.244141 C 32.249009 13.015558 31.845173 12.904905 30.958984 12.697266 C 29.061113 12.252561 26.75314 12.003615 24.4375 11.972656 z M 24.03125 12.857422 C 25.444607 12.858346 26.150348 12.888188 27.320312 13 C 31.438066 13.393511 34.87529 14.577763 36.373047 16.117188 C 36.900856 16.659687 37.1462 17.166421 37.125 17.671875 L 37.117188 17.888672 L 36.960938 17.671875 C 36.663276 17.257312 35.825586 16.501391 35.421875 16.283203 C 33.809469 15.326348 32.227565 14.783649 30.392578 14.369141 C 27.553719 13.75952 25.736384 13.709908 22.955078 13.736328 C 21.925153 13.773961 20.365754 13.881231 19.082031 14.091797 C 17.722944 14.309886 16.602414 14.580403 15.429688 14.96875 C 14.406091 15.309264 12.575956 16.146475 11.130859 17.564453 C 11.015002 17.711886 10.909644 17.844155 10.896484 17.859375 C 10.883544 17.874587 10.873047 17.78359 10.873047 17.65625 C 10.873047 17.269187 11.020769 16.870951 11.310547 16.478516 C 12.080825 15.614574 11.988621 15.795045 12.509766 15.394531 C 14.372534 14.153551 17.529401 13.256171 21.021484 12.972656 C 22.252384 12.872698 22.665128 12.856541 24.03125 12.857422 z M 24.015625 14.585938 C 24.607125 14.58908 25.190452 14.60746 25.759766 14.640625 C 27.182506 14.718305 31.738683 15.28859 34.410156 16.705078 C 34.575074 16.797676 34.571101 16.803727 35.142578 17.148438 C 35.176177 17.148438 35.604384 17.508556 35.832031 17.728516 C 36.230066 18.113122 36.551233 18.591267 36.595703 18.865234 C 36.611644 18.963509 36.60038 18.977925 36.310547 19.259766 C 35.849163 19.708416 35.350606 20.056257 34.636719 20.425781 C 32.43361 21.566148 29.076907 22.301551 25.443359 22.441406 C 21.032064 22.611184 16.839735 21.979699 13.960938 20.710938 C 12.902959 20.244661 11.934549 19.601328 11.5 19.076172 L 11.373047 18.923828 C 11.557199 18.517383 11.360823 18.943701 11.601562 18.433594 C 11.601562 18.373986 11.948131 17.940709 12.15625 17.740234 C 12.426717 17.479685 12.574618 17.355393 12.855469 17.158203 C 15.361163 15.302468 19.875127 14.563938 24.015625 14.585938 z M 37.138672 19.695312 L 37.126953 20.017578 C 37.116242 20.330539 37.112173 20.348432 36.988281 20.599609 C 36.87873 20.821711 36.817122 20.903573 36.552734 21.166016 C 36.176001 21.539965 35.723909 21.848218 35.074219 22.175781 C 32.851081 23.296652 29.490938 24.009703 25.587891 24.189453 C 24.943528 24.218823 23.040527 24.220546 22.445312 24.191406 C 20.796045 24.110649 19.642491 23.992249 18.203125 23.755859 C 15.217604 23.265542 12.658541 22.302638 11.529297 21.246094 C 11.047927 20.795725 10.874147 20.461165 10.873047 19.974609 L 10.873047 19.701172 L 11.142578 19.960938 C 12.892882 21.650176 16.749718 22.895439 21.306641 23.244141 C 23.51312 23.412984 26.002378 23.365796 28.0625 23.113281 C 32.124833 22.615341 35.27319 21.476147 36.908203 19.914062 L 37.138672 19.695312 z M 10.886719 21.851562 L 11.044922 21.992188 C 11.376314 22.286522 11.919274 22.646307 12.410156 22.896484 L 12.619141 23.001953 L 12.619141 24.074219 L 12.619141 25.146484 L 12.535156 25.179688 C 12.489226 25.198748 12.412641 25.257594 12.363281 25.308594 C 12.209194 25.467771 12.183594 25.571867 12.183594 26.03125 C 12.184083 26.507542 12.186894 26.618591 12.183594 27.398438 C 12.183704 27.970122 12.194944 28.353911 12.214844 28.425781 C 12.236548 28.50394 12.306722 28.599691 12.433594 28.726562 L 12.619141 28.914062 L 12.619141 29.785156 C 12.619141 30.264003 12.608973 30.654297 12.595703 30.654297 C 12.543749 30.654297 12.008128 30.185188 11.753906 29.916016 C 11.563217 29.719042 11.52651 29.671672 11.349609 29.416016 C 11.172927 29.163272 11.027089 28.837768 10.943359 28.507812 C 10.873621 28.233018 10.873047 28.222393 10.873047 26.701172 C 10.873047 24.770227 10.869106 25.316471 10.878906 23.494141 L 10.886719 21.851562 z M 37.117188 21.853516 L 37.125 23.507812 C 37.1282 24.414477 37.140659 25.11361 37.130859 26.716797 L 37.130859 28.230469 L 37.058594 28.517578 C 36.880443 29.219907 36.370491 29.920048 35.601562 30.517578 C 35.504448 30.592955 35.415277 30.654297 35.404297 30.654297 C 35.392987 30.654297 35.384766 30.258699 35.384766 29.773438 L 35.384766 28.890625 L 35.498047 28.804688 C 35.560711 28.757584 35.655594 28.654352 35.708984 28.576172 L 35.806641 28.435547 L 35.816406 27.048828 C 35.822496 26.055644 35.815486 25.627462 35.791016 25.539062 C 35.755286 25.40969 35.566287 25.205699 35.447266 25.167969 C 35.384856 25.148168 35.384766 25.148156 35.384766 24.076172 L 35.384766 23.001953 L 35.566406 22.910156 C 36.038588 22.67058 36.6182 22.291227 36.927734 22.019531 L 37.117188 21.853516 z M 13.505859 23.40625 C 13.513698 23.40625 13.602872 23.437853 13.703125 23.476562 C 14.188561 23.664064 14.397651 23.736241 14.892578 23.886719 C 16.026411 24.231473 17.415159 24.538843 18.59375 24.705078 L 18.964844 24.757812 L 18.964844 25.941406 L 18.964844 27.125 L 18.880859 27.160156 C 18.748812 27.214861 18.597847 27.384439 18.560547 27.519531 C 18.536417 27.606399 18.528656 28.037749 18.535156 29.011719 L 18.542969 30.382812 L 18.630859 30.525391 C 18.679387 30.603855 18.773294 30.707579 18.839844 30.755859 L 18.960938 30.84375 L 18.964844 31.927734 L 18.962891 31.929688 C 18.963871 32.526098 18.955319 33.011966 18.943359 33.009766 C 18.868158 32.997914 18.553543 32.933578 18.033203 32.822266 C 16.404226 32.473781 15.00091 32.001567 13.841797 31.414062 L 13.507812 31.244141 L 13.5 30.111328 L 13.492188 28.976562 L 13.558594 28.945312 C 13.682911 28.888673 13.82128 28.750244 13.875 28.628906 C 13.9242 28.517268 13.927712 28.404768 13.927734 27.160156 C 13.927734 26.199778 13.919321 25.778059 13.894531 25.693359 C 13.871077 25.613308 13.799195 25.515007 13.675781 25.390625 L 13.492188 25.205078 L 13.492188 24.306641 C 13.492188 23.811777 13.498259 23.40625 13.505859 23.40625 z M 34.5 23.40625 C 34.50547 23.40625 34.511719 23.811777 34.511719 24.306641 L 34.511719 25.205078 L 34.328125 25.390625 C 34.204066 25.515703 34.133185 25.614193 34.109375 25.695312 C 34.083605 25.781419 34.073719 26.195688 34.074219 27.166016 C 34.074759 28.413084 34.079536 28.524187 34.128906 28.632812 C 34.182849 28.75155 34.323258 28.889643 34.445312 28.945312 L 34.511719 28.976562 L 34.511719 30.105469 L 34.511719 31.236328 L 34.107422 31.439453 C 32.890342 32.049151 31.294468 32.568232 29.621094 32.898438 L 29.619141 32.898438 C 29.435009 32.934747 29.228226 32.970063 29.160156 32.976562 L 29.037109 32.990234 L 29.039062 31.916016 L 29.041016 30.84375 L 29.162109 30.755859 C 29.228687 30.707526 29.322594 30.603901 29.371094 30.525391 L 29.460938 30.382812 L 29.46875 28.998047 C 29.47592 27.787578 29.470247 27.596794 29.429688 27.490234 C 29.377104 27.352 29.247331 27.211696 29.123047 27.160156 L 29.039062 27.125 L 29.039062 25.941406 L 29.039062 24.757812 L 29.410156 24.705078 C 30.176312 24.59681 31.288225 24.374483 32.138672 24.160156 C 32.765637 24.002143 33.480616 23.78097 34.068359 23.5625 C 34.300302 23.476307 34.4935 23.40625 34.5 23.40625 z M 19.839844 24.863281 L 19.919922 24.876953 C 20.804784 25.016472 21.667895 25.006159 22.5625 25.068359 C 23.413773 25.103159 25.464486 25.085059 26.142578 25.037109 C 26.781808 24.992224 27.442651 24.959813 28.085938 24.876953 L 28.166016 24.863281 L 28.164062 26.035156 L 28.162109 27.205078 L 28.021484 27.3125 C 27.931756 27.380786 27.853837 27.473646 27.804688 27.572266 L 27.728516 27.726562 L 27.728516 29.113281 L 27.728516 30.5 L 27.794922 30.628906 C 27.838438 30.712392 27.915162 30.792072 28.013672 30.857422 L 28.164062 30.957031 L 28.164062 32.041016 L 28.164062 33.123047 L 28.097656 33.140625 C 27.90837 33.188131 26.54176 33.318918 25.792969 33.361328 C 25.241227 33.392538 23.667876 33.416804 23.173828 33.402344 C 22.122776 33.371561 20.285626 33.225758 19.90625 33.142578 L 19.839844 33.128906 L 19.839844 32.042969 L 19.839844 30.958984 L 19.990234 30.857422 C 20.085725 30.79316 20.166364 30.707633 20.208984 30.626953 L 20.277344 30.5 L 20.277344 29.111328 L 20.277344 27.720703 L 20.195312 27.564453 C 20.144208 27.466319 20.062682 27.370691 19.976562 27.306641 L 19.839844 27.205078 L 19.839844 26.035156 L 19.839844 24.863281 z M 10.873047 30.269531 L 11.185547 30.587891 C 11.816785 31.233394 12.458848 31.691281 13.435547 32.191406 C 14.650104 32.813337 16.032717 33.282236 17.787109 33.666016 C 19.911668 34.130759 22.569309 34.352491 25 34.269531 C 26.255528 34.226646 27.808245 34.096707 28.513672 33.974609 C 28.601737 33.959379 28.812354 33.924537 28.980469 33.898438 C 29.473853 33.821878 30.530414 33.606104 31.033203 33.478516 C 33.604151 32.826139 35.552026 31.862439 36.759766 30.648438 L 37.130859 30.275391 L 37.130859 30.414062 C 37.12938 30.889745 36.830578 31.459704 36.3125 31.970703 C 35.007845 33.257536 32.074687 34.361409 28.71875 34.830078 C 27.668709 34.976729 27.365253 35.008098 26.341797 35.080078 C 25.386268 35.146738 23.4952 35.177382 22.632812 35.138672 C 18.68886 34.961467 15.313234 34.196171 13.103516 32.978516 C 11.70126 32.205813 10.875247 31.25483 10.873047 30.410156 L 10.873047 30.269531 z " /></svg>
