<?xml version="1.0" encoding="UTF-8" standalone="no"?>
<svg
   height="48"
   width="48"
   version="1.1"
   id="svg4"
   sodipodi:docname="snare.svg"
   xml:space="preserve"
   inkscape:version="1.2.1 (9c6d41e410, 2022-07-14)"
   xmlns:inkscape="http://www.inkscape.org/namespaces/inkscape"
   xmlns:sodipodi="http://sodipodi.sourceforge.net/DTD/sodipodi-0.dtd"
   xmlns="http://www.w3.org/2000/svg"
   xmlns:svg="http://www.w3.org/2000/svg"><defs
     id="defs8" /><sodipodi:namedview
     id="namedview6"
     pagecolor="#ffffff"
     bordercolor="#666666"
     borderopacity="1.0"
     inkscape:showpageshadow="2"
     inkscape:pageopacity="0.0"
     inkscape:pagecheckerboard="0"
     inkscape:deskcolor="#d1d1d1"
     showgrid="false"
     inkscape:zoom="13.839501"
     inkscape:cx="38.910362"
     inkscape:cy="19.148089"
     inkscape:window-width="1920"
     inkscape:window-height="963"
     inkscape:window-x="0"
     inkscape:window-y="0"
     inkscape:window-maximized="1"
     inkscape:current-layer="svg4" /><path
     id="path239"
     style="fill:#000000;stroke-width:0.0454589"
     d="m 22.207611,42.775284 c -0.150098,-0.0085 -0.702347,-0.03804 -1.227391,-0.06453 C 16.372946,42.477953 11.966779,41.61369 8.5926513,40.280991 7.1968229,39.729662 5.7058561,38.932282 4.7743539,38.2389 4.2295275,37.833341 3.4784671,37.110246 3.1347138,36.660269 2.6512007,36.027351 2.2865631,35.237934 2.1828175,34.599449 2.1544595,34.42483 2.1376571,30.549174 2.1366264,24.003164 2.1350992,12.691731 2.1187934,13.380087 2.4064505,12.634204 3.0889819,11.140674 4.4617351,9.9933251 5.3834573,9.3699178 8.2915444,7.4548851 12.812461,6.1022698 18.298076,5.5060118 23.744958,4.9139653 30.126028,5.239025 34.867867,6.3501212 c 1.383842,0.324243 2.013022,0.4983354 3.091196,0.8552823 1.887254,0.6248175 3.419174,1.3404241 4.727744,2.2084411 1.483495,0.9840554 2.472357,2.0775104 2.91364,3.2218194 0.286684,0.743386 0.271097,0.04398 0.257599,11.551118 l -0.01186,10.501029 -0.09594,0.29643 c -0.571925,1.768532 -2.107786,3.268955 -4.652814,4.545435 -0.593897,0.297873 -1.57566,0.727544 -2.092436,0.915763 -3.985344,1.531632 -11.142095,2.20749 -11.91236,2.267564 -0.656551,0.04585 -4.369203,0.09323 -4.884722,0.06232 z m 5.449278,-1.472272 c 1.598193,-0.112401 2.070991,-0.162154 3.710698,-0.391159 5.240513,-0.731858 9.820925,-2.457142 11.858229,-4.466614 0.809012,-0.797959 1.276444,-1.685673 1.278754,-2.428481 l 6.11e-4,-0.216405 -0.5796,0.582605 c -1.885964,1.895743 -4.929362,3.398952 -8.944063,4.417681 -0.785139,0.199238 -2.434406,0.537235 -3.204858,0.656788 -0.262522,0.04076 -0.589821,0.09355 -0.72734,0.117336 -1.10157,0.190664 -3.527895,0.394792 -5.488483,0.461761 C 21.765155,40.166071 17.615347,39.81837 14.297711,39.092643 11.558114,38.493346 9.3981994,37.76171 7.50159,36.790525 5.9764111,36.009547 4.9755957,35.296502 3.989876,34.288507 l -0.4886741,-0.499728 6.12e-4,0.222195 c 0.00343,1.319013 1.2924562,2.802456 3.4821694,4.009081 3.4506197,1.901449 8.7238367,3.096732 14.8825737,3.373448 1.346674,0.06044 4.29811,0.01358 5.790231,-0.09051 z m -0.857913,-2.685144 c 1.169286,-0.06623 3.305376,-0.271149 3.600958,-0.345332 l 0.103922,-0.02615 v -1.690558 -1.690562 l -0.236515,-0.156892 c -0.15383,-0.102048 -0.272999,-0.226949 -0.340952,-0.357319 l -0.104422,-0.200343 v -2.165958 -2.165956 l 0.11971,-0.240332 c 0.07675,-0.154001 0.198237,-0.300063 0.338353,-0.406697 l 0.218595,-0.1664 0.0034,-1.828588 0.0034,-1.82859 -0.124972,0.02088 c -1.004534,0.129391 -2.036183,0.181461 -3.034382,0.251553 -1.058885,0.07487 -4.26213,0.102048 -5.591448,0.0477 -1.396984,-0.09713 -2.74364,-0.08031 -4.12541,-0.298179 l -0.124972,-0.02191 v 1.828674 1.828673 l 0.213944,0.15893 c 0.134481,0.100018 0.261148,0.249634 0.340952,0.402877 l 0.127001,0.243844 v 2.169693 2.169694 l -0.10528,0.199119 c -0.06655,0.125987 -0.191837,0.257345 -0.340952,0.357694 l -0.235643,0.15859 v 1.694245 1.694247 l 0.10222,0.02241 c 0.59242,0.129891 3.46147,0.358577 5.102756,0.406647 0.771488,0.02258 3.229733,-0.01698 4.091313,-0.06571 z m -10.662913,-2.236746 -0.0034,-1.693345 -0.189034,-0.137199 c -0.103922,-0.07539 -0.25101,-0.237511 -0.32679,-0.360037 l -0.13787,-0.222806 -0.01358,-2.140184 c -0.01015,-1.520917 0.0018,-2.195434 0.03939,-2.331084 0.05825,-0.210955 0.294103,-0.475226 0.500304,-0.560652 l 0.132952,-0.05501 v -1.849182 -1.849186 l -0.579599,-0.08167 C 13.717957,24.841178 11.549352,24.361978 9.7787977,23.82362 9.0059362,23.58864 8.6788902,23.475877 7.9208511,23.183082 7.7642997,23.122629 7.6262372,23.073226 7.6139961,23.073226 c -0.011868,0 -0.022253,0.632253 -0.022253,1.405015 v 1.405032 l 0.286091,0.288313 c 0.1927187,0.19423 0.3038505,0.348899 0.3404754,0.473903 0.038711,0.132265 0.054342,0.790539 0.054342,2.290232 -3.44e-5,1.943541 -0.00671,2.119127 -0.083544,2.293457 -0.083887,0.189477 -0.3002684,0.405933 -0.4943973,0.494379 l -0.1040782,0.04738 0.011867,1.770994 0.011868,1.771011 0.5227693,0.264968 c 1.81003,0.917426 4.0023407,1.653392 6.5460947,2.197574 0.812544,0.17382 1.303172,0.275291 1.420602,0.293799 0.01868,0.0034 0.03277,-0.756631 0.03125,-1.687965 z m 16.640766,1.514007 c 2.613083,-0.515637 5.105849,-1.326229 7.006398,-2.278311 l 0.630707,-0.315957 v -1.765305 -1.76529 l -0.103578,-0.0472 c -0.190597,-0.08693 -0.408683,-0.302902 -0.492919,-0.488318 -0.07709,-0.169627 -0.08355,-0.344908 -0.08438,-2.292286 -7.81e-4,-1.515231 0.01358,-2.161222 0.05382,-2.295683 0.03718,-0.126674 0.147208,-0.28013 0.340935,-0.475448 l 0.286107,-0.288313 v -1.405032 c 0,-0.772762 -0.0085,-1.405015 -0.01698,-1.405015 -0.01015,0 -0.31336,0.1102 -0.675553,0.244795 -0.917799,0.341155 -2.033277,0.686879 -3.012324,0.933626 -1.328029,0.334685 -3.065387,0.681375 -4.26179,0.850443 l -0.579601,0.08185 v 1.84849 1.848471 l 0.13125,0.05434 c 0.194078,0.08048 0.399226,0.300454 0.481339,0.516317 0.06333,0.1664 0.0708,0.463154 0.05961,2.35338 l -0.01358,2.162918 -0.137699,0.222807 c -0.07574,0.122598 -0.222824,0.284561 -0.32679,0.360035 l -0.189017,0.1372 -0.0034,1.675195 -0.0034,1.675195 0.193193,-0.01986 c 0.106296,-0.01015 0.428448,-0.06639 0.715981,-0.123097 z M 6.2287784,33.032737 V 31.673176 L 5.937867,31.382246 C 5.7397483,31.184128 5.6310619,31.034131 5.5971698,30.912081 c -0.031075,-0.11223 -0.049923,-0.71267 -0.050095,-1.605392 0.00515,-1.217781 4.591e-4,-1.392296 -3.045e-4,-2.136057 0,-0.717356 0.040414,-0.879817 0.2810299,-1.128382 0.077078,-0.07964 0.1987292,-0.168948 0.2704519,-0.198712 l 0.1304061,-0.054 V 24.116163 22.442801 L 5.9009858,22.275892 C 5.1344411,21.885224 4.2868853,21.323996 3.7693957,20.864374 l -0.245559,-0.218087 -0.011868,2.562602 c -0.015303,2.845687 -0.01015,1.993497 -0.01015,5.008793 0,2.375487 6.122e-4,2.392586 0.1095124,2.821695 0.1307497,0.515248 0.3581352,1.024246 0.6340369,1.418922 0.2762422,0.399224 0.335263,0.471948 0.633036,0.779535 0.3969838,0.42033 1.232161,1.154566 1.3132905,1.154566 0.020722,0 0.037696,-0.611794 0.037696,-1.359545 z m 35.8870276,1.145395 c 1.200731,-0.933082 1.997927,-2.027199 2.276121,-3.123932 l 0.11326,-0.446667 v -2.365825 c 0.0153,-2.503479 -0.0051,-3.595914 -0.01015,-5.011729 l -0.01187,-2.581076 -0.29548,0.259363 c -0.483359,0.424271 -1.387865,1.015876 -2.125207,1.389988 l -0.28412,0.144164 v 1.676011 c 0,1.673972 0,1.676025 0.09746,1.706946 0.185859,0.05892 0.479302,0.375946 0.535096,0.577971 0.03821,0.138041 0.04941,0.806294 0.0399,2.357215 l -0.01358,2.164497 -0.151628,0.222111 c -0.08337,0.122083 -0.231722,0.282287 -0.329575,0.355843 l -0.177913,0.133795 v 1.377779 c 0,0.757768 0.01358,1.377763 0.03125,1.377763 0.01714,0 0.155189,-0.09644 0.30684,-0.214148 z M 26.48076,24.295877 c 6.094861,-0.280691 11.339602,-1.394182 14.811176,-3.144495 1.014534,-0.511513 1.720294,-0.99387 2.308587,-1.577817 0.412859,-0.409821 0.510322,-0.536116 0.681393,-0.882942 0.193465,-0.392231 0.200155,-0.420313 0.216881,-0.909022 l 0.01732,-0.504296 -0.358626,0.342633 c -2.553184,2.439296 -7.469079,4.216759 -13.812676,4.994326 -3.217014,0.394318 -7.103809,0.470539 -10.549369,0.206879 -7.11593,-0.54452 -13.1404435,-2.491102 -15.8736574,-5.128957 l -0.4204837,-0.40583 9.166e-4,0.427173 c 0.00172,0.759788 0.2708923,1.282541 1.022582,1.98582 1.7633877,1.649862 5.7618225,3.152968 10.4239075,3.918631 2.247663,0.369138 4.047048,0.553895 6.622485,0.680002 0.929467,0.0455 3.90335,0.04415 4.909564,-0.0017 z m -0.227306,-2.728222 c 5.674021,-0.218393 10.916503,-1.368289 14.356801,-3.149045 1.114781,-0.577037 1.894435,-1.119791 2.614915,-1.820388 0.452593,-0.440113 0.469131,-0.46307 0.444239,-0.616532 -0.06944,-0.427818 -0.571756,-1.175516 -1.193313,-1.776105 C 42.120611,13.862104 41.452207,13.29933 41.39974,13.29933 40.507341,12.761042 40.512349,12.752552 40.254819,12.607954 36.083139,10.396015 28.97074,9.5060768 26.749038,9.3847745 19.636876,8.9704543 11.069099,10.004532 6.5973214,13.316362 6.1587548,13.624287 5.926694,13.816956 5.5043426,14.223821 5.1793516,14.536876 4.6377187,15.213752 4.6377187,15.306834 4.2617878,16.103399 4.5703059,15.437756 4.282741,16.072447 l 0.1974221,0.238597 c 0.6785759,0.820066 2.1925319,1.825753 3.8446348,2.553875 4.4954291,1.981253 11.0401311,2.967856 17.9286561,2.702736 z M 3.904638,13.94904 C 6.1612502,11.734775 9.0171592,10.427341 10.615572,9.8956072 12.446861,9.2891787 14.19838,8.8696459 16.320684,8.5290861 18.3253,8.200274 20.759349,8.032584 22.367644,7.9738176 c 4.34319,-0.041257 7.180777,0.036338 11.61384,0.9882995 2.865452,0.647282 5.33611,1.4934619 7.853987,2.9876539 0.63042,0.340714 1.937684,1.520086 2.402501,2.167453 l 0.244541,0.340577 0.01358,-0.340577 C 44.529203,13.327924 44.146959,12.5372 43.32275,11.690052 40.98391,9.2861399 35.615013,7.4380749 29.184872,6.8235825 27.357897,6.648981 26.255068,6.6008599 24.048019,6.599417 21.914731,6.5980409 21.271678,6.6225121 19.349548,6.7786032 13.896433,7.2213299 8.9656105,8.6250879 6.0567769,10.562958 c -0.813801,0.625428 -0.6698466,0.341716 -1.8726862,1.690817 -0.4525067,0.612813 -0.6835322,1.234234 -0.6835322,1.838658 0,0.198849 0.016974,0.342122 0.037181,0.318368 0.02055,-0.02376 0.1852482,-0.231535 0.3661664,-0.461761 z" /></svg>
