<?xml version="1.0" encoding="UTF-8" standalone="no"?>
<!-- Created with Inkscape (http://www.inkscape.org/) -->

<svg
   version="1.1"
   id="svg1"
   width="1920"
   height="1080"
   viewBox="0 0 1920 1080"
   sodipodi:docname="default_album_art.svg"
   inkscape:version="1.3.2 (091e20ef0f, 2023-11-25)"
   inkscape:export-filename="default_album_art.png"
   inkscape:export-xdpi="48"
   inkscape:export-ydpi="48"
   xmlns:inkscape="http://www.inkscape.org/namespaces/inkscape"
   xmlns:sodipodi="http://sodipodi.sourceforge.net/DTD/sodipodi-0.dtd"
   xmlns="http://www.w3.org/2000/svg"
   xmlns:svg="http://www.w3.org/2000/svg">
  <defs
     id="defs1" />
  <sodipodi:namedview
     id="namedview1"
     pagecolor="#ffffff"
     bordercolor="#000000"
     borderopacity="0.25"
     inkscape:showpageshadow="2"
     inkscape:pageopacity="0.0"
     inkscape:pagecheckerboard="0"
     inkscape:deskcolor="#d1d1d1"
     inkscape:zoom="0.23938511"
     inkscape:cx="476.2201"
     inkscape:cy="1129.9784"
     inkscape:window-width="1920"
     inkscape:window-height="1011"
     inkscape:window-x="0"
     inkscape:window-y="0"
     inkscape:window-maximized="1"
     inkscape:current-layer="g1"
     inkscape:export-bgcolor="#ffffff00" />
  <g
     inkscape:groupmode="layer"
     inkscape:label="Image"
     id="g1">
    <path
       style="fill:#999999"
       d="M 954.30926,945.48882 C 932.647,940.46931 917.12333,925.47295 911.19494,903.839 c -2.65871,-9.70216 -2.44128,-27.03275 0.47585,-37.9286 5.17488,-19.3289 14.84476,-35.84336 29.58162,-50.52025 20.82206,-20.73732 44.8386,-31.59028 70.05689,-31.65835 7.2,-0.0194 13.2395,0.55477 17.4829,1.66218 6.6504,1.73561 17.2826,6.5448 20.0982,9.09097 0.8696,0.7864 1.8821,1.12883 2.25,0.76097 0.3679,-0.36787 0.6689,-55.86994 0.6689,-123.33793 V 549.23891 l 15.75,-4.23704 c 8.6625,-2.33038 27.225,-7.30979 41.25,-11.06537 14.025,-3.75559 52.725,-14.1259 86,-23.04516 33.275,-8.91925 83.675,-22.41478 112,-29.99007 l 51.5,-13.77325 0.2993,165.64119 c 0.2207,122.14543 -0.01,167.61062 -0.8623,173.14119 -6.2072,40.07571 -40.8269,77.22346 -81.6094,87.56881 -11.4757,2.91103 -27.4574,3.30818 -36.8675,0.91616 -27.5992,-7.01559 -43.4601,-28.73649 -43.4601,-59.51671 0,-39.72588 30.6103,-81.17365 71.128,-96.31065 22.6114,-8.44737 47.4806,-7.28692 64.5865,3.01374 3.0403,1.83076 5.6983,3.32865 5.9066,3.32865 0.7376,0 0.3672,-186.88811 -0.3711,-187.27818 -0.4125,-0.21792 -18.075,4.26529 -39.25,9.96269 -48.7328,13.11217 -82.7032,22.20851 -156,41.77259 -32.175,8.58801 -60.8625,16.28601 -63.75,17.10667 l -5.25,1.4921 v 111.3841 c 0,120.48108 0.091,118.25048 -5.417,133.51847 -3.4183,9.47624 -6.3577,15.07856 -13.5639,25.852 -14.9212,22.30739 -37.6243,38.63425 -63.62129,45.75295 -8.12716,2.22545 -28.22205,2.79364 -35.89785,1.01503 z m -81.5,-43.74674 c -79.4614,-16.84829 -146.9226,-53.81144 -202.5,-110.95321 -28.53331,-29.33647 -49.63982,-58.9117 -68.0673,-95.37847 -21.30117,-42.15362 -33.80655,-84.13478 -39.61813,-133 -1.75156,-14.72758 -1.74777,-68.32646 0.006,-82.98313 10.7744,-90.05084 48.73734,-169.11815 111.16439,-231.52769 8.53334,-8.53095 19.34017,-18.72052 24.01517,-22.64349 59.95766,-50.31275 130.95467,-80.93463 208.61165,-89.97675 18.47039,-2.15063 62.14957,-2.46302 80.38835,-0.57494 86.90861,8.99682 166.38201,45.28852 229.00001,104.57334 32.4839,30.7548 61.5716,69.83571 81.3468,109.29395 6.1694,12.31011 15.2231,34.25972 20.1449,48.83871 4.2254,12.51626 12.5083,43.04013 12.5083,46.09528 0,0.65209 -3.4875,2.11538 -7.75,3.25175 -39.7195,10.58913 -222.1213,59.36428 -223.368,59.72969 -1.3224,0.38761 -1.7448,-0.67207 -2.3123,-5.80124 -3.6336,-32.83817 -23.0999,-68.8158 -49.5534,-91.58442 -30.3246,-26.10059 -69.07475,-38.98986 -108.54659,-36.10532 -36.7347,2.68451 -67.62797,16.92433 -94.03422,43.34375 -17.0837,17.09221 -27.8764,33.88197 -35.40013,55.07051 -13.51901,38.07258 -10.9668,79.91722 7.06237,115.79091 21.24081,42.26411 60.47609,71.76789 106.90226,80.38739 13.15514,2.44239 40.11673,2.44248 52.5,1.8e-4 13.44542,-2.65178 24.81491,-6.32493 36.25001,-11.71122 l 10.25,-4.82811 -8e-4,51.68042 -8e-4,51.68043 -10.7492,0.0948 c -17.90246,0.1579 -32.75331,3.76372 -50.84233,12.34463 -40.08175,19.01363 -69.99857,56.96395 -78.05698,99.01745 -1.68292,8.78243 -2.27853,30.69029 -0.94593,34.79311 0.83684,2.57645 -0.52654,2.75194 -8.40397,1.08168 z m 35.77483,-560.39499 c -0.1765,-1.1382 -2.18209,-14.50435 -5.18499,-32.04486 -3.00291,-17.5405 -8.88457,-52.14183 -13.07036,-76.89183 -8.75146,-51.74626 -10.1955,-58.99556 -10.57324,-61.18514 -59.72165,8.2346 -125.19516,39.66388 -142.96755,64.04085 0.22359,0.85338 20.55362,30.28733 46.03545,72.01772 l 46.3306,75.87343 c 23.29975,-17.72443 38.85046,-32.73774 79.43009,-41.81017 z m 54.83272,-2.29707 c -6.55373,-59.37086 -14.5503,-114.87618 -22.84332,-176.69175 -5.03958,-1.19968 -22.04336,-0.29156 -27.69295,1.50807 0.2554,2.61516 4.36438,37.86439 11.47301,88.05572 13.95222,98.51118 9.67131,86.66022 10.77026,86.59702 12.95781,-0.74523 13.0898,-0.6654 28.293,0.53094 z m 138.39249,424.829 c 0,-62.68274 0.1939,-113.96862 0.431,-113.96862 0.2371,0 9.5746,-2.43758 20.75,-5.41685 20.3605,-5.42792 131.1638,-35.10686 144.319,-38.65619 27.4593,-7.40864 40.4612,-10.63242 40.9421,-10.15149 0.3068,0.30683 0.5579,16.64299 0.5579,36.30258 v 35.74472 c -4.939,12.2146 -10.8825,23.96281 -16.7906,35.7235 l -10.3547,1.653 c -39.9904,6.38394 -75.7462,31.32269 -97.3667,67.91073 -10.8713,18.39738 -17.2227,39.78051 -17.8036,59.9393 l -0.2915,10.11729 -7.4465,4.78473 c -16.0601,10.31943 -45.0778,25.75561 -55.1964,29.36216 -1.6601,0.5917 -1.75,-5.23238 -1.75,-113.34486 z M 938.6142,625.8495 c -17.52572,-1.54113 -37.22683,-9.15104 -51.71613,-19.97629 -19.83793,-14.82132 -33.41085,-34.84259 -39.83283,-58.757 -2.31221,-8.61027 -2.60599,-11.56824 -2.60267,-26.20581 0.004,-18.01404 1.12634,-24.12438 7.23084,-39.36965 12.04476,-30.08035 39.06761,-53.58764 71.61585,-62.29893 8.86898,-2.37372 11.80964,-2.67643 26,-2.67643 14.08479,0 17.16179,0.31167 25.70581,2.6037 39.55383,10.61076 69.42773,42.07263 77.14083,81.24131 0.8665,4.4 1.688,10.21077 1.8256,12.91283 0.2081,4.08719 -0.079,5.0417 -1.711,5.67971 -1.0787,0.42179 -8.1487,0.79852 -15.7112,0.83717 l -13.75,0.0703 v 37.56574 c 0,22.93191 -0.3865,38.28787 -0.9921,39.41949 -1.602,2.99322 -16.6347,13.80481 -25.14229,18.08232 -18.17589,9.13866 -37.21863,12.70431 -58.06071,10.87155 z m 23.647,-74.81482 c 6.28423,-2.77981 13.06197,-9.43479 16.27759,-15.98277 2.37723,-4.84075 2.76697,-6.848 2.74585,-14.14151 -0.0197,-6.79512 -0.48233,-9.42989 -2.3066,-13.13612 -3.34062,-6.7869 -8.23748,-12.03873 -14.30998,-15.34731 -4.44912,-2.42409 -6.82151,-2.99007 -13.9754,-3.33409 -7.74983,-0.37268 -9.23333,-0.13759 -14.74748,2.33701 -6.71408,3.0131 -12.60156,8.65825 -16.3021,15.6311 -1.94004,3.65556 -2.31031,5.86491 -2.32104,13.84941 -0.0107,7.92445 0.37075,10.27863 2.29974,14.19487 4.19273,8.51207 12.77946,15.47574 21.92195,17.77828 5.346,1.34639 15.55335,0.43547 20.71747,-1.84887 z"
       id="path1"
       sodipodi:nodetypes="ssssssssscsssscscsssssssssscssssssssssssssssssssssssssssscccsssssscssccsccccccscssssssccssscssssssssssssssscssssssssssssssss" />
  </g>
</svg>
