<?xml version="1.0" encoding="UTF-8" standalone="no"?>
<!-- Created with Inkscape (http://www.inkscape.org/) -->

<svg
   version="1.1"
   id="svg1"
   width="1024"
   height="1024"
   viewBox="0 0 1024 1024"
   sodipodi:docname="splash_android12.svg"
   inkscape:version="1.3.2 (091e20ef0f, 2023-11-25)"
   inkscape:export-filename="splash_android12.png"
   inkscape:export-xdpi="108"
   inkscape:export-ydpi="108"
   xmlns:inkscape="http://www.inkscape.org/namespaces/inkscape"
   xmlns:sodipodi="http://sodipodi.sourceforge.net/DTD/sodipodi-0.dtd"
   xmlns="http://www.w3.org/2000/svg"
   xmlns:svg="http://www.w3.org/2000/svg">
  <defs
     id="defs1" />
  <sodipodi:namedview
     id="namedview1"
     pagecolor="#ffffff"
     bordercolor="#000000"
     borderopacity="0.25"
     inkscape:showpageshadow="2"
     inkscape:pageopacity="0.0"
     inkscape:pagecheckerboard="0"
     inkscape:deskcolor="#d1d1d1"
     inkscape:zoom="0.61503517"
     inkscape:cx="525.98618"
     inkscape:cy="462.57517"
     inkscape:window-width="1920"
     inkscape:window-height="1011"
     inkscape:window-x="0"
     inkscape:window-y="0"
     inkscape:window-maximized="1"
     inkscape:current-layer="g1" />
  <g
     inkscape:groupmode="layer"
     inkscape:label="Image"
     id="g1">
    <path
       style="fill:#217821;fill-opacity:1;stroke-width:0.910981"
       d="m 467.70125,833.78725 c -11.46478,-1.9272 -26.7424,-8.41344 -34.65341,-14.7123 -26.30672,-20.94567 -30.29182,-55.86436 -8.916,-78.12504 9.09872,-9.47538 19.23706,-13.61447 33.09313,-13.51055 9.95626,0.0747 16.21659,2.11984 24.39917,7.97111 12.86899,9.20238 19.56085,22.83647 18.67969,38.0582 -0.79679,13.76372 -9.76791,26.80033 -22.67594,32.95222 -3.39908,1.61992 -6.20325,3.25275 -6.23144,3.62855 -0.0975,1.2996 17.52945,0.69993 23.57605,-0.80198 21.03948,-5.226 37.66189,-22.2884 42.48376,-43.60835 1.92434,-8.50846 2.11497,-22.77634 0.45032,-33.7063 -1.10789,-7.27439 -7.28396,-38.95674 -7.66919,-39.34201 -0.11183,-0.11183 -3.26228,0.58508 -7.00096,1.54864 -16.44519,4.23854 -41.82022,4.65047 -59.1791,0.96075 -19.20446,-4.082 -39.85809,-13.12717 -56.01579,-24.53182 -8.92689,-6.30088 -27.78722,-24.89364 -33.396,-32.92219 -16.48623,-23.5988 -24.81076,-45.40838 -27.25509,-71.40597 -2.25497,-23.98399 2.70837,-50.61881 13.39368,-71.8744 13.02298,-25.90575 32.65884,-46.84334 79.13219,-84.378 27.70437,-22.37571 40.20637,-33.46829 52.80506,-46.85196 25.86843,-27.48025 38.49491,-48.159 45.14795,-73.94015 2.01694,-7.81592 3.39459,-27.04102 2.34039,-32.66038 -0.58911,-3.14033 -0.81664,-3.3234 -4.13017,-3.3234 -4.44792,0 -14.39296,3.05135 -21.46274,6.58523 -21.25592,10.62496 -38.48113,29.21338 -43.86223,47.33349 -1.74768,5.88503 -1.39669,9.01038 3.86851,34.44648 2.22983,10.77238 4.2729,20.6729 4.54016,22.00117 0.43475,2.1607 -0.59904,3.34633 -9.81518,11.25689 -13.58644,11.66176 -14.34522,12.29105 -14.82015,12.29105 -1.25508,0 -10.029,-43.77296 -11.5217,-57.48149 -1.5043,-13.81532 -0.60541,-37.36937 1.85654,-48.64788 5.89057,-26.98543 17.00805,-49.85519 34.38498,-70.7334 7.20264,-8.65388 19.40656,-19.64084 22.74788,-20.47945 1.47181,-0.3694 4.13338,0.72785 9.16943,3.78018 24.27789,14.71471 42.41732,37.64791 51.61807,65.2594 5.01802,15.05906 6.39902,24.39366 6.44761,43.58133 0.0514,20.33485 -1.03551,27.26954 -6.99706,44.6381 -8.8461,25.7725 -22.37347,46.9578 -46.95528,73.5369 l -9.4554,10.22368 1.06289,5.26302 c 0.85934,4.25506 9.8082,46.02456 12.89721,58.31546 l 11.08158,0.51451 c 12.01901,0.55799 19.79255,2.29495 30.52731,6.82117 11.83216,4.98894 19.18431,10.05938 29.29179,20.20124 13.65997,13.70637 20.61608,26.3516 24.73312,44.9613 2.60019,11.75329 2.01549,30.89614 -1.33269,43.63209 -5.13237,19.52261 -14.66178,35.97201 -29.20627,50.41498 -7.06497,7.01565 -20.34504,17.32448 -25.90435,20.10857 -0.15475,0.0775 1.14769,7.46156 2.89429,16.40908 4.83338,24.76038 5.47778,29.82359 5.49075,43.1421 0.0291,29.89906 -9.56406,54.58465 -27.75844,71.42941 -12.58212,11.64873 -26.09614,18.36114 -43.14256,21.42896 -5.1553,0.92775 -23.94225,1.15105 -28.75637,0.34176 z m 48.73754,-165.6328 c 4.00831,-0.84567 7.57331,-1.80438 7.9222,-2.13045 0.55368,-0.51747 -3.26637,-19.52335 -19.43623,-96.70145 -2.04702,-9.77028 -3.88828,-18.0446 -4.09171,-18.38741 -0.44687,-0.75305 -11.24685,2.83361 -16.29611,5.41192 -11.1171,5.67675 -21.25081,16.46174 -25.1773,26.79543 -5.2614,13.84689 -1.57179,31.4815 8.93742,42.71668 5.41186,5.78574 8.29357,7.85749 14.7929,10.63518 l 5.10839,2.18321 -7.28786,-0.47756 c -24.50829,-1.60599 -45.97114,-20.18134 -51.94439,-44.95609 -2.17199,-9.00852 -1.46581,-27.02412 1.41971,-36.21962 7.29486,-23.24701 26.62824,-42.89694 51.19804,-52.03636 5.57262,-2.07288 7.0523,-3.00616 7.0601,-4.4529 0.007,-1.42961 -6.07053,-30.99579 -8.66693,-42.15809 -0.63165,-2.71566 -0.36882,-2.90828 -19.34187,14.17497 -39.59645,35.65253 -56.69198,58.02789 -64.53968,84.47238 -3.37108,11.35955 -3.55948,27.95134 -0.45517,40.08322 4.10483,16.04189 11.3967,28.89591 23.60206,41.60548 14.83485,15.44766 35.42851,26.73162 54.38028,29.79677 3.50728,0.56723 7.40173,1.20511 8.65433,1.4175 4.9468,0.83874 27.27593,-0.32001 34.16182,-1.77281 z m 43.94444,-20.17742 c 5.68649,-4.85814 13.50564,-14.94672 17.00283,-21.93772 6.40656,-12.80705 7.11402,-31.40569 1.68956,-44.4185 -4.32297,-10.3704 -13.92239,-20.62294 -24.52665,-26.19532 -6.25123,-3.28492 -19.29355,-7.44759 -21.58695,-6.88981 -1.28031,0.31139 -0.12723,6.20544 13.60153,69.5244 7.65157,35.29014 7.37949,34.16181 8.23741,34.16181 0.33747,0 2.84949,-1.91021 5.58227,-4.24486 z m -302.71144,67.64629 c -12.34096,-3.8653 -22.1071,-12.55275 -28.5905,-25.43262 -3.62601,-7.20335 -7.07258,-20.36359 -5.6942,-21.74242 0.34462,-0.34473 5.34089,-2.64452 11.10285,-5.11062 5.76197,-2.46612 18.26519,-7.99603 27.78494,-12.2887 14.7305,-6.64231 52.06447,-23.06408 77.1895,-33.95266 l 7.04389,-3.05266 5.09184,9.95447 c 6.90494,13.49905 14.54842,24.02243 25.69739,35.37954 5.14181,5.23778 9.24121,9.58573 9.10982,9.66206 -1.2033,0.69931 -19.03661,8.68967 -19.39402,8.68967 -0.4812,0 -20.3127,8.67171 -61.46679,26.87753 -12.77651,5.65213 -24.86979,10.72834 -26.87395,11.28056 -4.82296,1.32883 -16.37886,1.18346 -21.00077,-0.26415 z m 43.46646,-38.62902 c 3.03369,-3.25227 3.49728,-4.3201 3.49728,-8.05534 0,-7.61588 -5.57723,-13.07727 -13.3469,-13.06973 -9.77681,0.01 -15.63169,11.01833 -10.37956,19.51645 2.8639,4.63389 5.87707,6.08617 11.80259,5.68862 4.41128,-0.29595 5.2968,-0.72469 8.42659,-4.08 z m 350.36183,-7.79354 c -5.29309,-1.97533 -7.56146,-3.79558 -9.4374,-7.57308 -2.33215,-4.69616 -2.36137,-15.51373 -0.0581,-21.48364 3.37055,-8.73588 11.65817,-16.25628 21.39274,-19.41229 l 5.80875,-1.88326 -11.70397,-13.94951 c -6.43721,-7.67224 -12.61667,-15.02361 -13.73218,-16.3364 l -7.08402,-9.01213 c 5.48578,-2.57432 8.36511,-3.91152 9.46283,-3.23391 2.62123,1.6181 39.34972,47.06665 41.83249,51.76433 5.37649,10.17298 1.89754,24.61543 -8.09322,33.59799 -7.70811,6.93022 -20.72872,10.38027 -28.38801,7.5219 z M 225.80617,646.29107 c 2.98004,-7.91716 6.86853,-13.36902 12.64724,-17.73199 3.14313,-2.3731 16.13385,-8.56904 37.98466,-18.11686 44.63974,-19.5056 60.51012,-26.36179 60.67649,-26.21296 0.0766,0.0686 1.16101,3.86468 2.40992,8.43602 l 2.27074,8.31152 -9.69777,4.15799 c -15.85654,6.7986 -51.76612,22.46774 -77.40752,33.77681 -13.19043,5.8176 -24.98012,10.82781 -26.19931,11.1338 -1.21919,0.30601 -2.44201,0.9209 -2.71738,1.36642 -0.27535,0.44555 -0.88287,0.81007 -1.35002,0.81007 -0.46718,0 0.15518,-2.66885 1.38295,-5.93082 z m 1.29122,-48.16293 c -9.0922,-3.2492 -12.19441,-8.26084 -12.19174,-19.69576 0.003,-7.08863 0.26585,-8.23062 3.12453,-13.50624 7.86385,-14.51255 23.8396,-20.95857 41.97232,-16.93535 l 2.28251,0.50646 -0.006,-14.86708 c -0.002,-8.1769 0.0974,-31.72495 0.22267,-52.32898 l 0.22774,-37.46189 20.26936,10.46899 c 11.14814,5.75794 25.29113,13.10751 31.42887,16.33239 l 11.15952,5.86339 v 33.74557 c 0,37.08314 0.0436,36.75652 -5.68767,42.6186 -5.68936,5.81918 -13.67972,8.33219 -20.58288,6.47335 -4.78554,-1.28861 -7.42744,-5.1205 -7.43238,-10.78016 -0.009,-10.01382 9.76458,-18.69047 21.07162,-18.70716 l 5.13284,-0.007 -0.12248,-10.5223 -0.12237,-10.52228 -7.74334,-3.35326 c -13.19099,-5.71235 -36.15788,-15.3817 -36.53562,-15.38193 -0.19752,-1.3e-4 -0.35912,18.7547 -0.35912,41.67741 v 41.67735 l -2.36957,5.05198 c -4.3747,9.32688 -11.54095,15.64262 -21.59053,19.02807 -6.44764,2.17208 -16.98933,2.47007 -22.14921,0.62612 z m 467.89379,-25.58956 c -3.50727,-0.64594 -12.11606,-2.8901 -19.13061,-4.98704 -19.75079,-5.90432 -27.93082,-5.90277 -41.11897,0.007 l -5.59068,2.50559 -0.56502,-3.53343 c -0.94879,-5.93344 -5.11133,-18.21431 -8.81572,-26.00932 -2.96448,-6.23802 -7.77717,-13.36732 -16.61842,-24.61776 l -1.65226,-2.10248 9.3956,-4.31403 c 10.47226,-4.80838 24.46,-11.92514 25.6702,-13.0606 0.43334,-0.40658 -0.55133,-1.43179 -2.18814,-2.27824 -2.20616,-1.14085 -4.53101,-1.43896 -8.98676,-1.15235 -5.00605,0.32201 -8.29265,1.41826 -19.66351,6.5588 -8.48692,3.83674 -14.06151,5.88074 -14.73292,5.40198 -0.59406,-0.42359 -4.17408,-2.81987 -7.95557,-5.32508 -3.7815,-2.5052 -6.8849,-4.75987 -6.89648,-5.01039 -0.0111,-0.25053 3.75376,-2.30023 8.36735,-4.55492 15.48865,-7.56936 21.37098,-15.94679 26.31218,-37.47307 3.25715,-14.18967 4.65199,-18.51554 8.33187,-25.84015 9.91024,-19.72579 28.8717,-37.06933 49.88959,-45.6327 20.84965,-8.49482 47.58983,-9.98168 70.69166,-3.93076 8.0905,2.11913 18.56982,6.18423 18.56982,7.20358 0,0.39491 -4.20184,3.0775 -9.33751,5.96132 -5.13567,2.8838 -16.10165,9.21566 -24.36879,14.07074 -8.26715,4.85509 -20.83172,12.23503 -27.92125,16.39988 l -12.89005,7.57246 -1.91629,6.4656 c -1.05396,3.55606 -1.91499,7.26136 -1.9134,8.23397 0.003,1.59462 22.56658,43.76278 33.99668,63.53387 l 4.5732,7.91043 6.12595,1.50125 c 7.41118,1.8162 3.24296,3.69539 39.989,-18.02858 24.39872,-14.42473 43.41754,-25.25685 44.34472,-25.25685 0.43655,0 -0.52167,10.27949 -1.65614,17.76412 -1.06367,7.01783 -5.67216,21.37732 -8.9172,27.78495 -11.00716,21.73462 -30.55574,40.07584 -51.75911,48.56232 -16.14324,6.46124 -35.70534,8.60765 -51.66302,5.66869 z"
       id="path1"
       sodipodi:nodetypes="sssssssssssssssssssssssssssssssssssssscscsssssssssssssssssssscsssscsssssssssssssssssssssscssssssssssssssssscsccsssssssssscssssssccssccscsscssscccccssscssccssscssscssssssssssssssssscssscscssssss" />
  </g>
</svg>
