<?xml version="1.0" encoding="UTF-8" standalone="no"?>
<!-- Created with Inkscape (http://www.inkscape.org/) -->

<svg
   version="1.1"
   id="svg1"
   width="1024"
   height="1024"
   viewBox="0 0 1024 1024"
   sodipodi:docname="splash.svg"
   inkscape:version="1.3.2 (091e20ef0f, 2023-11-25)"
   inkscape:export-filename="splash.png"
   inkscape:export-xdpi="96"
   inkscape:export-ydpi="96"
   xmlns:inkscape="http://www.inkscape.org/namespaces/inkscape"
   xmlns:sodipodi="http://sodipodi.sourceforge.net/DTD/sodipodi-0.dtd"
   xmlns="http://www.w3.org/2000/svg"
   xmlns:svg="http://www.w3.org/2000/svg">
  <defs
     id="defs1" />
  <sodipodi:namedview
     id="namedview1"
     pagecolor="#ffffff"
     bordercolor="#000000"
     borderopacity="0.25"
     inkscape:showpageshadow="2"
     inkscape:pageopacity="0.0"
     inkscape:pagecheckerboard="0"
     inkscape:deskcolor="#d1d1d1"
     inkscape:zoom="0.175575"
     inkscape:cx="469.88466"
     inkscape:cy="925.5304"
     inkscape:window-width="1920"
     inkscape:window-height="1011"
     inkscape:window-x="0"
     inkscape:window-y="0"
     inkscape:window-maximized="1"
     inkscape:current-layer="g1" />
  <g
     inkscape:groupmode="layer"
     inkscape:label="Image"
     id="g1">
    <path
       style="fill:#217821;fill-opacity:1;stroke-width:1.43492"
       d="m 442.22345,1018.8587 c -18.0586,-3.0357 -42.12292,-13.2523 -54.58385,-23.17396 -41.43665,-32.99221 -47.71371,-87.99391 -14.04389,-123.05751 14.33172,-14.92501 30.30097,-21.44465 52.12615,-21.28096 15.68247,0.11772 25.54335,3.33903 38.43203,12.55557 20.2704,14.495 30.81098,35.97057 29.42304,59.94684 -1.25506,21.67974 -15.38578,42.21414 -35.71768,51.90422 -5.35402,2.55162 -9.77097,5.12352 -9.81537,5.71549 -0.15356,2.04694 27.61127,1.10237 37.13549,-1.26323 33.14003,-8.23167 59.32259,-35.10727 66.91769,-68.68909 3.03108,-13.40199 3.33135,-35.87585 0.70929,-53.09201 -1.74505,-11.45816 -11.47321,-61.36215 -12.08,-61.96901 -0.17618,-0.17617 -5.13852,0.9216 -11.02747,2.43932 -25.9034,6.67627 -65.87253,7.32513 -93.2151,1.51331 -30.24964,-6.4297 -62.78192,-20.67706 -88.23248,-38.64095 -14.06107,-9.92473 -43.76867,-39.21086 -52.60324,-51.85691 -25.96805,-37.17131 -39.08033,-71.52436 -42.93048,-112.47411 -3.55189,-37.77803 4.26607,-79.73148 21.09686,-113.21194 20.51298,-40.80507 51.44211,-73.78461 124.64396,-132.90681 43.63815,-35.24476 63.3305,-52.71709 83.17513,-73.79818 40.74629,-43.28513 60.63472,-75.85698 71.11416,-116.46579 3.17695,-12.31113 5.34693,-42.59328 3.68643,-51.44452 -0.92792,-4.94644 -1.28632,-5.23482 -6.50559,-5.23482 -7.00607,0 -22.67085,4.80631 -33.80672,10.37264 -33.48097,16.73575 -60.61299,46.01504 -69.08898,74.55667 -2.75281,9.26973 -2.19994,14.19258 6.09344,54.25789 3.51228,16.96797 6.73041,32.56263 7.15138,34.65481 0.68479,3.40341 -0.94356,5.27093 -15.46026,17.73115 -21.40048,18.36886 -22.59567,19.36006 -23.34374,19.36006 -1.97691,0 -15.79704,-68.94835 -18.14823,-90.54113 -2.36948,-21.76101 -0.95361,-58.86183 2.92429,-76.62702 9.27846,-42.50573 26.79,-78.528704 54.16101,-111.414715 11.34515,-13.631028 30.56797,-30.9369859 35.831,-32.2579249 2.3183,-0.581844 6.51064,1.146482 14.4431,5.9543149 38.24097,23.177666 66.81304,59.30056 81.30546,102.792405 7.90408,23.72007 10.07935,38.42333 10.15587,68.6465 0.0811,32.03017 -1.63106,42.95323 -11.02132,70.31108 -13.93381,40.59518 -35.24127,73.96491 -73.96095,115.8306 l -14.89352,16.10369 1.67418,8.28997 c 1.35359,6.70229 15.44925,72.49493 20.31486,91.85476 l 17.45499,0.81043 c 18.93159,0.87891 31.17597,3.61486 48.08468,10.74427 18.63725,7.85826 30.21787,15.84489 46.13853,31.81969 21.51632,21.58939 32.47312,41.50736 38.95802,70.82016 4.09567,18.51302 3.17468,48.66562 -2.09916,68.72646 -8.08419,30.75077 -23.0943,56.6608 -46.00385,79.41044 -11.12828,11.0506 -32.0462,27.28842 -40.80286,31.67374 -0.24375,0.12199 1.80777,11.75297 4.5589,25.84654 7.61323,39.00095 8.62824,46.97619 8.64867,67.95464 0.0459,47.09509 -15.06468,85.97824 -43.72331,112.51103 -19.81854,18.3484 -41.10496,28.9213 -67.95539,33.7535 -8.1203,1.4613 -37.7123,1.813 -45.29517,0.5384 z m 76.76823,-260.89421 c 6.31364,-1.33205 11.92898,-2.84215 12.47853,-3.35576 0.87212,-0.81508 -5.14495,-30.75193 -30.61469,-152.3179 -3.22435,-15.38952 -6.12458,-28.4227 -6.445,-28.96267 -0.70388,-1.18617 -17.7153,4.46333 -25.66859,8.52451 -17.51093,8.94164 -33.4729,25.92947 -39.65766,42.20645 -8.28742,21.81072 -2.47579,49.58762 14.07765,67.28455 8.5244,9.11334 13.06349,12.37662 23.30082,16.75186 l 8.04643,3.43885 -11.47939,-0.75222 c -38.60387,-2.52965 -72.41079,-31.78836 -81.81946,-70.81195 -3.42118,-14.18964 -2.30886,-42.56666 2.23622,-57.05083 11.4904,-36.61718 41.94311,-67.56848 80.64387,-81.96433 8.77764,-3.26504 11.10834,-4.7351 11.12063,-7.01392 0.0106,-2.25183 -9.56192,-48.82256 -13.6516,-66.40472 -0.99493,-4.27752 -0.58095,-4.58093 -30.46607,22.32753 -62.36978,56.15757 -89.29758,91.40179 -101.65877,133.05544 -5.30991,17.89285 -5.60666,44.02718 -0.71695,63.13653 6.46567,25.26814 17.95135,45.51499 37.17645,65.53428 23.3669,24.33216 55.80473,42.10593 85.65632,46.93396 5.52445,0.89346 11.65875,1.89822 13.63176,2.23277 7.79187,1.32112 42.9633,-0.50407 53.8095,-2.79243 z m 69.21846,-31.78217 c 8.957,-7.65223 21.27321,-23.54311 26.78177,-34.5549 10.0912,-20.17284 11.20555,-49.46822 2.66128,-69.96517 -6.80925,-16.33479 -21.92965,-32.48392 -38.6328,-41.26118 -9.84654,-5.17421 -30.38996,-11.73096 -34.00238,-10.85239 -2.01665,0.49048 -0.20048,9.77442 21.42426,109.51037 12.05226,55.58677 11.6237,53.80949 12.97503,53.80949 0.53157,0 4.48835,-3.00884 8.79284,-6.68622 z M 111.39852,832.73441 C 91.959835,826.64603 76.576829,812.9621 66.364596,792.67457 60.653131,781.32832 55.224311,760.59914 57.395463,758.4273 c 0.542807,-0.54298 8.41261,-4.16547 17.488496,-8.04991 9.075884,-3.88447 28.770151,-12.59483 43.765051,-19.35637 23.20254,-10.46253 82.00863,-36.32906 121.58395,-53.48004 l 11.09507,-4.80837 8.02034,15.67965 c 10.87623,21.26283 22.91574,37.83858 40.47688,55.72758 8.09905,8.25021 14.55617,15.09883 14.3492,15.21906 -1.89537,1.1015 -29.98523,13.6874 -30.54821,13.6874 -0.75797,0 -31.99527,13.65912 -96.81853,42.33576 -20.12474,8.90287 -39.17331,16.89861 -42.33012,17.76842 -7.59682,2.09308 -25.79893,1.86411 -33.07907,-0.41607 z m 68.46557,-60.84595 c 4.77849,-5.12276 5.50869,-6.80476 5.50869,-12.68826 0,-11.99604 -8.78489,-20.59848 -21.02318,-20.5866 -15.39982,0.0149 -24.62203,17.35537 -16.34923,30.74106 4.51106,7.299 9.25721,9.58655 18.5907,8.96034 6.94837,-0.46615 8.34319,-1.14148 13.27302,-6.42654 z m 551.86744,-12.2759 c -8.33731,-3.11141 -11.91027,-5.97855 -14.86512,-11.92861 -3.67352,-7.39709 -3.7195,-24.43625 -0.0915,-33.83966 5.30906,-13.76019 18.36318,-25.60585 33.69643,-30.577 l 9.14963,-2.9664 -18.43542,-21.97236 c -10.1395,-12.08481 -19.87296,-23.66421 -21.63003,-25.73205 l -11.1583,-14.19532 c 8.64087,-4.05491 13.17617,-6.16118 14.9052,-5.09384 4.12878,2.5487 61.98121,74.13635 65.89187,81.53584 8.46872,16.02381 2.98885,38.77264 -12.74796,52.9214 -12.14126,10.91602 -32.65053,16.35033 -44.71492,11.848 z M 61.205841,723.52669 c 4.693966,-12.47061 10.818853,-21.05803 19.921122,-27.93028 4.950834,-3.73797 25.412987,-13.49742 59.830977,-28.53652 70.31367,-30.72398 95.31168,-41.5234 95.57373,-41.28896 0.12072,0.10813 1.82875,6.08739 3.79594,13.28787 l 3.57674,13.09177 -15.27532,6.5494 c -24.9762,10.70872 -81.53866,35.38974 -121.92736,53.20307 -20.776705,9.16349 -39.347076,17.05526 -41.267456,17.53723 -1.920391,0.48201 -3.846504,1.45054 -4.280249,2.15232 -0.433717,0.70179 -1.390635,1.27595 -2.126463,1.27595 -0.735872,0 0.24444,-4.20379 2.178339,-9.34185 z m 2.033837,-75.86314 c -14.321435,-5.11794 -19.20784,-13.01195 -19.203643,-31.02351 0.0044,-11.16555 0.418753,-12.96434 4.921557,-21.27416 12.386642,-22.85925 37.550601,-33.01259 66.112108,-26.67546 l 3.59526,0.79773 -0.009,-23.41768 c -0.002,-12.87972 0.15335,-49.97109 0.35074,-82.42523 l 0.35871,-59.00756 31.927,16.49008 c 17.55985,9.06954 39.83697,20.6461 49.50474,25.72572 l 17.57776,9.23562 v 53.15387 c 0,58.41097 0.0687,57.8965 -8.95886,67.1301 -8.96151,9.16599 -21.54742,13.12432 -32.42083,10.1964 -7.53787,-2.02975 -11.69923,-8.06549 -11.70701,-16.98022 -0.0149,-15.77312 15.38055,-29.44003 33.19067,-29.46633 l 8.08491,-0.0106 -0.19301,-16.57405 -0.1928,-16.57402 -12.1968,-5.28185 c -20.77762,-8.99771 -56.95358,-24.22827 -57.54858,-24.22863 -0.31113,-1.9e-4 -0.56566,29.54122 -0.56566,65.64759 v 65.64747 l -3.7324,7.95757 c -6.89075,14.69111 -18.17856,24.63926 -34.008019,29.9718 -10.155902,3.42132 -26.760498,3.8907 -34.888,0.98622 z M 800.23591,607.3565 c -5.52442,-1.01744 -19.08443,-4.55229 -30.13327,-7.85525 -31.11016,-9.30011 -43.99482,-9.29768 -64.76793,0.0106 l -8.80614,3.94665 -0.88992,-5.56564 c -1.49448,-9.34597 -8.05105,-28.69002 -13.886,-40.96821 -4.66941,-9.82572 -12.2501,-21.05533 -26.17626,-38.7763 l -2.60254,-3.3117 14.79934,-6.79518 c 16.49528,-7.57385 38.52778,-18.78371 40.43404,-20.57222 0.68259,-0.64043 -0.8684,-2.25527 -3.44663,-3.58855 -3.47494,-1.79699 -7.13694,-2.26654 -14.15538,-1.81509 -7.88516,0.50721 -13.06198,2.23395 -30.97265,10.33099 -13.36806,6.04338 -22.14879,9.26296 -23.20635,8.50886 -0.93574,-0.66722 -6.57476,-4.44169 -12.53111,-8.38773 -5.95639,-3.94603 -10.84465,-7.49744 -10.8629,-7.89205 -0.017,-0.3946 5.9127,-3.62316 13.17971,-7.17462 24.39674,-11.92275 33.6622,-25.11835 41.44527,-59.02516 5.13044,-22.35066 7.32752,-29.1645 13.12384,-40.70176 15.60995,-31.0708 45.47679,-58.38921 78.58286,-71.87768 32.84107,-13.3805 74.96042,-15.72251 111.34892,-6.19148 12.74367,3.3379 29.25005,9.74099 29.25005,11.34662 0,0.62202 -6.61853,4.84748 -14.70788,9.38986 -8.08935,4.5424 -25.36225,14.51592 -38.38415,22.16334 -13.02189,7.64741 -32.81276,19.27182 -43.97972,25.83204 l -20.30355,11.92764 -3.01851,10.18421 c -1.66011,5.60126 -3.01636,11.43762 -3.01387,12.96961 0,2.51175 35.54547,68.93233 53.54944,100.07449 l 7.20337,12.46 9.64927,2.36467 c 11.67357,2.86077 5.10808,5.82074 62.98809,-28.39746 38.43131,-22.72091 68.38852,-39.78296 69.84898,-39.78296 0.68759,0 -0.8217,16.19158 -2.60868,27.98089 -1.67537,11.05405 -8.93437,33.67219 -14.04574,43.76507 -17.33785,34.23497 -48.12952,63.12489 -81.52773,76.49225 -25.42779,10.17732 -56.24071,13.55822 -81.37627,8.92895 z"
       id="path1"
       sodipodi:nodetypes="sssssssssssssssssssssssssssssssssssssscscsssssssssssssssssssscsssscsssssssssssssssssssssscssssssssssssssssscsccsssssssssscssssssccssccscsscssscccccssscssccssscssscssssssssssssssssscssscscssssss" />
  </g>
</svg>
