<?xml version="1.0" encoding="UTF-8" standalone="no"?>
<!-- Created with Inkscape (http://www.inkscape.org/) -->

<svg
   version="1.1"
   id="svg1"
   width="1024"
   height="1024"
   viewBox="0 0 1024 1024"
   sodipodi:docname="adaptive_foreground.svg"
   inkscape:version="1.3.2 (091e20ef0f, 2023-11-25)"
   inkscape:export-filename="adaptive_foreground.png"
   inkscape:export-xdpi="96"
   inkscape:export-ydpi="96"
   xmlns:inkscape="http://www.inkscape.org/namespaces/inkscape"
   xmlns:sodipodi="http://sodipodi.sourceforge.net/DTD/sodipodi-0.dtd"
   xmlns="http://www.w3.org/2000/svg"
   xmlns:svg="http://www.w3.org/2000/svg">
  <defs
     id="defs1" />
  <sodipodi:namedview
     id="namedview1"
     pagecolor="#ffffff"
     bordercolor="#000000"
     borderopacity="0.25"
     inkscape:showpageshadow="2"
     inkscape:pageopacity="0.0"
     inkscape:pagecheckerboard="0"
     inkscape:deskcolor="#d1d1d1"
     inkscape:zoom="0.17071166"
     inkscape:cx="-61.507222"
     inkscape:cy="395.40357"
     inkscape:window-width="1920"
     inkscape:window-height="1011"
     inkscape:window-x="0"
     inkscape:window-y="0"
     inkscape:window-maximized="1"
     inkscape:current-layer="g1" />
  <g
     inkscape:groupmode="layer"
     inkscape:label="Image"
     id="g1">
    <path
       style="fill:#217821;fill-opacity:1;stroke-width:0.798448"
       d="m 469.5925,794.03808 c -10.04859,-1.6891 -23.43902,-7.3742 -30.37281,-12.895 -23.05715,-18.3583 -26.54999,-48.96361 -7.81464,-68.4745 7.97479,-8.30493 16.86078,-11.93273 29.00526,-11.84165 8.7264,0.0655 14.21342,1.85798 21.38523,6.98648 11.27933,8.06563 17.14457,20.01556 16.37226,33.357 -0.69837,12.06355 -8.56132,23.48978 -19.87487,28.88175 -2.9792,1.41982 -5.43698,2.85092 -5.46169,3.18032 -0.0854,1.1391 15.3641,0.6135 20.66379,-0.7029 18.44055,-4.58045 33.00966,-19.53519 37.2359,-38.22157 1.68663,-7.45745 1.85371,-19.96286 0.39469,-29.54269 -0.97104,-6.37581 -6.3842,-34.14456 -6.72185,-34.48223 -0.098,-0.098 -2.8593,0.5128 -6.13616,1.35734 -14.41376,3.71496 -36.65432,4.07601 -51.86891,0.84207 -16.83221,-3.57777 -34.93457,-11.50562 -49.09637,-21.5015 -7.82419,-5.52256 -24.35477,-21.81861 -29.27072,-28.85543 -14.44975,-20.68373 -21.74597,-39.79925 -23.88837,-62.58546 -1.97643,-21.02134 2.37381,-44.36606 11.73921,-62.99602 11.4143,-22.70571 28.62462,-41.05696 69.35728,-73.9551 24.28216,-19.61172 35.23983,-29.33407 46.28225,-41.06451 22.673,-24.08572 33.73977,-42.2101 39.57099,-64.8066 1.7678,-6.85044 2.97527,-23.70074 2.05129,-28.62596 -0.51634,-2.75242 -0.71576,-2.91287 -3.61999,-2.91287 -3.89848,0 -12.61505,2.67442 -18.81152,5.77177 -18.63025,9.31251 -33.7277,25.60477 -38.44409,41.48656 -1.53179,5.15808 -1.22417,7.89737 3.39064,30.19144 1.9544,9.44171 3.74509,18.11925 3.97934,19.28345 0.38105,1.89379 -0.52505,2.93297 -8.60276,9.86636 -11.90815,10.22123 -12.5732,10.77279 -12.98947,10.77279 -1.10004,0 -8.79015,-38.36586 -10.09846,-50.38102 -1.31848,-12.10876 -0.53063,-32.75327 1.62721,-42.63859 5.16293,-23.65201 14.90711,-43.69675 30.13753,-61.99596 6.31292,-7.5849 17.00934,-17.21468 19.93792,-17.9497 1.29,-0.32377 3.6228,0.63794 8.03677,3.31323 21.27893,12.89705 37.17765,32.99741 45.24187,57.19815 4.39817,13.19887 5.60858,21.38039 5.65116,38.19789 0.0451,17.82296 -0.90759,23.90103 -6.13274,39.12412 -7.75337,22.58891 -19.60975,41.15727 -41.15506,64.45316 l -8.28742,8.96079 0.93161,4.61289 c 1.41827,7.02265 9.53956,44.09116 10.47764,47.82372 l 0.82642,3.28825 9.71271,0.45096 c 10.53435,0.48906 17.34765,2.01146 26.75638,5.97857 10.37058,4.37268 16.81455,8.81679 25.67349,17.70586 11.9726,12.01327 18.06945,23.09649 21.67793,39.4074 2.279,10.30145 1.76653,27.07965 -1.16807,38.24238 -4.49839,17.11105 -12.85067,31.52851 -25.59852,44.1874 -6.19227,6.14903 -17.8319,15.18445 -22.70449,17.62463 -0.13564,0.068 1.00592,6.53987 2.53677,14.38213 4.23633,21.70182 4.80113,26.1396 4.8125,37.81292 0.0255,26.20573 -8.38265,47.842 -24.32954,62.60598 -11.0279,10.2098 -22.87259,16.0931 -37.81333,18.7819 -4.51848,0.8132 -20.98474,1.0089 -25.20419,0.2996 z m 42.71717,-145.17282 c 3.51317,-0.7412 6.63781,-1.58149 6.9436,-1.86727 0.48528,-0.45355 -2.86289,-17.11171 -17.03535,-84.75629 -1.79416,-8.56339 -3.40798,-15.81561 -3.58628,-16.11608 -0.39166,-0.66002 -9.85757,2.48359 -14.28311,4.74341 -9.74384,4.97551 -18.62577,14.42828 -22.06723,23.48549 -4.61149,12.13643 -1.37764,27.5927 7.8334,37.44004 4.74336,5.07106 7.2691,6.88689 12.9656,9.32146 l 4.47736,1.91352 -6.38761,-0.41856 c -21.48087,-1.40761 -40.2925,-17.68842 -45.5279,-39.40284 -1.90369,-7.89573 -1.28474,-23.68593 1.24434,-31.74554 6.39376,-20.37539 23.33895,-37.59804 44.87373,-45.60851 4.88426,-1.81681 6.18116,-2.63481 6.188,-3.90284 0.006,-1.25301 -5.32066,-27.167 -7.59633,-36.95046 -0.55363,-2.3802 -0.32327,-2.54903 -16.95264,12.42399 -34.70525,31.24851 -49.68904,50.85991 -56.56734,74.03782 -2.95466,9.95635 -3.1198,24.49862 -0.39894,35.13189 3.59777,14.06029 9.9889,25.32651 20.68658,36.46611 13.00236,13.53947 31.05216,23.42956 47.66289,26.11608 3.07403,0.49716 6.48742,1.05625 7.5853,1.2424 4.33573,0.73514 23.90662,-0.28046 29.94193,-1.55382 z m 38.51615,-17.68497 c 4.98405,-4.25804 11.83734,-13.10041 14.90253,-19.22784 5.61518,-11.22503 6.23524,-27.52626 1.48085,-38.93165 -3.78897,-9.08938 -12.20261,-18.07546 -21.49696,-22.95951 -5.47904,-2.87915 -16.91029,-6.52762 -18.9204,-6.03872 -1.12216,0.27292 -0.11151,5.4389 11.92138,60.9363 6.7064,30.93088 6.46793,29.94192 7.21988,29.94192 0.29579,0 2.4975,-1.67424 4.89272,-3.7205 z M 285.5072,690.47048 c -10.81653,-3.38783 -19.37629,-11.00216 -25.05883,-22.29103 -3.1781,-6.31354 -6.19892,-17.84815 -4.99081,-19.05665 0.30205,-0.30215 4.68115,-2.31785 9.73135,-4.47933 5.05022,-2.16149 16.00896,-7.0083 24.35278,-10.77071 12.91089,-5.82182 45.63313,-20.21506 67.65456,-29.75862 l 6.17378,-2.67557 4.46287,8.72482 c 6.05199,11.83156 12.7513,21.05503 22.52309,31.00924 4.50665,4.59077 8.09967,8.40164 7.98451,8.46855 -1.05466,0.61292 -16.68509,7.61625 -16.99835,7.61625 -0.42176,0 -17.80354,7.60054 -53.87403,23.55745 -11.19827,4.95396 -21.79771,9.40312 -23.55431,9.88713 -4.22719,1.16468 -14.35563,1.03726 -18.40661,-0.23153 z m 38.09719,-33.85732 c 2.65897,-2.85053 3.06528,-3.78645 3.06528,-7.06029 0,-6.67512 -4.88828,-11.46189 -11.69821,-11.45528 -8.5691,0.009 -13.70076,9.65728 -9.0974,17.10566 2.51013,4.06149 5.1511,5.33436 10.34465,4.98592 3.86638,-0.25939 4.64251,-0.63517 7.38568,-3.57601 z m -66.02657,-26.91057 c 2.61192,-6.93919 6.02008,-11.7176 11.08497,-15.54163 2.75487,-2.07995 14.14089,-7.51053 33.29256,-15.87895 39.12556,-17.09614 53.03553,-23.10541 53.18134,-22.97497 0.0671,0.0601 1.0176,3.3873 2.11224,7.39396 l 1.99024,7.28482 -8.49984,3.64437 c -13.89785,5.95879 -45.37164,19.69238 -67.84566,29.60448 -11.56106,5.09897 -21.89442,9.4903 -22.96301,9.75849 -1.06858,0.26821 -2.14035,0.80714 -2.3817,1.19763 -0.24134,0.39052 -0.77382,0.71 -1.18326,0.71 -0.40947,0 0.13601,-2.33918 1.21212,-5.1982 z m 411.22832,-64.64211 c -3.07402,-0.56616 -10.61941,-2.53311 -16.76747,-4.37102 -17.31106,-5.17498 -24.48064,-5.17362 -36.0397,0.006 l -4.90008,2.19608 -0.49523,-3.09695 c -0.83159,-5.2005 -4.47995,-15.96436 -7.72674,-22.79648 -2.5983,-5.46746 -6.81649,-11.71611 -14.56561,-21.57682 l -1.44817,-1.84277 8.235,-3.78114 c 9.17866,-4.21441 21.43854,-10.45207 22.49925,-11.44727 0.37982,-0.35635 -0.48322,-1.25493 -1.91785,-1.99682 -1.93363,-0.99991 -3.9713,-1.2612 -7.87666,-1.01 -4.38766,0.28223 -7.26828,1.24307 -17.23454,5.74862 -7.43857,3.3628 -12.32454,5.15432 -12.91302,4.73469 -0.52068,-0.37127 -3.65847,-2.47155 -6.97284,-4.66729 -3.3144,-2.19574 -6.03444,-4.1719 -6.04459,-4.39148 -0.01,-0.21958 3.29007,-2.01609 7.33376,-3.99226 13.5754,-6.63435 18.7311,-13.97695 23.06194,-32.84416 2.8548,-12.43688 4.07734,-16.22839 7.30266,-22.64822 8.68607,-17.28914 25.30529,-32.49029 43.72691,-39.99586 18.27418,-7.44549 41.71124,-8.74868 61.95939,-3.4452 7.09111,1.85735 16.27596,5.42031 16.27596,6.31374 0,0.34612 -3.68281,2.69734 -8.18408,5.22494 -4.50128,2.52757 -14.11268,8.07728 -21.35861,12.33263 -7.24593,4.25536 -18.25845,10.72368 -24.47224,14.37407 l -11.29779,6.63706 -1.67958,5.66693 c -0.92377,3.11678 -1.67843,6.36438 -1.67704,7.21686 0.002,1.39764 19.77901,38.35693 29.79719,55.68577 l 4.00829,6.93329 5.36923,1.31579 c 6.49571,1.59186 2.84238,3.23891 35.04931,-15.80157 21.38484,-12.6429 38.05433,-22.13697 38.86699,-22.13697 0.38262,0 -0.45724,9.00971 -1.45157,15.56979 -0.93227,6.15094 -4.9715,18.73666 -7.81569,24.35278 -9.64748,19.04982 -26.7813,35.12542 -45.3655,42.5636 -14.14912,5.6631 -31.29479,7.54437 -45.28128,4.96845 z"
       id="path1"
       sodipodi:nodetypes="sssssssssssssssssssssssssssssssssssssscsscsssssssssssssssssssscsssscsssssssssssssssssssssscsssssssssssssssssscssssssssscssscssssssssssssssssscssscscssssss" />
  </g>
</svg>
