<?xml version="1.0" encoding="UTF-8" standalone="no"?>
<!-- Created with Inkscape (http://www.inkscape.org/) -->

<svg
   width="512"
   height="512"
   viewBox="0 0 512 512"
   version="1.1"
   id="svg5"
   inkscape:export-filename="../Development/musbx/assets/icon/musbx.png"
   inkscape:export-xdpi="256"
   inkscape:export-ydpi="256"
   sodipodi:docname="musbx.svg"
   inkscape:version="1.2.1 (9c6d41e410, 2022-07-14)"
   xmlns:inkscape="http://www.inkscape.org/namespaces/inkscape"
   xmlns:sodipodi="http://sodipodi.sourceforge.net/DTD/sodipodi-0.dtd"
   xmlns:xlink="http://www.w3.org/1999/xlink"
   xmlns="http://www.w3.org/2000/svg"
   xmlns:svg="http://www.w3.org/2000/svg">
  <sodipodi:namedview
     id="namedview7"
     pagecolor="#ffffff"
     bordercolor="#666666"
     borderopacity="1.0"
     inkscape:pageshadow="2"
     inkscape:pageopacity="0"
     inkscape:pagecheckerboard="0"
     inkscape:document-units="px"
     showgrid="false"
     inkscape:zoom="0.70334857"
     inkscape:cx="-24.880977"
     inkscape:cy="21.326552"
     inkscape:window-width="1920"
     inkscape:window-height="963"
     inkscape:window-x="0"
     inkscape:window-y="0"
     inkscape:window-maximized="1"
     inkscape:current-layer="layer1"
     inkscape:showpageshadow="2"
     inkscape:deskcolor="#d1d1d1" />
  <defs
     id="defs2">
    <linearGradient
       inkscape:collect="always"
       id="linearGradient9861">
      <stop
         style="stop-color:#0055d4;stop-opacity:1"
         offset="0"
         id="stop9857" />
      <stop
         style="stop-color:#aaccff;stop-opacity:1"
         offset="1"
         id="stop9859" />
    </linearGradient>
    <linearGradient
       inkscape:collect="always"
       id="linearGradient8883">
      <stop
         style="stop-color:#000000;stop-opacity:1;"
         offset="0"
         id="stop8879" />
      <stop
         style="stop-color:#ffffff;stop-opacity:1"
         offset="1"
         id="stop8881" />
    </linearGradient>
    <linearGradient
       inkscape:collect="always"
       xlink:href="#linearGradient8883"
       id="linearGradient8885"
       x1="116.37388"
       y1="548.99335"
       x2="539.23755"
       y2="-210.7942"
       gradientUnits="userSpaceOnUse"
       gradientTransform="matrix(1.3663431,0,0,1.3663431,-92.084936,-131.26865)" />
    <linearGradient
       inkscape:collect="always"
       xlink:href="#linearGradient9861"
       id="linearGradient8887"
       x1="105.45506"
       y1="570.37683"
       x2="411.7468"
       y2="68.296333"
       gradientUnits="userSpaceOnUse"
       gradientTransform="matrix(1.3663431,0,0,1.3663431,-92.084936,-131.26865)" />
    <linearGradient
       inkscape:collect="always"
       xlink:href="#linearGradient8883"
       id="linearGradient14988"
       gradientUnits="userSpaceOnUse"
       gradientTransform="matrix(1.3663431,0,0,1.3663431,-92.084938,-131.26865)"
       x1="116.37388"
       y1="548.99335"
       x2="539.23755"
       y2="-210.7942" />
    <linearGradient
       inkscape:collect="always"
       xlink:href="#linearGradient9861"
       id="linearGradient16438"
       x1="52.002861"
       y1="648.06177"
       x2="470.50244"
       y2="-37.952431"
       gradientUnits="userSpaceOnUse" />
  </defs>
  <g
     inkscape:label="Layer 1"
     inkscape:groupmode="layer"
     id="layer1"
     style="display:inline">
    <path
       id="path7170"
       style="fill:url(#linearGradient8885);fill-opacity:1;stroke-width:0.728747"
       d="m 177.87891,376.60742 v 12.74805 12.75195 h 319.91992 v -12.74609 -12.7461 l -2.57422,-0.008 H 239.13672 Z" />
    <path
       id="path7170-3"
       style="fill:url(#linearGradient8887);fill-opacity:1;stroke-width:0.728747"
       d="m 30.035712,92.73596 c -8.133881,0 -9.784228,0.62026 -11.747364,4.41658 -0.99183,1.91798 -0.953091,20.97241 0.365613,182.32673 1.895538,231.93477 1.561564,209.70044 3.173003,212.15678 0.731676,1.11531 2.372958,2.49688 3.645358,3.06893 3.607454,1.6219 7.404535,0.64788 16.027852,-4.11236 22.151884,-12.22829 44.177556,-28.9126 62.438146,-47.29362 18.3678,-18.48896 30.29284,-36.97148 37.09674,-57.49849 8.71585,-26.29533 7.98086,-55.20842 -1.91076,-75.16756 -6.6065,-13.33044 -18.87709,-22.98278 -33.00037,-25.95783 -8.24021,-1.73583 -23.04543,-1.02913 -31.698105,1.51042 -11.573078,3.39673 -21.512256,8.87834 -29.696621,16.38011 l -4.192405,3.84019 -0.0043,-12.64403 c -0.0043,-6.9542 0.517935,-53.41697 1.158174,-103.24962 1.249033,-97.21587 1.345814,-93.36387 -2.441797,-96.34318 -1.539094,-1.21068 -2.966658,-1.43305 -9.212142,-1.43305 z m 48.032798,222.4497 c 7.82039,0.39411 12.60462,2.44632 16.60961,7.12528 5.16777,6.03735 7.04249,14.38082 7.0452,31.31645 0.005,21.37367 -4.73709,41.48936 -13.94895,59.19573 -7.20894,13.8565 -19.72896,27.46223 -41.505338,45.09734 -3.905021,3.1624 -7.284818,5.74827 -7.509546,5.74827 -0.51554,0 -0.498737,-1.84291 0.587092,-69.59546 l 0.899325,-56.11347 2.150945,-3.98959 C 49.032119,321.66049 62.78934,314.41565 78.06851,315.18566 Z"
       inkscape:export-filename="/home/agardh/Development/musbx/assets/icon/musbx.png"
       inkscape:export-xdpi="256"
       inkscape:export-ydpi="256" />
    <path
       id="path7170-0"
       style="display:inline;fill:url(#linearGradient14988);fill-opacity:1;stroke-width:0.728747"
       d="M 424.19531,-335.56445 V 152.51758 216.2832 H 301.03516 177.87891 v 12.75391 12.75 h 123.15625 123.16015 v 30.97266 c 0,20.73023 -0.0548,27.32399 -0.51367,29.58789 v 32.72851 h 4.13867 l 0.008,-0.006 h 6.92774 6.92773 l 0.0586,-6.3789 c 0.031,-3.50713 0.007,-24.49385 -0.0527,-46.63868 l -0.10937,-40.26562 h 28.10742 28.11133 v -12.74219 -12.74609 l -27.875,-0.1875 -27.875,-0.19336 -0.18555,-63.58203 -0.18555,-487.90039 h -8.74218 z" />
    <g
       id="g16430"
       style="fill-opacity:1;fill:url(#linearGradient16438)"
       inkscape:export-filename="/home/agardh/Development/musbx/assets/icon/musbx.png"
       inkscape:export-xdpi="256"
       inkscape:export-ydpi="256">
      <path
         id="path7170-1"
         style="display:inline;fill:url(#linearGradient16438);fill-opacity:1.0;stroke-width:0.728747"
         d="m 237.08457,313.49091 c -3.30738,3.75023 -3.76667,6.47009 -2.19437,9.93095 0.53155,1.16998 13.57064,11.95366 32.75471,27.08829 17.529,13.82896 32.05701,25.44771 32.28619,25.81941 15.1589,11.91974 28.09612,22.01229 41.03041,31.85301 1.44429,1.09938 15.5673,12.33601 31.38552,24.96827 53.33117,42.58952 49.10356,39.45339 53.22787,39.45791 3.22502,0.004 3.95936,-0.32133 6.98411,-3.08911 1.85937,-1.70143 4.64411,-4.68117 6.18666,-6.61936 2.37133,-2.9805 2.80252,-4.06138 2.80574,-7.01577 0.005,-4.35767 2.2599,-2.31145 -33.75343,-30.66307 l -28.27443,-22.25841 c -10.87963,-8.56328 -28.55788,-22.98399 -41.05495,-32.69142 l -41.77628,-33.03236 c -22.97754,-18.16879 -42.62655,-33.20183 -43.66086,-33.40391 -3.52203,-0.6881 -5.84367,0.40768 -11.65926,5.49607 -1.7653,1.54457 -3.18516,2.90943 -4.28763,4.1595 z" />
      <path
         id="path7170-1-0"
         style="display:inline;fill:url(#linearGradient16438);fill-opacity:1.0;stroke-width:0.728747"
         d="m 433.80912,307.25062 c -2.87953,-4.08794 -5.41835,-5.16637 -9.14973,-4.44085 -1.26145,0.24529 -14.77861,10.4233 -33.95494,25.56773 -17.52197,13.83787 -32.19718,25.27014 -32.61194,25.40673 -15.1145,11.976 -27.93577,22.21544 -40.51142,32.51052 -1.40476,1.14945 -15.61423,12.27655 -31.57488,24.72835 -53.81123,41.98134 -49.77898,38.59771 -50.74126,42.60819 -0.75291,3.13591 -0.60703,3.92573 1.38257,7.51059 1.22306,2.20369 3.47455,5.60433 5.00149,7.55486 2.34825,2.99871 3.29943,3.66914 6.17228,4.35845 4.23736,1.01693 1.72338,2.73493 37.66392,-25.70891 l 28.21657,-22.3317 c 10.85594,-8.59329 28.98814,-22.4389 41.33261,-32.33967 l 41.83174,-32.96209 c 23.00857,-18.12949 42.19407,-33.74974 42.63084,-34.70884 1.48728,-3.26591 0.96067,-5.77856 -2.63789,-12.61692 -1.09234,-2.07575 -2.09011,-3.77378 -3.04996,-5.13644 z" />
    </g>
  </g>
</svg>
