<?xml version="1.0" encoding="UTF-8" standalone="no"?>
<svg
   viewBox="0 0 24 24"
   version="1.1"
   id="svg1"
   sodipodi:docname="accidentals.svg"
   xml:space="preserve"
   inkscape:version="1.3.2 (091e20ef0f, 2023-11-25)"
   xmlns:inkscape="http://www.inkscape.org/namespaces/inkscape"
   xmlns:sodipodi="http://sodipodi.sourceforge.net/DTD/sodipodi-0.dtd"
   xmlns="http://www.w3.org/2000/svg"
   xmlns:svg="http://www.w3.org/2000/svg"><defs
     id="defs1" /><sodipodi:namedview
     id="namedview1"
     pagecolor="#ffffff"
     bordercolor="#000000"
     borderopacity="0.25"
     inkscape:showpageshadow="2"
     inkscape:pageopacity="0.0"
     inkscape:pagecheckerboard="0"
     inkscape:deskcolor="#d1d1d1"
     inkscape:zoom="10.622182"
     inkscape:cx="19.299236"
     inkscape:cy="25.842148"
     inkscape:window-width="1920"
     inkscape:window-height="1012"
     inkscape:window-x="0"
     inkscape:window-y="0"
     inkscape:window-maximized="1"
     inkscape:current-layer="svg1" /><path
     d="m 3.3434853,16.090405 c 4.86,-2.74 6.9999997,-5.09 6.9999997,-7.0000003 0,-1.41 -0.7099997,-3 -2.9999997,-3 -0.7,0 -1.39,0.28 -2,0.67 v -4.67 h -2 m 2,10.3800003 V 9.3504047 c 0.62,-0.67 1.45,-1.26 2,-1.26 0.59,0 1,0.07 1,1 0,0.15 -0.1,1.3000003 -3,3.3800003 z"
     id="path1" /><path
     d="m 21.30653,13.119951 v -2 l -2,0.6 V 9.1199515 h -2 v 3.1999995 l -2,0.6 v -2.8 h -2 v 3.4 l -2,0.6 v 2 l 2,-0.6 v 2 l -2,0.6 v 2 l 2,-0.6 v 2.6 h 2 v -3.2 l 2,-0.6 v 2.8 h 2 v -3.4 l 2,-0.6 v -2 l -2,0.6 v -2 l 2,-0.6 m -4,3.2 -2,0.6 v -2 l 2,-0.6 z"
     id="path1-5" /></svg>
