<?xml version="1.0" encoding="UTF-8" standalone="no"?>
<svg
   height="48"
   width="48"
   version="1.1"
   id="svg4"
   sodipodi:docname="bass_head.svg"
   inkscape:version="1.3.2 (091e20ef0f, 2023-11-25)"
   xml:space="preserve"
   xmlns:inkscape="http://www.inkscape.org/namespaces/inkscape"
   xmlns:sodipodi="http://sodipodi.sourceforge.net/DTD/sodipodi-0.dtd"
   xmlns="http://www.w3.org/2000/svg"
   xmlns:svg="http://www.w3.org/2000/svg"><defs
     id="defs8" /><sodipodi:namedview
     id="namedview6"
     pagecolor="#ffffff"
     bordercolor="#666666"
     borderopacity="1.0"
     inkscape:showpageshadow="2"
     inkscape:pageopacity="0.0"
     inkscape:pagecheckerboard="0"
     inkscape:deskcolor="#d1d1d1"
     showgrid="false"
     inkscape:zoom="13.040504"
     inkscape:cx="20.12959"
     inkscape:cy="26.571059"
     inkscape:window-width="1920"
     inkscape:window-height="1011"
     inkscape:window-x="0"
     inkscape:window-y="0"
     inkscape:window-maximized="1"
     inkscape:current-layer="svg4" /><path
     id="path1"
     style="fill:#000000;stroke-width:0.238616"
     d="m 36.378906,1.9804688 c -1.238574,-0.033862 -2.490311,0.5215373 -3.195312,1.7578124 -0.618466,1.08452 -0.647587,2.4435324 -0.07422,3.578125 0.436663,0.8640707 0.657211,1.0568201 1.804687,1.5800782 0.477916,0.2179402 0.870584,0.4179017 1.083985,0.546875 -1.573997,1.0311706 -2.889808,1.8807016 -2.894531,1.7792966 -0.0098,-0.209768 0.06471,-0.529493 0.166015,-0.710937 C 33.370724,10.330211 33.34877,9.6598773 33.2207,9.0234375 32.577799,5.8284988 28.11143,5.0980564 26.5,7.9238281 c -0.618461,1.08452 -0.645634,2.4435319 -0.07227,3.5781249 0.436662,0.86407 0.657211,1.056821 1.804688,1.580078 0.718434,0.327623 1.282559,0.632868 1.255859,0.679688 -0.198247,0.347642 -3.076262,1.646608 -3.271484,1.476562 -0.1359,-0.118365 -0.16456,-0.645385 -0.06445,-1.171875 0.529479,-2.784547 -1.648157,-4.974039 -4.4375,-4.4628904 -2.287053,0.4191044 -3.541928,3.4962764 -2.261719,5.5449224 0.376902,0.603131 0.76426,0.901478 1.722656,1.324218 0.680383,0.300125 1.209481,0.593264 1.175781,0.652344 -0.178926,0.313761 -3.321022,1.23316 -3.544921,1.037109 -0.14491,-0.126887 -0.179763,-0.668543 -0.07813,-1.203125 0.101649,-0.534582 0.06095,-1.423612 -0.08984,-1.974609 -0.247503,-0.904381 -0.398544,-1.073407 -1.564453,-1.738281 -1.470528,-0.838589 -2.693012,-0.86986 -3.88086,-0.09961 -0.894512,0.580036 -1.712405,2.041802 -1.697265,3.03125 0.01891,1.23606 0.780116,2.573638 1.794922,3.152344 l 0.464843,0.265625 c -1.188912,0.340729 -2.7018,0.76192 -2.71289,0.955078 -0.08146,1.418872 1.013111,5.706572 0.49414,7.060547 C 11.393554,28.137409 9.9171881,29.667162 6.1738281,33.25 1.3361456,37.880237 5.2581193,34.098274 0.81835938,38.421875 l 8.66015622,8.822266 c 3.2567504,-3.407207 1.0298154,-1.121348 4.2558594,-4.511719 5.241047,-5.508013 5.96388,-6.184635 6.800781,-6.357422 1.598506,-0.330028 4.174985,-0.375752 5.932057,-0.749484 1.532023,-0.325862 1.574547,-0.199534 1.775675,-0.788847 1.687374,-5.046838 4.211726,-7.809834 10.279121,-12.34114 1.082915,-0.736096 1.50433,-0.90342 2.718379,-1.352283 4.033758,-1.491378 4.023339,-0.07152 4.589931,-1.561079 0.192993,-4.371248 -1.363874,-12.7427389 -1.838943,-13.6079341 -1.314134,-0.4153745 -2.75769,0.061481 -4.198407,0.9945171 0.0049,-0.2069304 0.06828,-0.4780191 0.160156,-0.6425781 0.101194,-0.1815084 0.07924,-0.8518414 -0.04883,-1.4882813 -0.361633,-1.797153 -1.932938,-2.8138844 -3.525391,-2.8574218 z m 6.066946,15.4313602 c -0.07886,0.420737 -3.057555,0.420425 -5.282134,1.710087 -3.409549,2.23296 -7.574762,5.281808 -10.827685,9.704201 l -1.689649,3.000507 c -0.952871,0.440348 -1.968948,0.388719 -2.99008,0.44219 -0.658621,0.05271 -1.323298,0.109596 -1.476654,0.126855 -0.163465,0.01841 -1.606841,-1.725199 -2.767086,-2.917173 l -1.978375,-2.033963 0.118304,-0.860907 c 0.152534,-1.111038 -0.03413,-1.282304 -0.213802,-3.423673 1.56822,-0.801734 4.935852,-1.908989 6.171363,-2.275307 5.91106,-1.91958 9.18228,-3.468591 12.745412,-5.918021 1.507088,-0.954194 6.544335,-4.637068 7.47378,-4.749967 0.346805,-0.0016 1.049551,6.398951 0.716606,7.195171 z M 8.8198828,36.141667 c 0.2208208,0.05917 2.8202242,2.728077 2.7873532,2.858081 -0.0364,0.143937 -2.2720861,2.472993 -2.3974221,2.427646 -0.1640855,-0.05936 -2.8596845,-2.960249 -2.8366741,-3.046124 0.054225,-0.20237 2.319864,-2.273597 2.446743,-2.239603 z M 13.748331,31.57001 c 0.220821,0.05917 2.820224,2.728077 2.787353,2.858081 -0.0364,0.143937 -2.272086,2.472993 -2.397422,2.427646 -0.164085,-0.05936 -2.859684,-2.960249 -2.836674,-3.046124 0.05422,-0.20237 2.319864,-2.273597 2.446743,-2.239603 z"
     sodipodi:nodetypes="sssscccssscsccssccscssscccscsccsssccsccccsssccccccccccccccsccsssssss" /></svg>
