<?xml version="1.0" encoding="UTF-8" standalone="no"?>
<svg
   height="48"
   width="48"
   version="1.1"
   id="svg4"
   sodipodi:docname="guitar_head.svg"
   inkscape:version="1.3.2 (091e20ef0f, 2023-11-25)"
   xml:space="preserve"
   xmlns:inkscape="http://www.inkscape.org/namespaces/inkscape"
   xmlns:sodipodi="http://sodipodi.sourceforge.net/DTD/sodipodi-0.dtd"
   xmlns="http://www.w3.org/2000/svg"
   xmlns:svg="http://www.w3.org/2000/svg"><defs
     id="defs8" /><sodipodi:namedview
     id="namedview6"
     pagecolor="#ffffff"
     bordercolor="#666666"
     borderopacity="1.0"
     inkscape:showpageshadow="2"
     inkscape:pageopacity="0.0"
     inkscape:pagecheckerboard="0"
     inkscape:deskcolor="#d1d1d1"
     showgrid="false"
     inkscape:zoom="9.5914345"
     inkscape:cx="6.6204904"
     inkscape:cy="25.491494"
     inkscape:window-width="1920"
     inkscape:window-height="1011"
     inkscape:window-x="0"
     inkscape:window-y="0"
     inkscape:window-maximized="1"
     inkscape:current-layer="svg4" /><path
     d="M 0.81801657,38.42137 C 5.2577823,34.097767 1.3368463,37.880012 6.1745333,33.249769 c 3.743364,-3.582842 5.2190477,-5.113208 5.3626067,-5.639285 0.325081,-1.1914 0.110849,-3.824158 -0.429346,-5.275781 -0.278451,-0.748262 -0.455147,-1.551288 -0.392655,-1.784509 0.06249,-0.233218 0.898761,-0.898817 1.858379,-1.479106 l 1.744758,-1.05507 -0.977651,-0.261962 c -1.128413,-0.302356 -2.205133,-1.403369 -2.536969,-2.594203 -0.265631,-0.953247 0.155728,-2.574693 0.873849,-3.362664 0.953614,-1.046372 2.14246,-1.325698 3.777611,-0.887563 1.296433,0.347378 1.486606,0.472284 1.955424,1.284302 0.285631,0.494724 0.549836,1.343672 0.58712,1.886553 0.03729,0.54288 0.208817,1.057399 0.381183,1.143376 0.266312,0.132839 3.072621,-1.55227 3.166105,-1.901156 0.01761,-0.0657 -0.568755,-0.215751 -1.303014,-0.33347 -1.034286,-0.165803 -1.485515,-0.355853 -2.003082,-0.84365 -1.758012,-1.656895 -1.324108,-4.9522684 0.781832,-5.9378104 2.56845,-1.201991 5.229744,0.364164 5.423925,3.191949 0.03672,0.534663 0.198871,1.0375874 0.360346,1.1176094 0.231974,0.114959 2.686976,-1.8721774 2.790553,-2.2587384 0.01395,-0.05206 -0.611226,-0.204806 -1.389269,-0.33947 -1.242679,-0.215069 -1.503406,-0.345147 -2.14497,-1.070191 -0.842421,-0.952041 -1.160522,-2.27391 -0.837392,-3.479842 0.841927,-3.14211296 5.347364,-3.56755196 6.779686,-0.640193 0.285321,0.583138 0.476348,1.224903 0.424508,1.426144 -0.05197,0.201207 -0.04299,0.529875 0.01968,0.730302 0.07946,0.254151 0.441531,-0.07958 1.196653,-1.102975 0.59549,-0.807066 1.259984,-1.548889 1.476652,-1.648498 0.305019,-0.140231 1.318179,0.308073 4.488832,1.98621 l 4.094897,2.167315 1.360759,2.610525 c 2.31041,4.4323634 2.864655,5.6119694 2.781906,5.9207864 -0.04387,0.163764 -0.707564,0.773748 -1.474859,1.355527 -0.767295,0.581778 -1.417114,1.140007 -1.444044,1.240509 -0.02693,0.10051 0.271843,0.150834 0.663942,0.111832 1.673825,-0.166461 3.533824,1.642042 3.587939,3.488605 0.07093,2.420164 -2.296165,4.326331 -4.604411,3.70784 -1.50425,-0.403063 -2.613912,-1.858432 -2.733839,-3.585553 l -0.06535,-0.941103 -1.262307,1.297366 c -0.694265,0.713555 -1.2251,1.42124 -1.179627,1.572642 0.05031,0.167509 0.576488,0.347289 1.344048,0.459226 1.650376,0.240668 2.690966,0.939972 3.183803,2.139596 1.23277,3.000711 -1.799473,6.159864 -4.736627,4.934873 -1.202406,-0.501482 -2.183245,-1.891644 -2.32264,-3.291922 -0.09426,-0.946915 -0.155803,-1.052843 -0.407127,-0.700798 -0.162848,0.2281 -0.620143,0.860051 -1.016225,1.404324 -1.152343,1.583488 -1.137698,1.624947 0.689422,1.952108 1.347308,0.241249 1.686787,0.388378 2.215317,0.96016 1.355023,1.465897 1.284621,3.999063 -0.149129,5.365836 -0.711867,0.678619 -2.446666,1.10641 -3.442273,0.848851 -0.987058,-0.255309 -2.350167,-1.653812 -2.511592,-2.576716 -0.0805,-0.4602 -0.208142,-0.855691 -0.283668,-0.878868 -0.07553,-0.02311 -0.508641,0.608725 -0.962473,1.404237 -0.453836,0.795506 -1.041808,1.648786 -1.306604,1.896183 -0.455001,0.425105 -0.566586,0.417582 -2.031432,-0.136955 -1.680027,-0.635997 -3.463324,-0.802416 -5.061832,-0.472387 -0.836902,0.172785 -1.561113,0.849674 -6.802164,6.35769 -3.226048,3.390377 -0.999129,1.105534 -4.255884,4.512741 m 2.308676,-8.350325 c 0.07428,-0.09501 -2.5301623,-2.693426 -2.7287624,-2.746638 -0.1141105,-0.03057 -2.3811423,2.077049 -2.4299102,2.259052 -0.020697,0.07724 2.7242849,3.029878 2.8377793,2.921501 0.8636863,-0.824747 1.2693463,-1.544144 2.3208883,-2.433911 z m 10.286784,-7.064296 c 0.831974,-0.06658 1.708961,0.0072 2.469387,0.207561 l 1.179216,0.310833 2.840565,-3.9568 c 3.449374,-4.804847 5.943492,-8.545412 9.198276,-11.393892 1.061878,-0.929321 3.523488,-3.325279 3.53592,-3.390024 0.01239,-0.06476 -0.521496,-1.131648 -1.186497,-2.370893 L 38.901045,8.9835366 36.594098,7.7537546 34.287151,6.5239766 31.03954,10.007082 c -3.176846,3.407209 -6.1131,5.951946 -11.797959,9.490002 l -3.668182,2.675151 0.241474,0.831227 c 0.304473,1.04809 0.394564,2.49151 0.230225,3.688535 l -0.127366,0.927703 2.132267,2.19059 c 1.250034,1.284229 2.256569,2.176581 2.432683,2.156751 0.165225,-0.0186 0.880989,-0.0803 1.590581,-0.13709 z m -5.50212,2.21079 c 0.08113,-0.08922 -2.530162,-2.693426 -2.728762,-2.746637 -0.11411,-0.03057 -2.381142,2.077048 -2.42991,2.259052 -0.0207,0.07724 2.725587,3.031225 2.837779,2.9215 0.927498,-0.907107 1.330475,-1.344718 2.320893,-2.433915 z"
     style="fill:#000000;stroke-width:0.238616"
     id="path1"
     sodipodi:nodetypes="csccsccsssscccsccsscsccsscsssscsssscssscssssssssssscsssssssccssssccsssscccsscscccsccccsssss" /></svg>
