<?xml version="1.0" encoding="UTF-8" standalone="no"?>
<svg
   height="48"
   width="48"
   version="1.1"
   id="svg4"
   sodipodi:docname="loop_section.svg"
   inkscape:version="1.2.1 (9c6d41e410, 2022-07-14)"
   xmlns:inkscape="http://www.inkscape.org/namespaces/inkscape"
   xmlns:sodipodi="http://sodipodi.sourceforge.net/DTD/sodipodi-0.dtd"
   xmlns="http://www.w3.org/2000/svg"
   xmlns:svg="http://www.w3.org/2000/svg">
  <defs
     id="defs8" />
  <sodipodi:namedview
     id="namedview6"
     pagecolor="#ffffff"
     bordercolor="#666666"
     borderopacity="1.0"
     inkscape:showpageshadow="2"
     inkscape:pageopacity="0.0"
     inkscape:pagecheckerboard="0"
     inkscape:deskcolor="#d1d1d1"
     showgrid="false"
     inkscape:zoom="14.86634"
     inkscape:cx="18.733596"
     inkscape:cy="28.789871"
     inkscape:window-width="1920"
     inkscape:window-height="963"
     inkscape:window-x="0"
     inkscape:window-y="0"
     inkscape:window-maximized="1"
     inkscape:current-layer="svg4" />
  <path
     id="path2"
     style="stroke-width:0.65192"
     d="M 30.519531 11.369141 C 30.258764 11.380005 30.02956 11.482159 29.833984 11.677734 C 29.638409 11.873311 29.547724 12.113987 29.558594 12.396484 C 29.569459 12.678983 29.671611 12.917705 29.867188 13.113281 L 31.953125 15.199219 L 15.851562 15.199219 C 15.569064 15.199219 15.335101 15.291854 15.150391 15.476562 C 14.965675 15.661273 14.873047 15.895236 14.873047 16.177734 L 14.873047 21.425781 C 14.873047 21.686549 14.96568 21.909039 15.150391 22.09375 C 15.335101 22.278466 15.569064 22.371094 15.851562 22.371094 C 16.134061 22.371094 16.368024 22.278461 16.552734 22.09375 C 16.737441 21.909039 16.828125 21.675077 16.828125 21.392578 L 16.828125 17.154297 L 31.953125 17.154297 L 29.833984 19.273438 C 29.638411 19.469012 29.541016 19.702976 29.541016 19.974609 C 29.541016 20.246242 29.638409 20.480205 29.833984 20.675781 C 30.02956 20.871354 30.263524 20.96875 30.535156 20.96875 C 30.80679 20.96875 31.040752 20.871356 31.236328 20.675781 L 35.050781 16.861328 C 35.246355 16.665752 35.34375 16.438502 35.34375 16.177734 C 35.34375 15.916966 35.246358 15.687763 35.050781 15.492188 L 31.203125 11.646484 C 31.007548 11.45091 30.780299 11.358271 30.519531 11.369141 z M 11.191406 19.621094 C 10.531687 19.621094 10 20.152781 10 20.8125 L 10 27.1875 C 10 27.847219 10.531687 28.378906 11.191406 28.378906 C 11.851126 28.378906 12.380859 27.847219 12.380859 27.1875 L 12.380859 25.191406 L 35.392578 25.191406 C 35.470329 25.191406 35.545655 25.184031 35.619141 25.169922 L 35.619141 27.1875 C 35.619141 27.84722 36.148874 28.378906 36.808594 28.378906 C 37.468314 28.378906 38 27.84722 38 27.1875 L 38 20.8125 C 38 20.15278 37.468314 19.621094 36.808594 19.621094 C 36.148874 19.621094 35.619141 20.15278 35.619141 20.8125 L 35.619141 22.830078 C 35.545655 22.815969 35.470329 22.808594 35.392578 22.808594 L 12.380859 22.808594 L 12.380859 20.8125 C 12.380859 20.152781 11.851126 19.621094 11.191406 19.621094 z M 3.1933594 22.806641 A 1.1934286 1.1934286 0 0 0 2 24 A 1.1934286 1.1934286 0 0 0 3.1933594 25.193359 A 1.1934286 1.1934286 0 0 0 4.3867188 24 A 1.1934286 1.1934286 0 0 0 3.1933594 22.806641 z M 7.1933594 22.806641 A 1.1934286 1.1934286 0 0 0 6 24 A 1.1934286 1.1934286 0 0 0 7.1933594 25.193359 A 1.1934286 1.1934286 0 0 0 8.3867188 24 A 1.1934286 1.1934286 0 0 0 7.1933594 22.806641 z M 40.806641 22.806641 A 1.1934286 1.1934286 0 0 0 39.613281 24 A 1.1934286 1.1934286 0 0 0 40.806641 25.193359 A 1.1934286 1.1934286 0 0 0 42 24 A 1.1934286 1.1934286 0 0 0 40.806641 22.806641 z M 44.806641 22.806641 A 1.1934286 1.1934286 0 0 0 43.613281 24 A 1.1934286 1.1934286 0 0 0 44.806641 25.193359 A 1.1934286 1.1934286 0 0 0 46 24 A 1.1934286 1.1934286 0 0 0 44.806641 22.806641 z M 32.148438 25.628906 C 31.86594 25.628906 31.631976 25.721539 31.447266 25.90625 C 31.26256 26.090961 31.171875 26.324924 31.171875 26.607422 L 31.171875 30.845703 L 16.046875 30.845703 L 18.166016 28.726562 C 18.361589 28.530986 18.458984 28.297023 18.458984 28.025391 C 18.458984 27.753758 18.361591 27.519796 18.166016 27.324219 C 17.970439 27.128646 17.736475 27.03125 17.464844 27.03125 C 17.193211 27.03125 16.959249 27.128644 16.763672 27.324219 L 12.949219 31.138672 C 12.753645 31.334249 12.65625 31.561498 12.65625 31.822266 C 12.65625 32.083032 12.753643 32.312236 12.949219 32.507812 L 16.796875 36.353516 C 16.992451 36.549091 17.219701 36.641729 17.480469 36.630859 C 17.741235 36.619994 17.970439 36.517841 18.166016 36.322266 C 18.361589 36.12669 18.458984 35.892726 18.458984 35.621094 C 18.458984 35.34946 18.350119 35.104025 18.132812 34.886719 L 16.046875 32.800781 L 32.148438 32.800781 C 32.430936 32.800781 32.664899 32.708147 32.849609 32.523438 C 33.034314 32.338727 33.126953 32.104764 33.126953 31.822266 L 33.126953 26.574219 C 33.126953 26.313451 33.034319 26.090961 32.849609 25.90625 C 32.664899 25.721544 32.430936 25.628906 32.148438 25.628906 z " />
</svg>
