<?xml version="1.0" encoding="UTF-8" standalone="no"?>
<svg
   height="48"
   width="48"
   version="1.1"
   id="svg4"
   sodipodi:docname="metronome.svg"
   inkscape:version="1.3.2 (091e20ef0f, 2023-11-25)"
   xml:space="preserve"
   inkscape:export-filename="metronome.png"
   inkscape:export-xdpi="96"
   inkscape:export-ydpi="96"
   xmlns:inkscape="http://www.inkscape.org/namespaces/inkscape"
   xmlns:sodipodi="http://sodipodi.sourceforge.net/DTD/sodipodi-0.dtd"
   xmlns="http://www.w3.org/2000/svg"
   xmlns:svg="http://www.w3.org/2000/svg"><defs
     id="defs8" /><sodipodi:namedview
     id="namedview6"
     pagecolor="#ffffff"
     bordercolor="#666666"
     borderopacity="1.0"
     inkscape:showpageshadow="2"
     inkscape:pageopacity="0.0"
     inkscape:pagecheckerboard="0"
     inkscape:deskcolor="#d1d1d1"
     showgrid="false"
     inkscape:zoom="6.4955751"
     inkscape:cx="3.540872"
     inkscape:cy="32.868529"
     inkscape:window-width="1920"
     inkscape:window-height="1011"
     inkscape:window-x="0"
     inkscape:window-y="0"
     inkscape:window-maximized="1"
     inkscape:current-layer="path8" /><style
     type="text/css"
     id="style1">
	.st0{fill:#010101;stroke:#000000;stroke-width:4;stroke-miterlimit:5;}
	.st1{display:none;fill:none;stroke:#FF94BB;stroke-width:0.25;stroke-miterlimit:5;}
	.st2{display:none;fill:none;stroke:#FF6AAC;stroke-width:0.25;stroke-miterlimit:5;}
</style><g
     id="g1"
     transform="matrix(0.49321682,0,0,0.49321682,-0.84352043,-6.8260513)"><g
       id="g3"><g
         id="g5"><g
           id="path1"
           class="st0"><g
             id="path6-6"
             transform="translate(14.14859,0.0926791)"
             style="stroke-width:2.83851;stroke-dasharray:none"><g
               id="path8"
               transform="translate(16.670431,3.4757)"
               style="stroke-width:0;stroke-dasharray:none"><path
                 id="path12"
                 style="color:#000000;fill:#010101;stroke-width:0;stroke-linecap:round;stroke-miterlimit:5;stroke-dasharray:none"
                 d="m 6.9476216,14.917728 c -1.6105826,0 -3.0524159,0.995638 -3.4148077,2.668623 l -0.00735,0.03308 c -0.00161,0.0078 -0.00578,0.01422 -0.00735,0.02205 L -16.687699,99.582174 c -0.247732,0.825776 -0.0806,1.752226 0.433742,2.389256 0.514337,0.63703 1.313811,0.97409 2.128282,0.97409 h 65.440067 c 0.81447,0 1.609149,-0.33808 2.124605,-0.97409 0.515458,-0.636 0.68561,-1.56196 0.43742,-2.389256 l -11.924259,-49.692992 4.594736,-8.575615 9.189472,-5.381354 -4.594736,-2.800951 4.35581,-7.660344 c 0.485924,-0.777479 0.486652,-1.650481 0.257305,-2.396615 -0.229347,-0.746133 -0.708111,-1.43977 -1.477667,-1.8673 -0.736962,-0.409423 -1.546937,-0.502149 -2.326775,-0.352876 -0.779836,0.149275 -1.600601,0.585183 -2.065793,1.42253 l -4.160993,7.516989 -4.124235,-2.569377 -0.676345,10.549514 -1.35269,2.580403 -5.914344,-22.782539 0.0147,0.06984 c -0.341524,-1.707613 -1.796894,-2.72376 -3.425835,-2.72376 z m 19.7794194,7.998516 c 2.278041,9.699942 4.381686,19.066945 6.814913,28.729966 L 20.17311,76.733467 H -2.3374207 c -0.05015,0 -0.084204,8.9e-5 -0.036758,-0.158058 l 0.00735,-0.02941 13.4092767,-53.398182 z m 9.343855,38.393614 3.370698,15.243496 c 0.02179,0.120748 -0.0046,0.168712 -0.01103,0.180113 H 27.940052 Z" /></g></g></g></g></g><line
       class="st1"
       x1="63"
       y1="5.0999999"
       x2="91"
       y2="118.4"
       id="line1" /><line
       class="st1"
       x1="39.200001"
       y1="-9.3999996"
       x2="7.5999999"
       y2="118.2"
       id="line2" /><line
       class="st1"
       x1="93.099998"
       y1="1.8"
       x2="33.900002"
       y2="112.2"
       id="line3" /><line
       class="st1"
       x1="100.8"
       y1="5.9000001"
       x2="41.700001"
       y2="116.2"
       id="line4" /><line
       class="st2"
       x1="72.599998"
       y1="26.700001"
       x2="92.800003"
       y2="39.099998"
       id="line5" /></g></svg>
