<?xml version="1.0" encoding="UTF-8" standalone="no"?>
<svg
   height="48"
   width="48"
   version="1.1"
   id="svg4"
   sodipodi:docname="microphone.svg"
   inkscape:version="1.3.2 (091e20ef0f, 2023-11-25)"
   xml:space="preserve"
   xmlns:inkscape="http://www.inkscape.org/namespaces/inkscape"
   xmlns:sodipodi="http://sodipodi.sourceforge.net/DTD/sodipodi-0.dtd"
   xmlns="http://www.w3.org/2000/svg"
   xmlns:svg="http://www.w3.org/2000/svg"><defs
     id="defs8" /><sodipodi:namedview
     id="namedview6"
     pagecolor="#ffffff"
     bordercolor="#666666"
     borderopacity="1.0"
     inkscape:showpageshadow="2"
     inkscape:pageopacity="0.0"
     inkscape:pagecheckerboard="0"
     inkscape:deskcolor="#d1d1d1"
     showgrid="false"
     inkscape:zoom="6.5541755"
     inkscape:cx="5.7215434"
     inkscape:cy="21.589291"
     inkscape:window-width="1920"
     inkscape:window-height="1011"
     inkscape:window-x="0"
     inkscape:window-y="0"
     inkscape:window-maximized="1"
     inkscape:current-layer="svg4" /><path
     style="fill:#000000;stroke-width:0.104435"
     d="M 28.843597,46.569674 C 28.645849,46.352983 28.175111,45.22786 28.03652,45.069411 l -0.251979,-0.288099 0.682924,-0.663066 c 1.493819,-1.450371 1.831778,-3.323661 0.94247,-5.224071 -0.825244,-1.763515 -2.532963,-2.760893 -4.546268,-2.655219 -0.730002,0.03829 -1.010476,0.107032 -1.600068,0.392052 -0.642524,0.310608 -1.053406,0.685271 -4.058291,3.700571 -2.291894,2.299839 -3.528991,3.464039 -3.933574,3.701774 -3.24179,1.904922 -7.3569639,0.787125 -9.0446179,-2.456764 -0.536611,-1.031431 -0.749943,-1.900616 -0.751952,-3.063721 -0.0016,-1.019607 0.184095,-1.845198 0.632043,-2.807509 l 0.312238,-0.670756 0.659616,0.720616 1.6977886,1.331293 -0.169851,0.460072 c -0.2416484,0.65455 -0.2314471,1.782708 0.02206,2.437686 0.832027,2.149849 2.7911923,2.96002 4.7816533,1.824112 0.20789,-0.118636 1.865626,-1.527003 3.413249,-3.05795 2.604371,-2.576301 4.085386,-4.249148 4.893792,-4.615456 1.601019,-0.725467 2.979929,-0.892421 4.624414,-0.559898 2.217821,0.448451 4.191351,1.920802 5.208779,3.886017 0.633767,1.224151 0.873709,2.21786 0.876022,3.627849 0.0029,2.022358 -0.581163,3.439019 -2.03611,4.935205 -0.502488,0.516738 -0.975282,0.939519 -1.05066,0.939519 -0.07541,0 -0.298824,-0.177295 -0.496571,-0.393994 z m -17.1039,-10.041006 c -0.258475,-0.05253 -0.867827,-0.291886 -1.354116,-0.531902 -1.8465403,-0.911397 -3.3157329,-2.89847 -3.4271949,-4.635269 -0.0275,-0.428673 0.0033,-0.910393 0.07237,-1.118596 0.0783,-0.237323 2.4842886,-3.092364 6.8546779,-8.134093 l 6.733994,-7.768414 -0.0797,-0.626608 c -0.152645,-1.19986 -0.07377,-3.16826 0.166658,-4.1596518 1.057859,-4.36195 4.399938,-7.561313 8.753145,-8.379354 1.245239,-0.23400604 3.606375,-0.16194 4.751968,0.145037 2.369105,0.634834 4.388183,1.943487 5.889324,3.81713 0.787635,0.983085 1.714463,2.779723 2.0271,3.929498 1.480239,5.4438018 -1.286034,11.0453188 -6.525815,13.2143308 -1.408979,0.583253 -2.766915,0.809116 -4.489758,0.74679 -0.804143,-0.02906 -1.558063,-0.08346 -1.675362,-0.120823 -0.17364,-0.05533 -1.649197,1.177225 -7.937039,6.629753 -4.248067,3.683718 -7.84565,6.762266 -7.994622,6.841215 -0.369361,0.19573 -1.197043,0.266494 -1.765615,0.150957 z m 6.918774,-9.947044 c 1.50563,-1.304751 6.136454,-5.725871 6.142248,-5.741351 0.0058,-0.01547 -0.04919,-0.04974 -0.122181,-0.07613 -0.178699,-0.06462 -0.640464,-0.42831 -0.899834,-0.696335 -0.45204,-0.437244 -0.817171,-0.977532 -1.183533,-1.465058 l -5.780256,6.095698 c -2.260181,2.609452 -5.427879,6.024337 -5.424935,6.165212 0.008,0.383451 0.466989,0.97432 0.941063,1.211489 0.491091,0.245683 3.234312,-2.813079 6.327428,-5.493521 z m 14.280481,-7.866571 c 0.771283,-0.193972 1.845559,-0.728496 2.511781,-1.249782 2.695259,-2.108896 3.334301,-6.04276 1.450413,-8.9285876 -1.972565,-3.0216675 -5.960574,-3.9481338 -9.069046,-2.10686 -0.737075,0.4366016 -1.866391,1.5297893 -2.24982,2.177839 -0.763652,1.2907136 -1.041379,2.3910696 -0.983782,3.8977706 0.04263,1.114891 0.237161,1.876544 0.711513,2.785702 0.992948,1.903109 2.944955,3.282711 5.061481,3.577253 0.677959,0.09434 1.864362,0.02347 2.56746,-0.153335 z"
     id="path2"
     sodipodi:nodetypes="cscsscsscscscccscssssscssccssccscccsssssccccsscccscccscccssccsscc" /></svg>
