<?xml version="1.0" encoding="UTF-8" standalone="no"?>
<svg
   height="48"
   width="48"
   version="1.1"
   id="svg4"
   sodipodi:docname="quavers_three.svg"
   inkscape:version="1.3.2 (091e20ef0f, 2023-11-25)"
   xml:space="preserve"
   xmlns:inkscape="http://www.inkscape.org/namespaces/inkscape"
   xmlns:sodipodi="http://sodipodi.sourceforge.net/DTD/sodipodi-0.dtd"
   xmlns="http://www.w3.org/2000/svg"
   xmlns:svg="http://www.w3.org/2000/svg"><defs
     id="defs8" /><sodipodi:namedview
     id="namedview6"
     pagecolor="#ffffff"
     bordercolor="#666666"
     borderopacity="1.0"
     inkscape:showpageshadow="2"
     inkscape:pageopacity="0.0"
     inkscape:pagecheckerboard="0"
     inkscape:deskcolor="#d1d1d1"
     showgrid="false"
     inkscape:zoom="6.1577786"
     inkscape:cx="15.102849"
     inkscape:cy="18.431972"
     inkscape:window-width="1920"
     inkscape:window-height="1011"
     inkscape:window-x="0"
     inkscape:window-y="0"
     inkscape:window-maximized="1"
     inkscape:current-layer="svg4" /><path
     id="path1"
     style="fill:#000000;stroke:none;stroke-width:0.0333332"
     d="m 13.333985,12 v 14.068359 c -0.4,-0.244449 -0.816701,-0.430484 -1.25,-0.552734 -0.433349,-0.1222 -0.90682,-0.181641 -1.417969,-0.181641 -1.4666475,0 -2.7211775,0.521959 -3.7656255,1.566406 -1.044447,1.044448 -1.566406,2.298978 -1.566406,3.765625 0,1.466698 0.521959,2.721178 1.566406,3.765625 C 7.9448385,35.476089 9.1993685,36 10.666016,36 12.132714,36 13.387193,35.476089 14.431641,34.43164 15.476088,33.387193 16,32.132663 16,30.666015 v -13.33203 h 10.666015 v 8.734374 c -0.400001,-0.244449 -0.81665,-0.430534 -1.25,-0.552734 C 24.982717,25.393375 24.51115,25.333984 24,25.333984 c -1.466646,0 -2.721176,0.521959 -3.765625,1.566406 -1.044348,1.044448 -1.56836,2.298978 -1.56836,3.765625 0,1.466698 0.523961,2.721178 1.56836,3.765625 C 21.278872,35.476089 22.533353,36 24,36 c 1.466644,0 2.721226,-0.523911 3.765625,-1.56836 1.044499,-1.044447 1.568359,-2.298977 1.568359,-3.765625 V 17.333985 H 40 v 8.734374 c -0.4,-0.244449 -0.816649,-0.430484 -1.25,-0.552734 -0.433349,-0.1222 -0.904914,-0.181641 -1.416014,-0.181641 -1.4667,0 -2.72118,0.521959 -3.765625,1.566406 C 32.52391,27.944838 32,29.199368 32,30.666015 c 0,1.466698 0.52391,2.721178 1.568361,3.765625 C 34.612805,35.476089 35.867336,36 37.333985,36 c 1.466645,0 2.721174,-0.523911 3.765625,-1.56836 1.044445,-1.044447 1.566405,-2.298977 1.566405,-3.765625 V 12 Z" /></svg>
