<?xml version="1.0" encoding="UTF-8" standalone="no"?>
<svg
   height="48"
   width="48"
   version="1.1"
   id="svg12"
   sodipodi:docname="repeat_off.svg"
   xml:space="preserve"
   inkscape:version="1.2.1 (9c6d41e410, 2022-07-14)"
   xmlns:inkscape="http://www.inkscape.org/namespaces/inkscape"
   xmlns:sodipodi="http://sodipodi.sourceforge.net/DTD/sodipodi-0.dtd"
   xmlns="http://www.w3.org/2000/svg"
   xmlns:svg="http://www.w3.org/2000/svg"><defs
     id="defs16" /><sodipodi:namedview
     id="namedview14"
     pagecolor="#ffffff"
     bordercolor="#666666"
     borderopacity="1.0"
     inkscape:showpageshadow="2"
     inkscape:pageopacity="0.0"
     inkscape:pagecheckerboard="0"
     inkscape:deskcolor="#d1d1d1"
     showgrid="false"
     inkscape:zoom="11.355014"
     inkscape:cx="13.16599"
     inkscape:cy="26.06778"
     inkscape:window-width="1920"
     inkscape:window-height="963"
     inkscape:window-x="0"
     inkscape:window-y="0"
     inkscape:window-maximized="1"
     inkscape:current-layer="svg12" /><path
     id="path10"
     d="M 34 4.625 C 33.6 4.6416667 33.249217 4.79961 32.949219 5.0996094 C 32.649219 5.3996088 32.508724 5.7658863 32.525391 6.1992188 C 32.542057 6.6325511 32.7 7.0007818 33 7.3007812 L 36.199219 10.5 L 14.533203 10.5 L 17.533203 13.5 L 36.199219 13.5 L 32.949219 16.75 C 32.649219 17.05 32.5 17.407552 32.5 17.824219 C 32.5 18.240884 32.649219 18.600391 32.949219 18.900391 C 33.249217 19.200389 33.608724 19.349609 34.025391 19.349609 C 34.442056 19.349609 34.799611 19.200389 35.099609 18.900391 L 40.949219 13.050781 C 41.249217 12.750783 41.400391 12.4 41.400391 12 C 41.400391 11.6 41.249217 11.249217 40.949219 10.949219 L 35.050781 5.0507812 C 34.750783 4.7507819 34.4 4.6083333 34 4.625 z M 5.2753906 6.0996094 C 4.858724 6.0996094 4.4992184 6.2507816 4.1992188 6.5507812 C 3.899219 6.850781 3.75 7.2083334 3.75 7.625 C 3.75 8.0416666 3.899219 8.3992191 4.1992188 8.6992188 L 10 14.492188 L 10 20.050781 C 10 20.450781 10.142449 20.790886 10.425781 21.074219 C 10.709114 21.357551 11.066667 21.5 11.5 21.5 C 11.933333 21.5 12.290886 21.357551 12.574219 21.074219 C 12.857551 20.790886 13 20.433333 13 20 L 13 17.488281 L 30.037109 34.5 L 11.800781 34.5 L 15.050781 31.25 C 15.350781 30.95 15.5 30.592448 15.5 30.175781 C 15.5 29.759116 15.350781 29.399609 15.050781 29.099609 C 14.750783 28.799611 14.391276 28.650391 13.974609 28.650391 C 13.557944 28.650391 13.200389 28.799611 12.900391 29.099609 L 7.0507812 34.949219 C 6.7507818 35.249217 6.5996094 35.6 6.5996094 36 C 6.5996094 36.4 6.7507819 36.750783 7.0507812 37.050781 L 12.949219 42.949219 C 13.249217 43.249217 13.6 43.391667 14 43.375 C 14.4 43.358333 14.750783 43.200389 15.050781 42.900391 C 15.350781 42.600391 15.5 42.240884 15.5 41.824219 C 15.5 41.407552 15.333333 41.032551 15 40.699219 L 11.800781 37.5 L 33.041016 37.5 L 39.650391 44.099609 C 39.95039 44.399609 40.307943 44.550781 40.724609 44.550781 C 41.141276 44.550781 41.500782 44.399609 41.800781 44.099609 C 42.100781 43.79961 42.25 43.450781 42.25 43.050781 C 42.25 42.650782 42.100781 42.3 41.800781 42 L 6.3496094 6.5507812 C 6.0496097 6.2507815 5.6920572 6.0996094 5.2753906 6.0996094 z M 36.5 26.5 C 36.066667 26.5 35.709114 26.642449 35.425781 26.925781 C 35.142449 27.209114 35 27.566667 35 28 L 35 30.96875 L 38 33.96875 L 38 27.949219 C 38 27.549219 37.857551 27.209114 37.574219 26.925781 C 37.290886 26.642449 36.933333 26.5 36.5 26.5 z " /></svg>
