<?xml version="1.0" encoding="UTF-8" standalone="no"?>
<svg
   height="48"
   width="48"
   version="1.1"
   id="svg4"
   sodipodi:docname="crochets_four.svg"
   inkscape:version="1.3.2 (091e20ef0f, 2023-11-25)"
   xml:space="preserve"
   xmlns:inkscape="http://www.inkscape.org/namespaces/inkscape"
   xmlns:sodipodi="http://sodipodi.sourceforge.net/DTD/sodipodi-0.dtd"
   xmlns="http://www.w3.org/2000/svg"
   xmlns:svg="http://www.w3.org/2000/svg"><defs
     id="defs8" /><sodipodi:namedview
     id="namedview6"
     pagecolor="#ffffff"
     bordercolor="#666666"
     borderopacity="1.0"
     inkscape:showpageshadow="2"
     inkscape:pageopacity="0.0"
     inkscape:pagecheckerboard="0"
     inkscape:deskcolor="#d1d1d1"
     showgrid="false"
     inkscape:zoom="11.740333"
     inkscape:cx="14.90588"
     inkscape:cy="20.995997"
     inkscape:window-width="1920"
     inkscape:window-height="1011"
     inkscape:window-x="0"
     inkscape:window-y="0"
     inkscape:window-maximized="1"
     inkscape:current-layer="svg4" /><path
     id="path1"
     style="fill:#000000;stroke:none;stroke-width:0.0333332"
     d="m 8.6679694,12 v 14.066406 c -0.399999,-0.244449 -0.8167,-0.428581 -1.25,-0.550781 -0.433349,-0.12225 -0.9068692,-0.183594 -1.4179687,-0.183594 -1.4666485,0 -2.721176,0.525864 -3.765625,1.570313 -1.044399,1.044449 -1.56640615,2.299026 -1.56640615,3.765625 0,1.466698 0.52200715,2.721176 1.56640615,3.765625 C 3.2788747,35.477993 4.5333522,36 6.0000007,36 7.4666494,36 8.7211764,35.477993 9.7656254,34.433594 10.810024,33.389145 11.332032,32.134617 11.332032,30.667969 V 19 h 9.335937 v 7.066406 c -0.399999,-0.244449 -0.81665,-0.428581 -1.25,-0.550781 C 18.98467,25.393375 18.5111,25.332031 18,25.332031 c -1.466648,0 -2.721176,0.525864 -3.765625,1.570313 -1.044399,1.044449 -1.566406,2.299026 -1.566406,3.765625 0,1.466698 0.522007,2.721176 1.566406,3.765625 C 15.278874,35.477993 16.533402,36 18,36 c 1.466649,0 2.721176,-0.522007 3.765625,-1.566406 1.044399,-1.044449 1.566407,-2.298977 1.566407,-3.765625 V 19 h 9.335938 v 7.066406 c -0.4,-0.244449 -0.816652,-0.428581 -1.25,-0.550781 C 30.98467,25.393375 30.5111,25.332031 30,25.332031 c -1.466647,0 -2.721175,0.525864 -3.765625,1.570313 -1.0444,1.044449 -1.566406,2.299026 -1.566406,3.765625 0,1.466698 0.521956,2.721176 1.566406,3.765625 C 27.278775,35.477993 28.533353,36 30,36 c 1.466648,0 2.721175,-0.522007 3.765625,-1.566406 1.0444,-1.044449 1.566408,-2.298977 1.566405,-3.765625 V 19 h 9.33594 v 7.066406 c -0.4,-0.244449 -0.816652,-0.428581 -1.25,-0.550781 C 42.98467,25.393375 42.5111,25.332031 42,25.332031 c -1.466647,0 -2.721175,0.525864 -3.765625,1.570313 -1.0444,1.044449 -1.566407,2.299026 -1.566405,3.765625 0,1.466698 0.522005,2.721176 1.566405,3.765625 C 39.278875,35.477993 40.533403,36 42,36 c 1.466648,0 2.721175,-0.522007 3.765625,-1.566406 1.0444,-1.044449 1.566405,-2.298977 1.566405,-3.765625 V 12 Z m 2.6640626,3 h 9.335937 v 1.5 h -9.335937 z m 12,0 h 9.335938 v 1.5 h -9.335938 z m 11.999998,0 h 9.33594 v 1.5 h -9.33594 z"
     sodipodi:nodetypes="cccscscscsccccscscscsccccscsssccccccscscscsccccccccccccccccc" /></svg>
