<?xml version="1.0" encoding="UTF-8" standalone="no"?>
<svg
   height="48"
   width="48"
   version="1.1"
   id="svg4"
   sodipodi:docname="sine_wave.svg"
   inkscape:version="1.3.2 (091e20ef0f, 2023-11-25)"
   xml:space="preserve"
   xmlns:inkscape="http://www.inkscape.org/namespaces/inkscape"
   xmlns:sodipodi="http://sodipodi.sourceforge.net/DTD/sodipodi-0.dtd"
   xmlns="http://www.w3.org/2000/svg"
   xmlns:svg="http://www.w3.org/2000/svg"><defs
     id="defs8" /><sodipodi:namedview
     id="namedview6"
     pagecolor="#ffffff"
     bordercolor="#666666"
     borderopacity="1.0"
     inkscape:showpageshadow="2"
     inkscape:pageopacity="0.0"
     inkscape:pagecheckerboard="0"
     inkscape:deskcolor="#d1d1d1"
     showgrid="false"
     inkscape:zoom="14.323605"
     inkscape:cx="33.580932"
     inkscape:cy="34.802691"
     inkscape:window-width="1920"
     inkscape:window-height="1011"
     inkscape:window-x="0"
     inkscape:window-y="0"
     inkscape:window-maximized="1"
     inkscape:current-layer="svg4" /><path
     id="path1"
     style="color:#000000;fill:#000000;stroke-linecap:round;stroke-miterlimit:10;-inkscape-stroke:none"
     d="m 12.693359,8.7988281 c -3.2077626,0 -5.6564539,2.0943579 -7.537109,4.8867189 -1.8806551,2.79236 -3.6622441,7.325813 -5.0938415,10.864989 l 1.9817589,0.659578 c 1.4284074,-3.531291 3.1810326,-7.82853 4.8718482,-10.33902 1.6908157,-2.510492 3.4772134,-3.951172 5.7773434,-3.951172 2.300132,0 4.022947,1.428571 5.650391,3.935547 1.627444,2.506974 2.99998,5.994062 4.376953,9.529297 1.376974,3.535234 2.759229,7.118186 4.574219,9.914062 1.81499,2.795876 4.221924,4.902344 7.429687,4.902344 3.211289,0 5.735809,-2.070954 7.738282,-4.855469 2.002472,-2.784515 5.486418,-10.715612 5.486418,-10.715612 l -1.95592,-0.760853 c 0,0 -3.444644,7.723382 -5.253155,10.238184 -1.808509,2.514801 -3.708412,3.972656 -6.015625,3.972656 -2.300131,0 -4.024899,-1.428571 -5.652343,-3.935547 -1.627446,-2.506974 -2.998027,-5.994062 -4.375,-9.529297 C 23.320291,20.08 21.938037,16.497048 20.123047,13.701172 18.308057,10.905296 15.901123,8.7988281 12.693359,8.7988281 Z"
     sodipodi:nodetypes="ssccsssssssccssssss" /></svg>
