<?xml version="1.0" encoding="UTF-8" standalone="no"?>
<svg
   height="48"
   width="48"
   version="1.1"
   id="svg4"
   sodipodi:docname="sine_wave.svg"
   inkscape:version="1.3.2 (091e20ef0f, 2023-11-25)"
   xml:space="preserve"
   xmlns:inkscape="http://www.inkscape.org/namespaces/inkscape"
   xmlns:sodipodi="http://sodipodi.sourceforge.net/DTD/sodipodi-0.dtd"
   xmlns="http://www.w3.org/2000/svg"
   xmlns:svg="http://www.w3.org/2000/svg"><defs
     id="defs8" /><sodipodi:namedview
     id="namedview6"
     pagecolor="#ffffff"
     bordercolor="#666666"
     borderopacity="1.0"
     inkscape:showpageshadow="2"
     inkscape:pageopacity="0.0"
     inkscape:pagecheckerboard="0"
     inkscape:deskcolor="#d1d1d1"
     showgrid="false"
     inkscape:zoom="8.9310969"
     inkscape:cx="6.6061314"
     inkscape:cy="29.951528"
     inkscape:window-width="1920"
     inkscape:window-height="1011"
     inkscape:window-x="0"
     inkscape:window-y="0"
     inkscape:window-maximized="1"
     inkscape:current-layer="path1" /><g
     id="path1"><path
       id="path4"
       style="color:#000000;fill:#000000;stroke-width:0.967585;stroke-linecap:round;stroke-miterlimit:10;-inkscape-stroke:none"
       d="m 13.060246,8.3239946 c -3.5249352,0 -6.1841132,2.3167314 -8.0959652,5.1554134 -1.90429,2.827452 -3.327346,6.346149 -4.71319667,9.77223 -0.40849,1.010377 0.0913,2.188331 1.10176167,2.596605 1.009394,0.408905 2.185,-0.08891 2.594715,-1.097982 l 0.0019,-0.0019 c 1.379909,-3.411393 2.776794,-6.743767 4.323896,-9.040872 1.55542,-2.30946 2.9653612,-3.395997 4.7868992,-3.395997 1.824937,0 3.160218,1.062714 4.656503,3.36765 1.486851,2.290396 2.812852,5.626131 4.144363,9.044651 1.331572,3.418668 2.677101,6.934733 4.516657,9.768451 1.848023,2.846761 4.472214,5.183761 7.999584,5.183761 3.523185,0 6.243762,-2.278031 8.273608,-5.100609 2.024202,-2.814732 3.592135,-6.338848 5.079821,-9.78546 0.432605,-1.000336 -0.03895,-2.18884 -1.039398,-2.621172 -1.001309,-0.43216 -2.19025,0.04134 -2.621172,1.043178 -1.469406,3.404197 -2.999226,6.728071 -4.658393,9.035203 -1.665833,2.316403 -3.209636,3.441351 -5.034466,3.441351 -1.824935,0 -3.162299,-1.063011 -4.658393,-3.367649 -1.486658,-2.2901 -2.810847,-5.625842 -4.142473,-9.044652 -1.331582,-3.418657 -2.677109,-6.934722 -4.516666,-9.76844 -1.848023,-2.846761 -4.472212,-5.1837604 -7.999585,-5.1837604 z" /></g></svg>
