<?xml version="1.0" encoding="UTF-8" standalone="no"?>
<svg
   height="48"
   width="48"
   version="1.1"
   id="svg4"
   sodipodi:docname="snare.svg"
   inkscape:version="1.3.2 (091e20ef0f, 2023-11-25)"
   xml:space="preserve"
   xmlns:inkscape="http://www.inkscape.org/namespaces/inkscape"
   xmlns:sodipodi="http://sodipodi.sourceforge.net/DTD/sodipodi-0.dtd"
   xmlns="http://www.w3.org/2000/svg"
   xmlns:svg="http://www.w3.org/2000/svg"><path
     id="path1"
     style="fill:#000000;stroke-width:0.217502"
     d="M 22.924017,3.5256158 C 17.253084,3.4769817 11.840721,5.0876324 6.5802675,7.0197564 4.6044715,8.0245264 2.557693,9.8414817 1.9220643,11.154522 1.4748251,12.078275 1.4667801,12.300184 1.5255799,24.058819 l 0.060547,11.964843 0.8691407,1.263672 c 2.491345,3.616789 8.9060384,6.236485 17.2929684,7.0625 2.997912,0.295262 9.539798,0.0652 12.505859,-0.439453 6.985129,-1.188472 11.986435,-3.797094 13.675781,-7.130859 l 0.570313,-1.123047 V 23.863506 c 0,-11.56899 -0.0087,-11.810023 -0.460938,-12.74414 C 45.397665,9.7940246 43.775152,7.977576 41.941595,7.2951471 37.322313,4.5993632 33.061677,4.0048412 27.67597,3.6584283 26.18885,3.5627753 24.537489,3.4988488 22.924017,3.5256158 Z m 1.496419,3.137544 c 1.711327,-0.055862 3.465455,0.1336695 4.183213,0.2168713 4.222647,0.5991657 5.24871,0.016044 11.089283,3.0852213 1.663785,1.1555756 2.495921,1.7762826 2.65237,3.9184096 0.208773,2.858561 -2.10284,4.452728 -7.356832,5.774766 C 27.456452,21.553676 16.386837,21.170887 10.080267,18.7971 6.4190379,17.419016 5.6319853,15.645289 5.3321603,13.931452 5.184135,13.085358 5.8802049,11.779383 6.5913482,10.948518 7.234469,10.197124 8.7471479,9.8080468 10.208975,9.191593 15.038186,7.5962506 18.145564,6.8679863 24.420436,6.6631598 Z M 4.9967266,20.319236 5.8450005,20.938582 c 1.0256194,0.747852 1.7180183,0.82804 2.9911774,1.245043 l 0.9370054,0.307011 v 1.998235 c 0,1.900985 -0.018572,2.007891 -0.4010667,2.175698 -0.3981448,0.174686 -0.4028414,0.212559 -0.4028414,3.840304 0,3.627744 0.00467,3.663842 0.4028414,3.838527 0.3794018,0.166453 0.4010667,0.280102 0.4010667,2.010658 0,1.008716 -0.061073,1.834969 -0.1366466,1.834969 -0.075571,0 -0.7596324,-0.313237 -1.5208592,-0.695656 C 6.406922,36.634942 6.1797956,36.440877 5.5095951,35.384083 L 4.9967266,34.576626 v -7.128695 z m 38.0363394,-0.57426 v 7.20881 c 0,6.934104 -0.01347,7.239589 -0.377753,7.992096 -0.412082,0.851245 -0.636572,1.692514 -1.857422,2.407979 -0.425655,0.24945 -1.19498,0.619505 -1.709153,0.822171 l -0.933275,0.368496 v -1.953583 c 0,-1.851534 0.01979,-1.963153 0.407381,-2.1332 0.40496,-0.177661 0.409234,-0.215749 0.409234,-3.905312 0,-3.689563 -0.0043,-3.727652 -0.409234,-3.905313 -0.388715,-0.170541 -0.407381,-0.278176 -0.407381,-2.194308 v -2.016541 l 1.525831,-0.579594 c 0.839842,-0.319017 2.149514,-0.985541 2.909078,-1.481389 z m -29.304313,3.983058 c 0.269554,0.01695 0.847988,0.10734 1.493665,0.237427 0.860902,0.173451 2.710956,0.415378 4.11068,0.536869 l 2.54437,0.221481 v 1.771845 c 0,1.677471 -0.02385,1.79021 -0.446505,2.122671 l -0.446506,0.350824 v 3.45687 3.456869 l 0.446506,0.350826 c 0.428367,0.336953 0.446505,0.432304 0.446505,2.335291 v 1.982694 l -0.937307,-0.02303 c -1.89299,-0.04678 -6.747114,-0.810156 -7.291141,-1.146384 -0.09096,-0.05622 -0.164782,-1.023012 -0.164782,-2.149248 0,-1.98838 0.0118,-2.051877 0.421699,-2.207718 0.232171,-0.08827 0.474355,-0.294239 0.536869,-0.457137 0.148147,-0.386063 0.148147,-6.577285 0,-6.96335 -0.06251,-0.162899 -0.304698,-0.368867 -0.536869,-0.457136 -0.399926,-0.15205 -0.421699,-0.242936 -0.421699,-1.741724 0,-0.870097 0.03913,-1.621387 0.08682,-1.669078 0.01192,-0.01192 0.06784,-0.01448 0.157694,-0.0089 z M 34.29957,23.591045 c 0.09611,-0.0057 0.155967,-0.0033 0.168548,0.0093 0.05033,0.05033 0.09075,0.81463 0.09075,1.698447 0,1.522423 -0.02162,1.616234 -0.427853,1.770682 -0.23583,0.08966 -0.481041,0.297578 -0.54454,0.463045 -0.150484,0.392153 -0.150484,6.681316 0,7.073467 0.0635,0.165466 0.311184,0.37592 0.550097,0.46675 0.429537,0.16331 0.433785,0.190446 0.383401,2.376344 l -0.05186,2.209648 -1.059445,0.240784 c -0.582955,0.13249 -1.985744,0.513053 -3.139442,0.513053 -1.1537,0 -2.562572,0.272271 -3.156112,0.272271 h -1.07982 v -2.085553 c 0,-1.162882 0.07465,-2.087405 0.168548,-2.087405 0.09265,0 0.296994,-0.128446 0.453784,-0.285235 0.424423,-0.424424 0.424423,-7.167656 0,-7.592079 -0.15679,-0.156788 -0.361133,-0.285235 -0.453784,-0.285235 -0.0928,0 -0.168548,-0.842475 -0.168548,-1.876256 V 24.59681 l 2.494885,-0.214853 c 1.371912,-0.118145 3.248625,-0.363982 4.171104,-0.544539 0.69186,-0.135419 1.311952,-0.229141 1.600282,-0.24634 z"
     sodipodi:nodetypes="scccccssccsccsssccssscccsccccscssssscccccsssccssscscscccsccscccccsccssscsssscccsscsscccsscssssssccsccc" /><defs
     id="defs8" /><sodipodi:namedview
     id="namedview6"
     pagecolor="#ffffff"
     bordercolor="#666666"
     borderopacity="1.0"
     inkscape:showpageshadow="2"
     inkscape:pageopacity="0.0"
     inkscape:pagecheckerboard="0"
     inkscape:deskcolor="#d1d1d1"
     showgrid="false"
     inkscape:zoom="12"
     inkscape:cx="16.375"
     inkscape:cy="25.625"
     inkscape:window-width="1920"
     inkscape:window-height="1011"
     inkscape:window-x="0"
     inkscape:window-y="0"
     inkscape:window-maximized="1"
     inkscape:current-layer="svg4" /></svg>
