<?xml version="1.0" encoding="UTF-8" standalone="no"?>
<svg
   height="48"
   width="48"
   version="1.1"
   id="svg4"
   sodipodi:docname="trumpet.svg"
   inkscape:version="1.3.2 (091e20ef0f, 2023-11-25)"
   xml:space="preserve"
   xmlns:inkscape="http://www.inkscape.org/namespaces/inkscape"
   xmlns:sodipodi="http://sodipodi.sourceforge.net/DTD/sodipodi-0.dtd"
   xmlns="http://www.w3.org/2000/svg"
   xmlns:svg="http://www.w3.org/2000/svg"><defs
     id="defs8" /><sodipodi:namedview
     id="namedview6"
     pagecolor="#ffffff"
     bordercolor="#666666"
     borderopacity="1.0"
     inkscape:showpageshadow="2"
     inkscape:pageopacity="0.0"
     inkscape:pagecheckerboard="0"
     inkscape:deskcolor="#d1d1d1"
     showgrid="false"
     inkscape:zoom="10.922721"
     inkscape:cx="30.074924"
     inkscape:cy="15.243454"
     inkscape:window-width="1920"
     inkscape:window-height="1011"
     inkscape:window-x="0"
     inkscape:window-y="0"
     inkscape:window-maximized="1"
     inkscape:current-layer="svg4" /><path
     id="path3"
     style="fill:#000000;stroke-width:0.0928473"
     d="m 33.382328,0.23728071 c -0.564179,0.0354391 -0.960047,0.26240154 -1.245609,0.90795599 -0.370939,0.8385597 -0.08762,1.6881581 0.601186,2.4726871 l 0.296475,0.3355937 -0.255298,2.7218088 c -0.429763,3.1929329 -0.917259,4.2739947 -1.869441,6.2280417 -0.816232,1.675049 -1.047732,2.829691 -3.74712,5.560973 l -2.456216,2.485041 -2.250331,-2.242095 c -1.052327,-1.047707 -1.94681,-1.863326 -2.048563,-1.869443 -0.355031,-0.02163 -0.462555,0.03096 -0.852367,0.409713 l -0.3953,0.385006 -0.551773,-0.547656 -0.553833,-0.547656 0.356182,-0.387065 c 0.196475,-0.213157 0.387387,-0.481368 0.424124,-0.597069 0.09814,-0.309205 -0.216637,-0.693047 -0.601186,-0.730893 -0.282298,-0.02778 -0.403355,0.06776 -1.593555,1.257961 -1.092629,1.092626 -1.28473,1.330079 -1.284727,1.570907 -2e-6,0.288127 0.21041,0.559832 0.463243,0.595011 0.330973,0.04605 0.493429,-0.02616 0.889426,-0.391183 l 0.420007,-0.387066 0.50648,0.500303 c 0.27848,0.27505 0.50648,0.54391 0.506478,0.599127 0,0.05522 -0.168392,0.263781 -0.372653,0.463242 -0.65297,0.637615 -0.644801,0.654476 1.507083,2.808282 l 2.264743,2.264742 -0.924428,0.926485 -0.926485,0.930604 -2.295625,-2.28739 c -1.34497,-1.339454 -1.972268,-1.902379 -2.118564,-1.902383 -0.119411,0 -0.404473,0.184937 -0.671187,0.434418 l -0.463244,0.43236 -0.551773,-0.54148 -0.549715,-0.543538 0.41589,-0.444713 c 0.499026,-0.533493 0.548727,-0.889128 0.168826,-1.18796 -0.134549,-0.105839 -0.33041,-0.191478 -0.436477,-0.191473 -0.132023,0 -0.844712,0.64552 -1.523555,1.323844 -0.678842,0.678323 -1.323838,1.389475 -1.323845,1.521495 0,0.106068 0.08563,0.301925 0.191473,0.436478 0.298833,0.379901 0.654463,0.330199 1.187961,-0.168826 l 0.444713,-0.413831 0.547657,0.551774 0.547655,0.553833 -0.438537,0.444713 c -0.710774,0.721658 -0.731707,0.680576 1.439142,2.867988 l 2.260625,2.275037 -0.899721,0.903838 -0.89972,0.901778 -2.272978,-2.264742 c -2.175706,-2.166313 -2.14714,-2.151489 -2.8494582,-1.45973 l -0.424125,0.417949 -0.547656,-0.553833 -0.5455971,-0.551773 0.3870651,-0.420007 c 0.46067,-0.499773 0.530378,-0.961901 0.1811794,-1.20649 -0.4329897,-0.303279 -0.5967426,-0.208312 -1.9456197,1.128253 -1.1944338,1.183552 -1.2868,1.293233 -1.2867856,1.616202 2e-7,0.253528 0.059319,0.386522 0.2100034,0.492067 0.3417852,0.239396 0.6049805,0.173531 1.078841,-0.26971 l 0.4447131,-0.41383 0.5435382,0.549715 0.5435383,0.549715 -0.4426543,0.473537 c -0.3729517,0.398682 -0.4337886,0.514248 -0.3829473,0.724717 0.037675,0.155944 0.7576758,0.949479 1.9126775,2.10827 L 11.558445,34.086947 7.7619119,37.88348 3.7121403,41.929133 3.4053707,41.799426 C 2.9463292,41.606968 1.79428,41.135913 1.3485727,41.367065 c -0.79044149,0.409927 -1.07517559,0.961986 -1.07472339,1.850913 4.306e-4,0.851694 0.2261001,1.222006 1.59561419,2.616807 1.2216884,1.244242 1.6441667,1.589332 2.2194477,1.803558 0.9637076,0.358878 2.047702,-0.0421 2.5591591,-1.045898 C 6.8518923,46.19242 6.369443,45.013479 6.1889452,44.583 L 6.0551195,44.272113 7.6692633,42.664145 c 1.2781565,-1.276792 1.8078985,-1.788618 1.8653245,-1.570907 0.03367,0.127665 0.181257,1.412732 0.399418,1.846794 0.9706032,1.931137 2.6967222,3.42823 4.7662532,4.132126 2.467108,0.839116 5.379097,0.376805 7.477769,-1.183843 0.702245,-0.522215 13.955118,-13.788349 14.401705,-14.416116 0.491313,-0.690509 0.93288,-1.609421 1.212666,-2.526218 0.224306,-0.735036 0.249121,-0.958064 0.249121,-2.254448 -10e-7,-1.296693 -0.02455,-1.520603 -0.249121,-2.256507 -0.46831,-1.534634 -1.153202,-2.644532 -2.318273,-3.751237 -0.728972,-0.692447 -1.869515,-1.447554 -2.64769,-1.727381 -0.247715,-0.08907 -0.45089,-0.189585 -0.45089,-0.222357 0,-0.11616 1.521722,-1.045734 2.295626,-1.455611 2.127921,-1.126996 3.475228,-1.682786 7.146292,-2.147388 l 2.198859,-0.175003 0.479714,0.37883 c 0.610776,0.482791 0.848618,0.767648 1.587379,0.7206 0.7289,-0.04641 1.05258,-0.181289 1.470024,-0.856485 0.244229,-0.395028 0.158578,-0.416517 0.156473,-0.988251 -0.0017,-0.451745 -0.05645,-0.758705 -0.172944,-0.982075 C 47.31297,12.799177 35.382471,0.84150968 34.879116,0.54199164 34.606382,0.3797078 34.307566,0.28690737 34.004102,0.25786933 33.776507,0.23609193 33.570388,0.22546773 33.382328,0.23728071 Z m 2.820634,6.88481759 4.714782,4.6159577 c -2.66156,0.196947 -3.785338,0.669498 -5.913037,1.319727 0.900355,-2.999037 1.051585,-3.9123737 1.198255,-5.9356847 z M 30.345513,22.250579 c 1.648325,-0.08875 3.013477,0.718564 3.724472,2.200918 0.323836,0.67516 0.877482,1.963282 0.6506,2.732103 -0.275182,1.093617 -0.86287,1.930376 -1.006781,2.14533 l -0.350007,0.302651 -3.197404,-3.215934 c -2.209043,-2.21003 -2.857739,-3.304598 -2.956518,-3.201523 0.258175,-0.311082 2.371436,-0.922402 3.135638,-0.963545 z m -6.458634,4.19801 3.096521,3.098579 3.234465,3.246817 -0.930604,0.928544 -0.928544,0.932663 -3.234465,-3.250935 -3.100638,-3.102698 0.930603,-0.926485 z m -5.017434,5.013316 3.09858,3.098579 3.232405,3.246818 -0.879131,0.885308 c -0.483001,0.486131 -0.901679,0.881188 -0.928545,0.881192 -0.02688,0 -1.776857,-1.745319 -3.257112,-3.226229 L 17.05971,33.27164 17.963549,32.367802 Z m -4.965963,5.083318 c 0.05131,-0.01468 1.677412,1.561461 3.145934,3.030637 l 3.187111,3.203581 -0.393242,0.257358 c -0.217654,0.141223 -1.177233,0.695373 -1.414435,0.765894 -0.606458,0.180281 -1.782469,-0.02553 -2.316214,-0.119414 -1.134649,-0.199586 -2.317638,-1.12087 -2.824752,-2.202977 -0.224383,-0.478798 -0.25118,-0.637368 -0.251181,-1.554436 2e-6,-0.984438 0.136124,-2.088884 0.448832,-2.709457 0.178728,-0.354693 0.366633,-0.656501 0.417947,-0.671186 z m 2.670338,9.59839 0.0041,0.0041 c -0.0028,-2.77e-4 -0.0054,2.67e-4 -0.0082,0 z" /></svg>
