<?xml version="1.0" encoding="UTF-8" standalone="no"?>
<svg
   height="48"
   width="48"
   version="1.1"
   id="svg4"
   sodipodi:docname="tuning_fork.svg"
   inkscape:version="1.3.2 (091e20ef0f, 2023-11-25)"
   xml:space="preserve"
   inkscape:export-filename="tuning_fork.png"
   inkscape:export-xdpi="96"
   inkscape:export-ydpi="96"
   xmlns:inkscape="http://www.inkscape.org/namespaces/inkscape"
   xmlns:sodipodi="http://sodipodi.sourceforge.net/DTD/sodipodi-0.dtd"
   xmlns="http://www.w3.org/2000/svg"
   xmlns:svg="http://www.w3.org/2000/svg"><defs
     id="defs8"><inkscape:path-effect
       effect="fillet_chamfer"
       id="path-effect10"
       is_visible="true"
       lpeversion="1"
       nodesatellites_param="F,0,1,1,0,2.5511621,0,1 @ F,0,1,1,0,2.5511621,0,1 @ F,0,1,1,0,2.5511621,0,1 @ F,0,1,1,0,2.5511621,0,1 | F,0,1,1,0,2.5511621,0,1 @ F,0,1,1,0,2.5511621,0,1 @ F,0,1,1,0,2.5511621,0,1 @ F,0,1,1,0,2.5511621,0,1 | F,0,1,1,0,2.5511621,0,1 @ F,0,1,1,0,2.5511621,0,1 @ F,0,1,1,0,2.5511621,0,1 @ F,0,1,1,0,2.5511621,0,1 | F,0,1,1,0,2.5511621,0,1 @ F,0,1,1,0,2.5511621,0,1 @ F,0,0,1,0,2.5511621,0,1 @ F,0,1,1,0,2.5511621,0,1 | F,0,1,1,0,2.5511621,0,1 @ F,0,0,1,0,0,0,1 @ F,0,0,1,0,0,0,1 @ F,0,0,1,0,0,0,1 @ F,0,1,1,0,2.5511621,0,1 @ F,0,1,1,0,2.5511621,0,1 @ F,0,0,1,0,0,0,1 @ F,0,0,1,0,0,0,1 @ F,0,0,1,0,0,0,1 @ F,0,0,1,0,0,0,1 @ F,0,0,1,0,0,0,1 @ F,0,0,1,0,0,0,1 @ F,0,0,1,0,0,0,1 @ F,0,0,1,0,0,0,1 @ F,0,0,1,0,0,0,1 @ F,0,0,1,0,0,0,1 @ F,0,1,1,0,2.5511621,0,1"
       radius="0"
       unit="px"
       method="auto"
       mode="F"
       chamfer_steps="1"
       flexible="false"
       use_knot_distance="true"
       apply_no_radius="true"
       apply_with_radius="true"
       only_selected="false"
       hide_knots="false" /><inkscape:path-effect
       effect="fillet_chamfer"
       id="path-effect4"
       is_visible="true"
       lpeversion="1"
       nodesatellites_param="F,0,0,1,0,0,0,1 @ F,0,0,1,0,0,0,1 @ F,0,0,1,0,0,0,1 @ F,0,0,1,0,0,0,1"
       radius="0"
       unit="px"
       method="auto"
       mode="F"
       chamfer_steps="1"
       flexible="false"
       use_knot_distance="true"
       apply_no_radius="true"
       apply_with_radius="true"
       only_selected="false"
       hide_knots="false" /><inkscape:path-effect
       effect="fillet_chamfer"
       id="path-effect3"
       is_visible="true"
       lpeversion="1"
       nodesatellites_param="F,0,0,1,0,0,0,1 @ F,0,0,1,0,0,0,1 @ F,0,0,1,0,0,0,1 @ F,0,0,1,0,0,0,1"
       radius="0"
       unit="px"
       method="auto"
       mode="F"
       chamfer_steps="1"
       flexible="false"
       use_knot_distance="true"
       apply_no_radius="true"
       apply_with_radius="true"
       only_selected="false"
       hide_knots="false" /><inkscape:path-effect
       effect="fillet_chamfer"
       id="path-effect2"
       is_visible="true"
       lpeversion="1"
       nodesatellites_param="F,0,0,1,0,0,0,1 @ F,0,0,1,0,0,0,1 @ F,0,0,1,0,0,0,1 @ F,0,0,1,0,0,0,1"
       radius="0"
       unit="px"
       method="auto"
       mode="F"
       chamfer_steps="1"
       flexible="false"
       use_knot_distance="true"
       apply_no_radius="true"
       apply_with_radius="true"
       only_selected="false"
       hide_knots="false" /></defs><sodipodi:namedview
     id="namedview6"
     pagecolor="#ffffff"
     bordercolor="#666666"
     borderopacity="1.0"
     inkscape:showpageshadow="2"
     inkscape:pageopacity="0.0"
     inkscape:pagecheckerboard="0"
     inkscape:deskcolor="#d1d1d1"
     showgrid="false"
     inkscape:zoom="7.163133"
     inkscape:cx="23.872236"
     inkscape:cy="20.870756"
     inkscape:window-width="1920"
     inkscape:window-height="1011"
     inkscape:window-x="0"
     inkscape:window-y="0"
     inkscape:window-maximized="1"
     inkscape:current-layer="g1" /><g
     id="g1"
     transform="matrix(0.53180301,0,0,0.53180301,-2.5901505,-8.4399836)"><path
       id="path5"
       d="m 21.752536,39.101079 -0.0051,-0.0022 C 20.450995,38.547232 19.831395,37.04099 20.451183,35.77591 24.471747,27.56934 31.034049,21.070201 39.178912,17.057823 c 1.263732,-0.622548 2.76832,-0.0068 3.320009,1.289641 l 0.0022,0.0051 c 0.551689,1.296469 -0.0591,2.782202 -1.316825,3.416647 -6.937399,3.499483 -12.51559,9.077674 -16.015073,16.015073 -0.634444,1.257726 -2.120176,1.868512 -3.416645,1.316823 z m 50.148543,50.151457 -0.0022,-0.0051 c -0.551689,-1.296469 0.05901,-2.78224 1.317663,-3.414881 6.942996,-3.489793 12.524519,-9.012299 16.023289,-16.012688 0.629777,-1.260066 2.111122,-1.872663 3.407591,-1.320974 l 0.0051,0.0022 c 1.296469,0.551689 1.912188,2.05628 1.289638,3.320014 -4.012378,8.144863 -10.511518,14.707163 -18.718089,18.727727 -1.265078,0.619786 -2.771317,1.85e-4 -3.323006,-1.296284 z m -3.9,-9.5 -0.0022,-0.0051 c -0.551689,-1.296469 0.06503,-2.772098 1.307822,-3.434713 4.442723,-2.368715 8.037296,-5.963288 10.406009,-10.406011 0.662615,-1.242789 2.138243,-1.859508 3.434712,-1.307819 l 0.0051,0.0022 c 1.296469,0.551689 1.920543,2.060901 1.276427,3.313564 -2.902128,5.643987 -7.470334,10.212193 -13.114322,13.11432 -1.252662,0.644117 -2.761873,0.02004 -3.313562,-1.276427 z m -36.748543,-36.751457 -0.0051,-0.0022 c -1.296469,-0.551689 -1.925573,-2.062882 -1.288018,-3.318903 2.906301,-5.725587 7.494988,-10.314274 13.220576,-13.220574 1.256019,-0.637553 2.76721,-0.0084 3.318899,1.28802 l 0.0022,0.0051 c 0.551689,1.296469 -0.06125,2.780636 -1.302119,3.446962 -4.518159,2.426179 -8.134927,6.037 -10.511639,10.493798 -0.662721,1.242731 -2.138316,1.859472 -3.434785,1.307783 z M 77.798829,40.406713 47.1,71.2 c -2,2 -5.2,2 -7.2,0 -2,-2 -2,-5.2 0,-7.2 L 70.696056,33.203944 a 2.5511621,2.5511621 90 0 0 0,-3.607888 l -3.592112,-3.592112 a 2.5589998,2.5589998 0.08787669 0 0 -3.613413,-0.0055 L 32.6,56.7 c -4.7,4.7 -5.7,11.7 -3,17.4 L 17.8,85.9 C 17,85.7 16.1,85.5 15.2,85.5 9.6,85.5 5,90.1 5,95.8 5,101.4 9.6,106 15.2,106 20.8,106 25.4,101.4 25.4,95.8 25.4,94.9 25.2,94 25,93.2 L 36.8,81.4 c 5.7,2.7 12.7,1.8 17.4,-2.9 L 84.996056,47.703944 a 2.568817,2.568817 90.197569 0 0 0.01248,-3.620286 l -3.61708,-3.667316 a 2.5297395,2.5297395 0.15356258 0 0 -3.592631,-0.0096 z"
       inkscape:path-effect="#path-effect10"
       inkscape:original-d="m 24.1,40.1 -4.7,-2 C 23.6,28 31.5,20.2 41.5,16 l 2,4.7 C 34.7,24.4 27.8,31.3 24.1,40.1 Z m 48.8,51.5 -2,-4.7 C 79.7,83.2 86.6,76.4 90.3,67.5 l 4.7,2 C 90.8,79.5 83,87.4 72.9,91.6 Z M 69,82.1 67,77.4 c 6.3,-2.6 11.2,-7.5 13.8,-13.8 l 4.7,2 C 82.4,73.1 76.5,79 69,82.1 Z M 33.6,44 28.9,42 c 3.1,-7.6 9,-13.5 16.6,-16.6 l 2,4.7 C 41.1,32.8 36.2,37.7 33.6,44 Z m 46,-5.4 -32.5,32.6 c -2,2 -5.2,2 -7.2,0 -2,-2 -2,-5.2 0,-7.2 L 72.5,31.4 65.3,24.2 32.6,56.7 c -4.7,4.7 -5.7,11.7 -3,17.4 L 17.8,85.9 C 17,85.7 16.1,85.5 15.2,85.5 9.6,85.5 5,90.1 5,95.8 5,101.4 9.6,106 15.2,106 20.8,106 25.4,101.4 25.4,95.8 25.4,94.9 25.2,94 25,93.2 L 36.8,81.4 c 5.7,2.7 12.7,1.8 17.4,-2.9 L 86.8,45.9 Z" /></g></svg>
