<?xml version="1.0" encoding="UTF-8" standalone="no"?>
<svg
   height="48"
   width="48"
   version="1.1"
   id="svg4"
   sodipodi:docname="waveform.svg"
   inkscape:version="1.4.4 (dcaf3e7d9e, 2026-05-05)"
   xml:space="preserve"
   inkscape:export-filename="tuning_fork.png"
   inkscape:export-xdpi="96"
   inkscape:export-ydpi="96"
   xmlns:inkscape="http://www.inkscape.org/namespaces/inkscape"
   xmlns:sodipodi="http://sodipodi.sourceforge.net/DTD/sodipodi-0.dtd"
   xmlns="http://www.w3.org/2000/svg"
   xmlns:svg="http://www.w3.org/2000/svg"><defs
     id="defs8"><inkscape:path-effect
       effect="fillet_chamfer"
       id="path-effect10"
       is_visible="true"
       lpeversion="1"
       nodesatellites_param="F,0,1,1,0,2.5511621,0,1 @ F,0,1,1,0,2.5511621,0,1 @ F,0,1,1,0,2.5511621,0,1 @ F,0,1,1,0,2.5511621,0,1 | F,0,1,1,0,2.5511621,0,1 @ F,0,1,1,0,2.5511621,0,1 @ F,0,1,1,0,2.5511621,0,1 @ F,0,1,1,0,2.5511621,0,1 | F,0,1,1,0,2.5511621,0,1 @ F,0,1,1,0,2.5511621,0,1 @ F,0,1,1,0,2.5511621,0,1 @ F,0,1,1,0,2.5511621,0,1 | F,0,1,1,0,2.5511621,0,1 @ F,0,1,1,0,2.5511621,0,1 @ F,0,0,1,0,2.5511621,0,1 @ F,0,1,1,0,2.5511621,0,1 | F,0,1,1,0,2.5511621,0,1 @ F,0,0,1,0,0,0,1 @ F,0,0,1,0,0,0,1 @ F,0,0,1,0,0,0,1 @ F,0,1,1,0,2.5511621,0,1 @ F,0,1,1,0,2.5511621,0,1 @ F,0,0,1,0,0,0,1 @ F,0,0,1,0,0,0,1 @ F,0,0,1,0,0,0,1 @ F,0,0,1,0,0,0,1 @ F,0,0,1,0,0,0,1 @ F,0,0,1,0,0,0,1 @ F,0,0,1,0,0,0,1 @ F,0,0,1,0,0,0,1 @ F,0,0,1,0,0,0,1 @ F,0,0,1,0,0,0,1 @ F,0,1,1,0,2.5511621,0,1"
       radius="0"
       unit="px"
       method="auto"
       mode="F"
       chamfer_steps="1"
       flexible="false"
       use_knot_distance="true"
       apply_no_radius="true"
       apply_with_radius="true"
       only_selected="false"
       hide_knots="false" /><inkscape:path-effect
       effect="fillet_chamfer"
       id="path-effect4"
       is_visible="true"
       lpeversion="1"
       nodesatellites_param="F,0,0,1,0,0,0,1 @ F,0,0,1,0,0,0,1 @ F,0,0,1,0,0,0,1 @ F,0,0,1,0,0,0,1"
       radius="0"
       unit="px"
       method="auto"
       mode="F"
       chamfer_steps="1"
       flexible="false"
       use_knot_distance="true"
       apply_no_radius="true"
       apply_with_radius="true"
       only_selected="false"
       hide_knots="false" /><inkscape:path-effect
       effect="fillet_chamfer"
       id="path-effect3"
       is_visible="true"
       lpeversion="1"
       nodesatellites_param="F,0,0,1,0,0,0,1 @ F,0,0,1,0,0,0,1 @ F,0,0,1,0,0,0,1 @ F,0,0,1,0,0,0,1"
       radius="0"
       unit="px"
       method="auto"
       mode="F"
       chamfer_steps="1"
       flexible="false"
       use_knot_distance="true"
       apply_no_radius="true"
       apply_with_radius="true"
       only_selected="false"
       hide_knots="false" /><inkscape:path-effect
       effect="fillet_chamfer"
       id="path-effect2"
       is_visible="true"
       lpeversion="1"
       nodesatellites_param="F,0,0,1,0,0,0,1 @ F,0,0,1,0,0,0,1 @ F,0,0,1,0,0,0,1 @ F,0,0,1,0,0,0,1"
       radius="0"
       unit="px"
       method="auto"
       mode="F"
       chamfer_steps="1"
       flexible="false"
       use_knot_distance="true"
       apply_no_radius="true"
       apply_with_radius="true"
       only_selected="false"
       hide_knots="false" /></defs><sodipodi:namedview
     id="namedview6"
     pagecolor="#ffffff"
     bordercolor="#666666"
     borderopacity="1.0"
     inkscape:showpageshadow="2"
     inkscape:pageopacity="0.0"
     inkscape:pagecheckerboard="0"
     inkscape:deskcolor="#d1d1d1"
     showgrid="false"
     inkscape:zoom="7.163133"
     inkscape:cx="23.872236"
     inkscape:cy="20.940558"
     inkscape:window-width="1728"
     inkscape:window-height="1011"
     inkscape:window-x="0"
     inkscape:window-y="0"
     inkscape:window-maximized="1"
     inkscape:current-layer="g1" /><g
     id="g1"
     transform="matrix(0.53180301,0,0,0.53180301,-2.5901505,-8.4399836)"><path
       id="path1"
       style="stroke-width:0.107059"
       d="m 67.129455,18.176361 a 4.2823639,4.2823639 0 0 0 -4.282365,4.282363 v 77.082552 a 4.2823639,4.2823639 0 0 0 4.282365,4.282364 4.2823639,4.2823639 0 0 0 4.282364,-4.282364 V 22.458724 A 4.2823639,4.2823639 0 0 0 67.129455,18.176361 Z M 49.999999,35.305817 a 4.2823639,4.2823639 0 0 0 -4.282365,4.282363 v 42.823641 a 4.2823639,4.2823639 0 0 0 4.282365,4.282362 4.2823639,4.2823639 0 0 0 4.282363,-4.282362 V 39.58818 A 4.2823639,4.2823639 0 0 0 49.999999,35.305817 Z M 84.25891,39.58818 a 4.2823639,4.2823639 0 0 0 -4.282363,4.282364 v 34.258912 a 4.2823639,4.2823639 0 0 0 4.282363,4.282365 4.2823639,4.2823639 0 0 0 4.282367,-4.282365 V 43.870544 A 4.2823639,4.2823639 0 0 0 84.25891,39.58818 Z m -68.517822,4.282364 a 4.2823634,4.2823634 0 0 0 -4.282365,4.282363 v 25.694186 a 4.2823634,4.2823634 0 0 0 4.282365,4.282363 4.2823634,4.2823634 0 0 0 4.282363,-4.282363 V 48.152907 a 4.2823634,4.2823634 0 0 0 -4.282363,-4.282363 z m 17.129455,8.564728 a 4.2823634,4.2823634 0 0 0 -4.282363,4.282365 v 8.564728 a 4.2823634,4.2823634 0 0 0 4.282363,4.282363 4.2823634,4.2823634 0 0 0 4.282365,-4.282363 v -8.564728 a 4.2823634,4.2823634 0 0 0 -4.282365,-4.282365 z" /></g></svg>
