<?xml version="1.0" encoding="UTF-8" standalone="no"?>
<svg
   height="48"
   width="48"
   version="1.1"
   id="svg4"
   sodipodi:docname="youtube.svg"
   inkscape:version="1.2.1 (9c6d41e410, 2022-07-14)"
   xml:space="preserve"
   xmlns:inkscape="http://www.inkscape.org/namespaces/inkscape"
   xmlns:sodipodi="http://sodipodi.sourceforge.net/DTD/sodipodi-0.dtd"
   xmlns="http://www.w3.org/2000/svg"
   xmlns:svg="http://www.w3.org/2000/svg"><defs
     id="defs8" /><sodipodi:namedview
     id="namedview6"
     pagecolor="#ffffff"
     bordercolor="#666666"
     borderopacity="1.0"
     inkscape:showpageshadow="2"
     inkscape:pageopacity="0.0"
     inkscape:pagecheckerboard="0"
     inkscape:deskcolor="#d1d1d1"
     showgrid="false"
     inkscape:zoom="6.1577786"
     inkscape:cx="15.021651"
     inkscape:cy="18.350774"
     inkscape:window-width="1920"
     inkscape:window-height="963"
     inkscape:window-x="0"
     inkscape:window-y="0"
     inkscape:window-maximized="1"
     inkscape:current-layer="svg4" /><g
     id="g235"
     transform="matrix(0.10048096,0,0,0.10048096,0.83908848,0.83903824)"
     style="fill:#000000"><g
       id="g181"
       style="fill:#000000">
	<path
   id="path179"
   style="fill:#000000"
   d="M 365.257,67.393 H 95.744 C 42.866,67.393 0,110.259 0,163.137 v 134.728 c 0,52.878 42.866,95.744 95.744,95.744 h 269.513 c 52.878,0 95.744,-42.866 95.744,-95.744 V 163.137 c 0,-52.878 -42.866,-95.744 -95.744,-95.744 z m -64.751,169.663 -126.06,60.123 c -3.359,1.602 -7.239,-0.847 -7.239,-4.568 V 168.607 c 0,-3.774 3.982,-6.22 7.348,-4.514 l 126.06,63.881 c 3.748,1.899 3.683,7.274 -0.109,9.082 z" />
</g><g
       id="g183"
       style="fill:#000000">
</g><g
       id="g185"
       style="fill:#000000">
</g><g
       id="g187"
       style="fill:#000000">
</g><g
       id="g189"
       style="fill:#000000">
</g><g
       id="g191"
       style="fill:#000000">
</g><g
       id="g193"
       style="fill:#000000">
</g><g
       id="g195"
       style="fill:#000000">
</g><g
       id="g197"
       style="fill:#000000">
</g><g
       id="g199"
       style="fill:#000000">
</g><g
       id="g201"
       style="fill:#000000">
</g><g
       id="g203"
       style="fill:#000000">
</g><g
       id="g205"
       style="fill:#000000">
</g><g
       id="g207"
       style="fill:#000000">
</g><g
       id="g209"
       style="fill:#000000">
</g><g
       id="g211"
       style="fill:#000000">
</g></g></svg>
